<mxfile host="app.diagrams.net" modified="2023-12-24T21:46:32.537Z" agent="Mozilla/5.0 (Windows NT 10.0; Win64; x64) AppleWebKit/537.36 (KHTML, like Gecko) Chrome/118.0.0.0 YaBrowser/23.11.0.0 Safari/537.36" etag="NUEM-VjNGuNeqWj_5rYt" version="22.1.11" type="google" pages="4">
  <diagram name="Администратор" id="54ZWk5Eb6-7BOh9zKx2N">
    <mxGraphModel grid="1" page="1" gridSize="10" guides="1" tooltips="1" connect="1" arrows="1" fold="1" pageScale="1" pageWidth="827" pageHeight="1169" math="0" shadow="0">
      <root>
        <mxCell id="0" />
        <mxCell id="1" parent="0" />
        <mxCell id="K-PSPklfkQnK7yrbVC1b-34" style="edgeStyle=orthogonalEdgeStyle;shape=connector;rounded=0;orthogonalLoop=1;jettySize=auto;html=1;entryX=0.5;entryY=0;entryDx=0;entryDy=0;labelBackgroundColor=default;strokeColor=default;align=center;verticalAlign=middle;fontFamily=Helvetica;fontSize=11;fontColor=default;endArrow=classic;" edge="1" parent="1" source="edmpL2D2ozhNpO6BALTp-1" target="K-PSPklfkQnK7yrbVC1b-33">
          <mxGeometry relative="1" as="geometry" />
        </mxCell>
        <mxCell id="edmpL2D2ozhNpO6BALTp-1" value="Начало" style="ellipse;whiteSpace=wrap;html=1;" vertex="1" parent="1">
          <mxGeometry x="1055" width="120" height="60" as="geometry" />
        </mxCell>
        <mxCell id="edmpL2D2ozhNpO6BALTp-2" value="Нажатие на кнопку &quot;Новый пользователь&quot;" style="rounded=0;whiteSpace=wrap;html=1;" vertex="1" parent="1">
          <mxGeometry x="895" y="139" width="120" height="60" as="geometry" />
        </mxCell>
        <mxCell id="edmpL2D2ozhNpO6BALTp-3" style="edgeStyle=orthogonalEdgeStyle;rounded=0;orthogonalLoop=1;jettySize=auto;html=1;exitX=0.5;exitY=1;exitDx=0;exitDy=0;" edge="1" parent="1" source="K-PSPklfkQnK7yrbVC1b-33" target="edmpL2D2ozhNpO6BALTp-2">
          <mxGeometry relative="1" as="geometry">
            <Array as="points">
              <mxPoint x="1115" y="169" />
            </Array>
            <mxPoint x="1190" y="140" as="sourcePoint" />
          </mxGeometry>
        </mxCell>
        <mxCell id="K-PSPklfkQnK7yrbVC1b-13" style="edgeStyle=orthogonalEdgeStyle;rounded=0;hachureGap=4;orthogonalLoop=1;jettySize=auto;html=1;entryX=0.5;entryY=0;entryDx=0;entryDy=0;fontFamily=Helvetica;fontSource=https%3A%2F%2Ffonts.googleapis.com%2Fcss%3Ffamily%3DArchitects%2BDaughter;fontSize=11;strokeColor=default;" edge="1" parent="1" source="edmpL2D2ozhNpO6BALTp-4" target="K-PSPklfkQnK7yrbVC1b-10">
          <mxGeometry relative="1" as="geometry" />
        </mxCell>
        <mxCell id="edmpL2D2ozhNpO6BALTp-4" value="Открывается окно с полями для ввода" style="rounded=0;whiteSpace=wrap;html=1;" vertex="1" parent="1">
          <mxGeometry x="895" y="239" width="120" height="60" as="geometry" />
        </mxCell>
        <mxCell id="edmpL2D2ozhNpO6BALTp-5" value="" style="edgeStyle=orthogonalEdgeStyle;rounded=0;orthogonalLoop=1;jettySize=auto;html=1;" edge="1" parent="1" source="edmpL2D2ozhNpO6BALTp-2" target="edmpL2D2ozhNpO6BALTp-4">
          <mxGeometry relative="1" as="geometry" />
        </mxCell>
        <mxCell id="edmpL2D2ozhNpO6BALTp-9" value="Нажатие на кнопку &quot;Создать&quot;" style="whiteSpace=wrap;html=1;rounded=0;" vertex="1" parent="1">
          <mxGeometry x="895" y="430" width="120" height="60" as="geometry" />
        </mxCell>
        <mxCell id="edmpL2D2ozhNpO6BALTp-11" value="Все поля заполнены?" style="rhombus;whiteSpace=wrap;html=1;rounded=0;" vertex="1" parent="1">
          <mxGeometry x="896" y="519" width="120" height="80" as="geometry" />
        </mxCell>
        <mxCell id="edmpL2D2ozhNpO6BALTp-12" value="" style="edgeStyle=orthogonalEdgeStyle;rounded=0;orthogonalLoop=1;jettySize=auto;html=1;" edge="1" parent="1" source="edmpL2D2ozhNpO6BALTp-9" target="edmpL2D2ozhNpO6BALTp-11">
          <mxGeometry relative="1" as="geometry" />
        </mxCell>
        <mxCell id="K-PSPklfkQnK7yrbVC1b-16" style="edgeStyle=orthogonalEdgeStyle;shape=connector;rounded=0;orthogonalLoop=1;jettySize=auto;html=1;entryX=1;entryY=0.5;entryDx=0;entryDy=0;labelBackgroundColor=default;strokeColor=default;align=center;verticalAlign=middle;fontFamily=Helvetica;fontSize=11;fontColor=default;endArrow=classic;" edge="1" parent="1" source="edmpL2D2ozhNpO6BALTp-14" target="K-PSPklfkQnK7yrbVC1b-10">
          <mxGeometry relative="1" as="geometry" />
        </mxCell>
        <mxCell id="edmpL2D2ozhNpO6BALTp-14" value="Подсветить поля, которые не заполнены" style="whiteSpace=wrap;html=1;rounded=0;" vertex="1" parent="1">
          <mxGeometry x="1040" y="339" width="120" height="60" as="geometry" />
        </mxCell>
        <mxCell id="edmpL2D2ozhNpO6BALTp-15" value="Нет" style="edgeStyle=orthogonalEdgeStyle;rounded=0;orthogonalLoop=1;jettySize=auto;html=1;" edge="1" parent="1" source="edmpL2D2ozhNpO6BALTp-11" target="edmpL2D2ozhNpO6BALTp-14">
          <mxGeometry relative="1" as="geometry" />
        </mxCell>
        <mxCell id="cZ4xT_iFsNtZNHPC_2zM-1" style="edgeStyle=orthogonalEdgeStyle;rounded=0;orthogonalLoop=1;jettySize=auto;html=1;entryX=0;entryY=0.5;entryDx=0;entryDy=0;" edge="1" parent="1" source="edmpL2D2ozhNpO6BALTp-17" target="K-PSPklfkQnK7yrbVC1b-33">
          <mxGeometry relative="1" as="geometry">
            <mxPoint x="1115" y="129" as="targetPoint" />
            <Array as="points">
              <mxPoint x="838" y="660" />
              <mxPoint x="838" y="120" />
            </Array>
          </mxGeometry>
        </mxCell>
        <mxCell id="edmpL2D2ozhNpO6BALTp-18" value="Да" style="edgeStyle=orthogonalEdgeStyle;rounded=0;orthogonalLoop=1;jettySize=auto;html=1;" edge="1" parent="1" source="edmpL2D2ozhNpO6BALTp-11" target="edmpL2D2ozhNpO6BALTp-17">
          <mxGeometry relative="1" as="geometry" />
        </mxCell>
        <mxCell id="edmpL2D2ozhNpO6BALTp-19" value="Нажатие на кнопку &quot;Пользователи&quot;" style="whiteSpace=wrap;html=1;" vertex="1" parent="1">
          <mxGeometry x="1215" y="199" width="120" height="60" as="geometry" />
        </mxCell>
        <mxCell id="edmpL2D2ozhNpO6BALTp-20" value="" style="edgeStyle=orthogonalEdgeStyle;rounded=0;orthogonalLoop=1;jettySize=auto;html=1;exitX=0.5;exitY=1;exitDx=0;exitDy=0;" edge="1" parent="1" source="K-PSPklfkQnK7yrbVC1b-33" target="edmpL2D2ozhNpO6BALTp-19">
          <mxGeometry relative="1" as="geometry">
            <Array as="points">
              <mxPoint x="1115" y="229" />
            </Array>
            <mxPoint x="1190" y="140" as="sourcePoint" />
          </mxGeometry>
        </mxCell>
        <mxCell id="cZ4xT_iFsNtZNHPC_2zM-3" style="edgeStyle=orthogonalEdgeStyle;rounded=0;orthogonalLoop=1;jettySize=auto;html=1;entryX=0;entryY=0.5;entryDx=0;entryDy=0;" edge="1" parent="1" source="edmpL2D2ozhNpO6BALTp-21" target="K-PSPklfkQnK7yrbVC1b-33">
          <mxGeometry relative="1" as="geometry">
            <mxPoint x="1115" y="129" as="targetPoint" />
            <Array as="points">
              <mxPoint x="1275" y="710" />
              <mxPoint x="839" y="710" />
              <mxPoint x="839" y="120" />
            </Array>
          </mxGeometry>
        </mxCell>
        <mxCell id="edmpL2D2ozhNpO6BALTp-21" value="Открывается окно с таблицей пользователей" style="whiteSpace=wrap;html=1;" vertex="1" parent="1">
          <mxGeometry x="1215" y="299" width="120" height="60" as="geometry" />
        </mxCell>
        <mxCell id="edmpL2D2ozhNpO6BALTp-22" value="" style="edgeStyle=orthogonalEdgeStyle;rounded=0;orthogonalLoop=1;jettySize=auto;html=1;" edge="1" parent="1" source="edmpL2D2ozhNpO6BALTp-19" target="edmpL2D2ozhNpO6BALTp-21">
          <mxGeometry relative="1" as="geometry" />
        </mxCell>
        <mxCell id="edmpL2D2ozhNpO6BALTp-23" value="Нажатие на кнопку &quot;Профиль&quot;" style="whiteSpace=wrap;html=1;" vertex="1" parent="1">
          <mxGeometry x="1375" y="139" width="120" height="60" as="geometry" />
        </mxCell>
        <mxCell id="edmpL2D2ozhNpO6BALTp-24" value="" style="edgeStyle=orthogonalEdgeStyle;rounded=0;orthogonalLoop=1;jettySize=auto;html=1;exitX=0.5;exitY=1;exitDx=0;exitDy=0;" edge="1" parent="1" source="K-PSPklfkQnK7yrbVC1b-33" target="edmpL2D2ozhNpO6BALTp-23">
          <mxGeometry relative="1" as="geometry">
            <Array as="points">
              <mxPoint x="1115" y="169" />
            </Array>
            <mxPoint x="1190" y="140" as="sourcePoint" />
          </mxGeometry>
        </mxCell>
        <mxCell id="K-PSPklfkQnK7yrbVC1b-23" style="edgeStyle=orthogonalEdgeStyle;shape=connector;rounded=0;orthogonalLoop=1;jettySize=auto;html=1;entryX=0.5;entryY=0;entryDx=0;entryDy=0;labelBackgroundColor=default;strokeColor=default;align=center;verticalAlign=middle;fontFamily=Helvetica;fontSize=11;fontColor=default;endArrow=classic;" edge="1" parent="1" source="edmpL2D2ozhNpO6BALTp-25" target="K-PSPklfkQnK7yrbVC1b-20">
          <mxGeometry relative="1" as="geometry" />
        </mxCell>
        <mxCell id="edmpL2D2ozhNpO6BALTp-25" value="Открывается окно с полями для ввода и текстом о роли и ФИО пользователя" style="whiteSpace=wrap;html=1;" vertex="1" parent="1">
          <mxGeometry x="1364" y="233.5" width="142" height="71" as="geometry" />
        </mxCell>
        <mxCell id="edmpL2D2ozhNpO6BALTp-26" value="" style="edgeStyle=orthogonalEdgeStyle;rounded=0;orthogonalLoop=1;jettySize=auto;html=1;" edge="1" parent="1" source="edmpL2D2ozhNpO6BALTp-23" target="edmpL2D2ozhNpO6BALTp-25">
          <mxGeometry relative="1" as="geometry" />
        </mxCell>
        <mxCell id="edmpL2D2ozhNpO6BALTp-27" value="Нажатие на кнопку &quot;Изменить пароль&quot;" style="whiteSpace=wrap;html=1;" vertex="1" parent="1">
          <mxGeometry x="1375" y="417" width="120" height="60" as="geometry" />
        </mxCell>
        <mxCell id="edmpL2D2ozhNpO6BALTp-29" value="Все поля заполнены?" style="rhombus;whiteSpace=wrap;html=1;" vertex="1" parent="1">
          <mxGeometry x="1375" y="517" width="120" height="80" as="geometry" />
        </mxCell>
        <mxCell id="edmpL2D2ozhNpO6BALTp-30" value="" style="edgeStyle=orthogonalEdgeStyle;rounded=0;orthogonalLoop=1;jettySize=auto;html=1;" edge="1" parent="1" source="edmpL2D2ozhNpO6BALTp-27" target="edmpL2D2ozhNpO6BALTp-29">
          <mxGeometry relative="1" as="geometry" />
        </mxCell>
        <mxCell id="K-PSPklfkQnK7yrbVC1b-29" style="edgeStyle=orthogonalEdgeStyle;shape=connector;rounded=0;orthogonalLoop=1;jettySize=auto;html=1;labelBackgroundColor=default;strokeColor=default;align=center;verticalAlign=middle;fontFamily=Helvetica;fontSize=11;fontColor=default;endArrow=classic;" edge="1" parent="1" source="edmpL2D2ozhNpO6BALTp-32" target="K-PSPklfkQnK7yrbVC1b-20">
          <mxGeometry relative="1" as="geometry" />
        </mxCell>
        <mxCell id="edmpL2D2ozhNpO6BALTp-32" value="Подсветить поля, которые не заполнены" style="whiteSpace=wrap;html=1;" vertex="1" parent="1">
          <mxGeometry x="1528" y="330" width="120" height="60" as="geometry" />
        </mxCell>
        <mxCell id="edmpL2D2ozhNpO6BALTp-33" value="Нет" style="edgeStyle=orthogonalEdgeStyle;rounded=0;orthogonalLoop=1;jettySize=auto;html=1;" edge="1" parent="1" source="edmpL2D2ozhNpO6BALTp-29" target="edmpL2D2ozhNpO6BALTp-32">
          <mxGeometry relative="1" as="geometry" />
        </mxCell>
        <mxCell id="cZ4xT_iFsNtZNHPC_2zM-4" style="edgeStyle=orthogonalEdgeStyle;rounded=0;orthogonalLoop=1;jettySize=auto;html=1;entryX=0;entryY=0.5;entryDx=0;entryDy=0;" edge="1" parent="1" source="edmpL2D2ozhNpO6BALTp-35" target="K-PSPklfkQnK7yrbVC1b-33">
          <mxGeometry relative="1" as="geometry">
            <mxPoint x="1115" y="129" as="targetPoint" />
            <Array as="points">
              <mxPoint x="1435" y="710" />
              <mxPoint x="838" y="710" />
              <mxPoint x="838" y="120" />
            </Array>
          </mxGeometry>
        </mxCell>
        <mxCell id="edmpL2D2ozhNpO6BALTp-35" value="Изменяем пароль у данного пользователя в БД" style="whiteSpace=wrap;html=1;" vertex="1" parent="1">
          <mxGeometry x="1355" y="637" width="160" height="60" as="geometry" />
        </mxCell>
        <mxCell id="edmpL2D2ozhNpO6BALTp-36" value="Да" style="edgeStyle=orthogonalEdgeStyle;rounded=0;orthogonalLoop=1;jettySize=auto;html=1;" edge="1" parent="1" source="edmpL2D2ozhNpO6BALTp-29" target="edmpL2D2ozhNpO6BALTp-35">
          <mxGeometry relative="1" as="geometry" />
        </mxCell>
        <mxCell id="cZ4xT_iFsNtZNHPC_2zM-2" style="edgeStyle=orthogonalEdgeStyle;rounded=0;orthogonalLoop=1;jettySize=auto;html=1;entryX=0;entryY=0.5;entryDx=0;entryDy=0;" edge="1" parent="1" source="edmpL2D2ozhNpO6BALTp-38" target="K-PSPklfkQnK7yrbVC1b-33">
          <mxGeometry relative="1" as="geometry">
            <mxPoint x="1115" y="129" as="targetPoint" />
            <Array as="points">
              <mxPoint x="1185" y="710" />
              <mxPoint x="838" y="710" />
              <mxPoint x="838" y="120" />
            </Array>
          </mxGeometry>
        </mxCell>
        <mxCell id="edmpL2D2ozhNpO6BALTp-38" value="Нажатие на кнопку &quot;Выход из системы&quot;" style="whiteSpace=wrap;html=1;" vertex="1" parent="1">
          <mxGeometry x="1125" y="439" width="120" height="60" as="geometry" />
        </mxCell>
        <mxCell id="edmpL2D2ozhNpO6BALTp-39" value="" style="edgeStyle=orthogonalEdgeStyle;rounded=0;orthogonalLoop=1;jettySize=auto;html=1;exitX=0.5;exitY=1;exitDx=0;exitDy=0;" edge="1" parent="1" source="K-PSPklfkQnK7yrbVC1b-33" target="edmpL2D2ozhNpO6BALTp-38">
          <mxGeometry relative="1" as="geometry">
            <Array as="points">
              <mxPoint x="1115" y="269" />
              <mxPoint x="1185" y="269" />
            </Array>
            <mxPoint x="1190" y="140" as="sourcePoint" />
          </mxGeometry>
        </mxCell>
        <mxCell id="K-PSPklfkQnK7yrbVC1b-2" value="&lt;font style=&quot;font-size: 12px;&quot; face=&quot;Times New Roman&quot;&gt;2&lt;/font&gt;" style="text;html=1;align=center;verticalAlign=middle;resizable=0;points=[];autosize=1;strokeColor=none;fillColor=none;fontSize=20;fontFamily=Architects Daughter;" vertex="1" parent="1">
          <mxGeometry x="988" y="164" width="30" height="40" as="geometry" />
        </mxCell>
        <mxCell id="K-PSPklfkQnK7yrbVC1b-3" value="&lt;font style=&quot;font-size: 12px;&quot; face=&quot;Times New Roman&quot;&gt;3&lt;/font&gt;" style="text;html=1;align=center;verticalAlign=middle;resizable=0;points=[];autosize=1;strokeColor=none;fillColor=none;fontSize=20;fontFamily=Architects Daughter;" vertex="1" parent="1">
          <mxGeometry x="991" y="266" width="30" height="40" as="geometry" />
        </mxCell>
        <mxCell id="K-PSPklfkQnK7yrbVC1b-4" value="&lt;font face=&quot;Times New Roman&quot;&gt;&lt;span style=&quot;font-size: 12px;&quot;&gt;6&lt;br&gt;&lt;/span&gt;&lt;/font&gt;" style="text;html=1;align=center;verticalAlign=middle;resizable=0;points=[];autosize=1;strokeColor=none;fillColor=none;fontSize=20;fontFamily=Architects Daughter;" vertex="1" parent="1">
          <mxGeometry x="987" y="451" width="30" height="40" as="geometry" />
        </mxCell>
        <mxCell id="K-PSPklfkQnK7yrbVC1b-5" value="&lt;font style=&quot;font-size: 12px;&quot; face=&quot;Times New Roman&quot;&gt;5&lt;/font&gt;" style="text;html=1;align=center;verticalAlign=middle;resizable=0;points=[];autosize=1;strokeColor=none;fillColor=none;fontSize=20;fontFamily=Architects Daughter;" vertex="1" parent="1">
          <mxGeometry x="1131" y="363" width="30" height="40" as="geometry" />
        </mxCell>
        <mxCell id="K-PSPklfkQnK7yrbVC1b-9" value="" style="group" connectable="0" vertex="1" parent="1">
          <mxGeometry x="896" y="631" width="125" height="66" as="geometry" />
        </mxCell>
        <mxCell id="edmpL2D2ozhNpO6BALTp-17" value="Добавляем пользователя в бд" style="whiteSpace=wrap;html=1;rounded=0;" vertex="1" parent="K-PSPklfkQnK7yrbVC1b-9">
          <mxGeometry width="120" height="60" as="geometry" />
        </mxCell>
        <mxCell id="K-PSPklfkQnK7yrbVC1b-6" value="&lt;font face=&quot;Times New Roman&quot;&gt;&lt;span style=&quot;font-size: 12px;&quot;&gt;7&lt;br&gt;&lt;/span&gt;&lt;/font&gt;" style="text;html=1;align=center;verticalAlign=middle;resizable=0;points=[];autosize=1;strokeColor=none;fillColor=none;fontSize=20;fontFamily=Architects Daughter;" vertex="1" parent="K-PSPklfkQnK7yrbVC1b-9">
          <mxGeometry x="95" y="26" width="30" height="40" as="geometry" />
        </mxCell>
        <mxCell id="K-PSPklfkQnK7yrbVC1b-15" style="edgeStyle=orthogonalEdgeStyle;shape=connector;rounded=0;orthogonalLoop=1;jettySize=auto;html=1;entryX=0.5;entryY=0;entryDx=0;entryDy=0;labelBackgroundColor=default;strokeColor=default;align=center;verticalAlign=middle;fontFamily=Helvetica;fontSize=11;fontColor=default;endArrow=classic;" edge="1" parent="1" source="K-PSPklfkQnK7yrbVC1b-10" target="edmpL2D2ozhNpO6BALTp-9">
          <mxGeometry relative="1" as="geometry" />
        </mxCell>
        <mxCell id="K-PSPklfkQnK7yrbVC1b-10" value="Ввод данных о пользователе" style="whiteSpace=wrap;html=1;rounded=0;gradientColor=none;" vertex="1" parent="1">
          <mxGeometry x="895" y="339" width="120" height="60" as="geometry" />
        </mxCell>
        <mxCell id="K-PSPklfkQnK7yrbVC1b-17" value="&lt;font style=&quot;font-size: 12px;&quot; face=&quot;Times New Roman&quot;&gt;4&lt;br&gt;&lt;/font&gt;" style="text;html=1;align=center;verticalAlign=middle;resizable=0;points=[];autosize=1;strokeColor=none;fillColor=none;fontSize=20;fontFamily=Architects Daughter;" vertex="1" parent="1">
          <mxGeometry x="988" y="363" width="30" height="40" as="geometry" />
        </mxCell>
        <mxCell id="K-PSPklfkQnK7yrbVC1b-18" value="&lt;font face=&quot;Times New Roman&quot;&gt;&lt;span style=&quot;font-size: 12px;&quot;&gt;8&lt;br&gt;&lt;/span&gt;&lt;/font&gt;" style="text;html=1;align=center;verticalAlign=middle;resizable=0;points=[];autosize=1;strokeColor=none;fillColor=none;fontSize=20;fontFamily=Architects Daughter;" vertex="1" parent="1">
          <mxGeometry x="1220" y="466" width="30" height="40" as="geometry" />
        </mxCell>
        <mxCell id="K-PSPklfkQnK7yrbVC1b-19" value="&lt;font face=&quot;Times New Roman&quot;&gt;&lt;span style=&quot;font-size: 12px;&quot;&gt;9&lt;br&gt;&lt;/span&gt;&lt;/font&gt;" style="text;html=1;align=center;verticalAlign=middle;resizable=0;points=[];autosize=1;strokeColor=none;fillColor=none;fontSize=20;fontFamily=Architects Daughter;" vertex="1" parent="1">
          <mxGeometry x="1310" y="222" width="30" height="40" as="geometry" />
        </mxCell>
        <mxCell id="K-PSPklfkQnK7yrbVC1b-22" value="" style="group" connectable="0" vertex="1" parent="1">
          <mxGeometry x="1375" y="330" width="128" height="64" as="geometry" />
        </mxCell>
        <mxCell id="K-PSPklfkQnK7yrbVC1b-20" value="Ввод текущего и нового паролей" style="whiteSpace=wrap;html=1;rounded=0;gradientColor=none;" vertex="1" parent="K-PSPklfkQnK7yrbVC1b-22">
          <mxGeometry width="120" height="60" as="geometry" />
        </mxCell>
        <mxCell id="K-PSPklfkQnK7yrbVC1b-21" value="&lt;font style=&quot;font-size: 12px;&quot; face=&quot;Times New Roman&quot;&gt;13&lt;br&gt;&lt;/font&gt;" style="text;html=1;align=center;verticalAlign=middle;resizable=0;points=[];autosize=1;strokeColor=none;fillColor=none;fontSize=20;fontFamily=Architects Daughter;" vertex="1" parent="K-PSPklfkQnK7yrbVC1b-22">
          <mxGeometry x="88" y="24" width="40" height="40" as="geometry" />
        </mxCell>
        <mxCell id="K-PSPklfkQnK7yrbVC1b-24" style="edgeStyle=orthogonalEdgeStyle;shape=connector;rounded=0;orthogonalLoop=1;jettySize=auto;html=1;entryX=0.5;entryY=0;entryDx=0;entryDy=0;labelBackgroundColor=default;strokeColor=default;align=center;verticalAlign=middle;fontFamily=Helvetica;fontSize=11;fontColor=default;endArrow=classic;" edge="1" parent="1" source="K-PSPklfkQnK7yrbVC1b-20" target="edmpL2D2ozhNpO6BALTp-27">
          <mxGeometry relative="1" as="geometry" />
        </mxCell>
        <mxCell id="K-PSPklfkQnK7yrbVC1b-25" value="&lt;font face=&quot;Times New Roman&quot;&gt;&lt;span style=&quot;font-size: 12px;&quot;&gt;10&lt;br&gt;&lt;/span&gt;&lt;/font&gt;" style="text;html=1;align=center;verticalAlign=middle;resizable=0;points=[];autosize=1;strokeColor=none;fillColor=none;fontSize=20;fontFamily=Architects Daughter;" vertex="1" parent="1">
          <mxGeometry x="1306" y="323" width="40" height="40" as="geometry" />
        </mxCell>
        <mxCell id="K-PSPklfkQnK7yrbVC1b-26" value="&lt;font face=&quot;Times New Roman&quot;&gt;&lt;span style=&quot;font-size: 12px;&quot;&gt;11&lt;br&gt;&lt;/span&gt;&lt;/font&gt;" style="text;html=1;align=center;verticalAlign=middle;resizable=0;points=[];autosize=1;strokeColor=none;fillColor=none;fontSize=20;fontFamily=Architects Daughter;" vertex="1" parent="1">
          <mxGeometry x="1461" y="161" width="40" height="40" as="geometry" />
        </mxCell>
        <mxCell id="K-PSPklfkQnK7yrbVC1b-27" value="&lt;font face=&quot;Times New Roman&quot;&gt;&lt;span style=&quot;font-size: 12px;&quot;&gt;12&lt;br&gt;&lt;/span&gt;&lt;/font&gt;" style="text;html=1;align=center;verticalAlign=middle;resizable=0;points=[];autosize=1;strokeColor=none;fillColor=none;fontSize=20;fontFamily=Architects Daughter;" vertex="1" parent="1">
          <mxGeometry x="1470" y="269" width="40" height="40" as="geometry" />
        </mxCell>
        <mxCell id="K-PSPklfkQnK7yrbVC1b-30" value="&lt;font style=&quot;font-size: 12px;&quot; face=&quot;Times New Roman&quot;&gt;14&lt;br&gt;&lt;/font&gt;" style="text;html=1;align=center;verticalAlign=middle;resizable=0;points=[];autosize=1;strokeColor=none;fillColor=none;fontSize=20;fontFamily=Architects Daughter;" vertex="1" parent="1">
          <mxGeometry x="1463" y="442" width="40" height="40" as="geometry" />
        </mxCell>
        <mxCell id="K-PSPklfkQnK7yrbVC1b-31" value="&lt;font style=&quot;font-size: 12px;&quot; face=&quot;Times New Roman&quot;&gt;15&lt;br&gt;&lt;/font&gt;" style="text;html=1;align=center;verticalAlign=middle;resizable=0;points=[];autosize=1;strokeColor=none;fillColor=none;fontSize=20;fontFamily=Architects Daughter;" vertex="1" parent="1">
          <mxGeometry x="1612" y="353" width="40" height="40" as="geometry" />
        </mxCell>
        <mxCell id="K-PSPklfkQnK7yrbVC1b-32" value="&lt;font style=&quot;font-size: 12px;&quot; face=&quot;Times New Roman&quot;&gt;16&lt;br&gt;&lt;/font&gt;" style="text;html=1;align=center;verticalAlign=middle;resizable=0;points=[];autosize=1;strokeColor=none;fillColor=none;fontSize=20;fontFamily=Architects Daughter;" vertex="1" parent="1">
          <mxGeometry x="1482" y="662" width="40" height="40" as="geometry" />
        </mxCell>
        <mxCell id="K-PSPklfkQnK7yrbVC1b-33" value="Открытие окна" style="rounded=0;whiteSpace=wrap;html=1;hachureGap=4;fontFamily=Helvetica;fontSource=https%3A%2F%2Ffonts.googleapis.com%2Fcss%3Ffamily%3DArchitects%2BDaughter;fontSize=11;fontColor=default;" vertex="1" parent="1">
          <mxGeometry x="1055" y="90" width="120" height="60" as="geometry" />
        </mxCell>
        <mxCell id="K-PSPklfkQnK7yrbVC1b-35" value="&lt;font style=&quot;font-size: 12px;&quot; face=&quot;Times New Roman&quot;&gt;1&lt;/font&gt;" style="text;html=1;align=center;verticalAlign=middle;resizable=0;points=[];autosize=1;strokeColor=none;fillColor=none;fontSize=20;fontFamily=Architects Daughter;" vertex="1" parent="1">
          <mxGeometry x="1146" y="113" width="30" height="40" as="geometry" />
        </mxCell>
      </root>
    </mxGraphModel>
  </diagram>
  <diagram id="YHO_dnj6YwFyDF4Uh2-2" name="Кладовщик">
    <mxGraphModel grid="1" page="1" gridSize="10" guides="1" tooltips="1" connect="1" arrows="1" fold="1" pageScale="1" pageWidth="827" pageHeight="1169" math="0" shadow="0">
      <root>
        <mxCell id="0" />
        <mxCell id="1" parent="0" />
        <mxCell id="BjoPe_qgzE1E7HBCTg-7-1" style="edgeStyle=orthogonalEdgeStyle;shape=connector;rounded=0;orthogonalLoop=1;jettySize=auto;html=1;entryX=0.5;entryY=0;entryDx=0;entryDy=0;labelBackgroundColor=default;strokeColor=default;align=center;verticalAlign=middle;fontFamily=Helvetica;fontSize=11;fontColor=default;endArrow=classic;" edge="1" parent="1" source="BjoPe_qgzE1E7HBCTg-7-2" target="BjoPe_qgzE1E7HBCTg-7-60">
          <mxGeometry relative="1" as="geometry" />
        </mxCell>
        <mxCell id="BjoPe_qgzE1E7HBCTg-7-2" value="Начало" style="ellipse;whiteSpace=wrap;html=1;" vertex="1" parent="1">
          <mxGeometry x="1055" width="120" height="60" as="geometry" />
        </mxCell>
        <mxCell id="BjoPe_qgzE1E7HBCTg-7-20" value="" style="edgeStyle=orthogonalEdgeStyle;rounded=0;orthogonalLoop=1;jettySize=auto;html=1;" edge="1" parent="1">
          <mxGeometry relative="1" as="geometry">
            <mxPoint x="1275" y="299" as="targetPoint" />
          </mxGeometry>
        </mxCell>
        <mxCell id="BjoPe_qgzE1E7HBCTg-7-161" style="edgeStyle=orthogonalEdgeStyle;shape=connector;rounded=0;orthogonalLoop=1;jettySize=auto;html=1;exitX=0.5;exitY=1;exitDx=0;exitDy=0;entryX=0.5;entryY=0;entryDx=0;entryDy=0;labelBackgroundColor=default;strokeColor=default;align=center;verticalAlign=middle;fontFamily=Helvetica;fontSize=11;fontColor=default;endArrow=classic;" edge="1" parent="1" source="BjoPe_qgzE1E7HBCTg-7-21" target="BjoPe_qgzE1E7HBCTg-7-24">
          <mxGeometry relative="1" as="geometry" />
        </mxCell>
        <mxCell id="BjoPe_qgzE1E7HBCTg-7-21" value="Нажатие на кнопку &quot;Профиль&quot;" style="whiteSpace=wrap;html=1;" vertex="1" parent="1">
          <mxGeometry x="1656" y="180" width="120" height="60" as="geometry" />
        </mxCell>
        <mxCell id="BjoPe_qgzE1E7HBCTg-7-22" value="" style="edgeStyle=orthogonalEdgeStyle;rounded=0;orthogonalLoop=1;jettySize=auto;html=1;exitX=0.5;exitY=1;exitDx=0;exitDy=0;" edge="1" parent="1" source="BjoPe_qgzE1E7HBCTg-7-60" target="BjoPe_qgzE1E7HBCTg-7-21">
          <mxGeometry relative="1" as="geometry">
            <Array as="points">
              <mxPoint x="1115" y="169" />
            </Array>
            <mxPoint x="1190" y="140" as="sourcePoint" />
          </mxGeometry>
        </mxCell>
        <mxCell id="BjoPe_qgzE1E7HBCTg-7-160" style="edgeStyle=orthogonalEdgeStyle;shape=connector;rounded=0;orthogonalLoop=1;jettySize=auto;html=1;exitX=0.5;exitY=1;exitDx=0;exitDy=0;entryX=0.5;entryY=0;entryDx=0;entryDy=0;labelBackgroundColor=default;strokeColor=default;align=center;verticalAlign=middle;fontFamily=Helvetica;fontSize=11;fontColor=default;endArrow=classic;" edge="1" parent="1" source="BjoPe_qgzE1E7HBCTg-7-24" target="BjoPe_qgzE1E7HBCTg-7-51">
          <mxGeometry relative="1" as="geometry" />
        </mxCell>
        <mxCell id="BjoPe_qgzE1E7HBCTg-7-24" value="Открывается окно с полями для ввода и текстом о роли и ФИО пользователя" style="whiteSpace=wrap;html=1;" vertex="1" parent="1">
          <mxGeometry x="1648" y="265.5" width="142" height="71" as="geometry" />
        </mxCell>
        <mxCell id="BjoPe_qgzE1E7HBCTg-7-26" value="Нажатие на кнопку &quot;Изменить пароль&quot;" style="whiteSpace=wrap;html=1;" vertex="1" parent="1">
          <mxGeometry x="1661" y="442.5" width="120" height="60" as="geometry" />
        </mxCell>
        <mxCell id="BjoPe_qgzE1E7HBCTg-7-27" value="Все поля заполнены?" style="rhombus;whiteSpace=wrap;html=1;" vertex="1" parent="1">
          <mxGeometry x="1661" y="528" width="120" height="80" as="geometry" />
        </mxCell>
        <mxCell id="BjoPe_qgzE1E7HBCTg-7-28" value="" style="edgeStyle=orthogonalEdgeStyle;rounded=0;orthogonalLoop=1;jettySize=auto;html=1;" edge="1" parent="1" source="BjoPe_qgzE1E7HBCTg-7-26" target="BjoPe_qgzE1E7HBCTg-7-27">
          <mxGeometry relative="1" as="geometry" />
        </mxCell>
        <mxCell id="BjoPe_qgzE1E7HBCTg-7-29" style="edgeStyle=orthogonalEdgeStyle;shape=connector;rounded=0;orthogonalLoop=1;jettySize=auto;html=1;labelBackgroundColor=default;strokeColor=default;align=center;verticalAlign=middle;fontFamily=Helvetica;fontSize=11;fontColor=default;endArrow=classic;" edge="1" parent="1" source="BjoPe_qgzE1E7HBCTg-7-30" target="BjoPe_qgzE1E7HBCTg-7-51">
          <mxGeometry relative="1" as="geometry" />
        </mxCell>
        <mxCell id="BjoPe_qgzE1E7HBCTg-7-30" value="Подсветить поля, которые не заполнены" style="whiteSpace=wrap;html=1;" vertex="1" parent="1">
          <mxGeometry x="1814" y="360" width="120" height="60" as="geometry" />
        </mxCell>
        <mxCell id="BjoPe_qgzE1E7HBCTg-7-31" value="Нет" style="edgeStyle=orthogonalEdgeStyle;rounded=0;orthogonalLoop=1;jettySize=auto;html=1;" edge="1" parent="1" source="BjoPe_qgzE1E7HBCTg-7-27" target="BjoPe_qgzE1E7HBCTg-7-30">
          <mxGeometry relative="1" as="geometry" />
        </mxCell>
        <mxCell id="BjoPe_qgzE1E7HBCTg-7-32" style="edgeStyle=orthogonalEdgeStyle;rounded=0;orthogonalLoop=1;jettySize=auto;html=1;entryX=0;entryY=0.5;entryDx=0;entryDy=0;" edge="1" parent="1" source="BjoPe_qgzE1E7HBCTg-7-33" target="BjoPe_qgzE1E7HBCTg-7-60">
          <mxGeometry relative="1" as="geometry">
            <mxPoint x="1115" y="129" as="targetPoint" />
            <Array as="points">
              <mxPoint x="1721" y="1110" />
              <mxPoint x="838" y="1110" />
              <mxPoint x="838" y="120" />
            </Array>
          </mxGeometry>
        </mxCell>
        <mxCell id="BjoPe_qgzE1E7HBCTg-7-33" value="Изменяем пароль у данного пользователя в БД" style="whiteSpace=wrap;html=1;" vertex="1" parent="1">
          <mxGeometry x="1708" y="663" width="160" height="60" as="geometry" />
        </mxCell>
        <mxCell id="BjoPe_qgzE1E7HBCTg-7-34" value="Да" style="edgeStyle=orthogonalEdgeStyle;rounded=0;orthogonalLoop=1;jettySize=auto;html=1;" edge="1" parent="1" source="BjoPe_qgzE1E7HBCTg-7-27" target="BjoPe_qgzE1E7HBCTg-7-33">
          <mxGeometry relative="1" as="geometry" />
        </mxCell>
        <mxCell id="BjoPe_qgzE1E7HBCTg-7-35" style="edgeStyle=orthogonalEdgeStyle;rounded=0;orthogonalLoop=1;jettySize=auto;html=1;entryX=0;entryY=0.5;entryDx=0;entryDy=0;" edge="1" parent="1" source="BjoPe_qgzE1E7HBCTg-7-36" target="BjoPe_qgzE1E7HBCTg-7-60">
          <mxGeometry relative="1" as="geometry">
            <mxPoint x="1115" y="129" as="targetPoint" />
            <Array as="points">
              <mxPoint x="720" y="120" />
            </Array>
          </mxGeometry>
        </mxCell>
        <mxCell id="BjoPe_qgzE1E7HBCTg-7-36" value="Нажатие на кнопку &quot;Выход из системы&quot;" style="whiteSpace=wrap;html=1;" vertex="1" parent="1">
          <mxGeometry x="707" y="190" width="120" height="60" as="geometry" />
        </mxCell>
        <mxCell id="BjoPe_qgzE1E7HBCTg-7-37" value="" style="edgeStyle=orthogonalEdgeStyle;rounded=0;orthogonalLoop=1;jettySize=auto;html=1;" edge="1" parent="1" source="BjoPe_qgzE1E7HBCTg-7-60" target="BjoPe_qgzE1E7HBCTg-7-36">
          <mxGeometry relative="1" as="geometry">
            <Array as="points">
              <mxPoint x="1115" y="170" />
              <mxPoint x="750" y="170" />
            </Array>
            <mxPoint x="1190" y="140" as="sourcePoint" />
          </mxGeometry>
        </mxCell>
        <mxCell id="BjoPe_qgzE1E7HBCTg-7-53" style="edgeStyle=orthogonalEdgeStyle;shape=connector;rounded=0;orthogonalLoop=1;jettySize=auto;html=1;entryX=0.5;entryY=0;entryDx=0;entryDy=0;labelBackgroundColor=default;strokeColor=default;align=center;verticalAlign=middle;fontFamily=Helvetica;fontSize=11;fontColor=default;endArrow=classic;" edge="1" parent="1" source="BjoPe_qgzE1E7HBCTg-7-51" target="BjoPe_qgzE1E7HBCTg-7-26">
          <mxGeometry relative="1" as="geometry" />
        </mxCell>
        <mxCell id="BjoPe_qgzE1E7HBCTg-7-55" value="&lt;font face=&quot;Times New Roman&quot;&gt;&lt;span style=&quot;font-size: 12px;&quot;&gt;35&lt;br&gt;&lt;/span&gt;&lt;/font&gt;" style="text;html=1;align=center;verticalAlign=middle;resizable=0;points=[];autosize=1;strokeColor=none;fillColor=none;fontSize=20;fontFamily=Architects Daughter;" vertex="1" parent="1">
          <mxGeometry x="1742" y="202" width="40" height="40" as="geometry" />
        </mxCell>
        <mxCell id="BjoPe_qgzE1E7HBCTg-7-56" value="&lt;font face=&quot;Times New Roman&quot;&gt;&lt;span style=&quot;font-size: 12px;&quot;&gt;36&lt;br&gt;&lt;/span&gt;&lt;/font&gt;" style="text;html=1;align=center;verticalAlign=middle;resizable=0;points=[];autosize=1;strokeColor=none;fillColor=none;fontSize=20;fontFamily=Architects Daughter;" vertex="1" parent="1">
          <mxGeometry x="1754" y="301" width="40" height="40" as="geometry" />
        </mxCell>
        <mxCell id="BjoPe_qgzE1E7HBCTg-7-57" value="&lt;font style=&quot;font-size: 12px;&quot; face=&quot;Times New Roman&quot;&gt;38&lt;br&gt;&lt;/font&gt;" style="text;html=1;align=center;verticalAlign=middle;resizable=0;points=[];autosize=1;strokeColor=none;fillColor=none;fontSize=20;fontFamily=Architects Daughter;" vertex="1" parent="1">
          <mxGeometry x="1749" y="467.5" width="40" height="40" as="geometry" />
        </mxCell>
        <mxCell id="BjoPe_qgzE1E7HBCTg-7-58" value="&lt;font style=&quot;font-size: 12px;&quot; face=&quot;Times New Roman&quot;&gt;39&lt;br&gt;&lt;/font&gt;" style="text;html=1;align=center;verticalAlign=middle;resizable=0;points=[];autosize=1;strokeColor=none;fillColor=none;fontSize=20;fontFamily=Architects Daughter;" vertex="1" parent="1">
          <mxGeometry x="1898" y="383" width="40" height="40" as="geometry" />
        </mxCell>
        <mxCell id="BjoPe_qgzE1E7HBCTg-7-59" value="&lt;font style=&quot;font-size: 12px;&quot; face=&quot;Times New Roman&quot;&gt;40&lt;br&gt;&lt;/font&gt;" style="text;html=1;align=center;verticalAlign=middle;resizable=0;points=[];autosize=1;strokeColor=none;fillColor=none;fontSize=20;fontFamily=Architects Daughter;" vertex="1" parent="1">
          <mxGeometry x="1834" y="688" width="40" height="40" as="geometry" />
        </mxCell>
        <mxCell id="BjoPe_qgzE1E7HBCTg-7-65" style="edgeStyle=orthogonalEdgeStyle;shape=connector;rounded=0;orthogonalLoop=1;jettySize=auto;html=1;exitX=0.5;exitY=1;exitDx=0;exitDy=0;entryX=0.5;entryY=0;entryDx=0;entryDy=0;labelBackgroundColor=default;strokeColor=default;align=center;verticalAlign=middle;fontFamily=Helvetica;fontSize=11;fontColor=default;endArrow=classic;" edge="1" parent="1" source="BjoPe_qgzE1E7HBCTg-7-60" target="BjoPe_qgzE1E7HBCTg-7-62">
          <mxGeometry relative="1" as="geometry" />
        </mxCell>
        <mxCell id="BjoPe_qgzE1E7HBCTg-7-66" style="edgeStyle=orthogonalEdgeStyle;shape=connector;rounded=0;orthogonalLoop=1;jettySize=auto;html=1;exitX=0.5;exitY=1;exitDx=0;exitDy=0;entryX=0.5;entryY=0;entryDx=0;entryDy=0;labelBackgroundColor=default;strokeColor=default;align=center;verticalAlign=middle;fontFamily=Helvetica;fontSize=11;fontColor=default;endArrow=classic;" edge="1" parent="1" source="BjoPe_qgzE1E7HBCTg-7-60" target="BjoPe_qgzE1E7HBCTg-7-63">
          <mxGeometry relative="1" as="geometry" />
        </mxCell>
        <mxCell id="BjoPe_qgzE1E7HBCTg-7-67" style="edgeStyle=orthogonalEdgeStyle;shape=connector;rounded=0;orthogonalLoop=1;jettySize=auto;html=1;exitX=0.5;exitY=1;exitDx=0;exitDy=0;entryX=0.5;entryY=0;entryDx=0;entryDy=0;labelBackgroundColor=default;strokeColor=default;align=center;verticalAlign=middle;fontFamily=Helvetica;fontSize=11;fontColor=default;endArrow=classic;" edge="1" parent="1" source="BjoPe_qgzE1E7HBCTg-7-60" target="BjoPe_qgzE1E7HBCTg-7-64">
          <mxGeometry relative="1" as="geometry" />
        </mxCell>
        <mxCell id="BjoPe_qgzE1E7HBCTg-7-60" value="Открытие окна" style="rounded=0;whiteSpace=wrap;html=1;hachureGap=4;fontFamily=Helvetica;fontSource=https%3A%2F%2Ffonts.googleapis.com%2Fcss%3Ffamily%3DArchitects%2BDaughter;fontSize=11;fontColor=default;" vertex="1" parent="1">
          <mxGeometry x="1055" y="90" width="120" height="60" as="geometry" />
        </mxCell>
        <mxCell id="BjoPe_qgzE1E7HBCTg-7-61" value="&lt;font style=&quot;font-size: 12px;&quot; face=&quot;Times New Roman&quot;&gt;1&lt;/font&gt;" style="text;html=1;align=center;verticalAlign=middle;resizable=0;points=[];autosize=1;strokeColor=none;fillColor=none;fontSize=20;fontFamily=Architects Daughter;" vertex="1" parent="1">
          <mxGeometry x="1146" y="113" width="30" height="40" as="geometry" />
        </mxCell>
        <mxCell id="BjoPe_qgzE1E7HBCTg-7-69" value="" style="edgeStyle=orthogonalEdgeStyle;shape=connector;rounded=0;orthogonalLoop=1;jettySize=auto;html=1;labelBackgroundColor=default;strokeColor=default;align=center;verticalAlign=middle;fontFamily=Helvetica;fontSize=11;fontColor=default;endArrow=classic;entryX=0.5;entryY=0;entryDx=0;entryDy=0;" edge="1" parent="1" source="BjoPe_qgzE1E7HBCTg-7-62" target="BjoPe_qgzE1E7HBCTg-7-70">
          <mxGeometry relative="1" as="geometry">
            <mxPoint x="920" y="330" as="targetPoint" />
          </mxGeometry>
        </mxCell>
        <mxCell id="BjoPe_qgzE1E7HBCTg-7-62" value="Нажатие на кнопку &quot;Заказы&quot;" style="whiteSpace=wrap;html=1;" vertex="1" parent="1">
          <mxGeometry x="860" y="190" width="120" height="60" as="geometry" />
        </mxCell>
        <mxCell id="BjoPe_qgzE1E7HBCTg-7-132" style="edgeStyle=orthogonalEdgeStyle;shape=connector;rounded=0;orthogonalLoop=1;jettySize=auto;html=1;exitX=1;exitY=0.5;exitDx=0;exitDy=0;entryX=0;entryY=0.5;entryDx=0;entryDy=0;labelBackgroundColor=default;strokeColor=default;align=center;verticalAlign=middle;fontFamily=Helvetica;fontSize=11;fontColor=default;endArrow=classic;" edge="1" parent="1" source="BjoPe_qgzE1E7HBCTg-7-63" target="BjoPe_qgzE1E7HBCTg-7-131">
          <mxGeometry relative="1" as="geometry" />
        </mxCell>
        <mxCell id="BjoPe_qgzE1E7HBCTg-7-63" value="Нажатие на кнопку &quot;Поставки&quot;" style="whiteSpace=wrap;html=1;" vertex="1" parent="1">
          <mxGeometry x="1055" y="190" width="120" height="60" as="geometry" />
        </mxCell>
        <mxCell id="BjoPe_qgzE1E7HBCTg-7-188" style="edgeStyle=orthogonalEdgeStyle;shape=connector;rounded=0;orthogonalLoop=1;jettySize=auto;html=1;exitX=0.5;exitY=1;exitDx=0;exitDy=0;entryX=0.5;entryY=0;entryDx=0;entryDy=0;labelBackgroundColor=default;strokeColor=default;align=center;verticalAlign=middle;fontFamily=Helvetica;fontSize=11;fontColor=default;endArrow=classic;" edge="1" parent="1" source="BjoPe_qgzE1E7HBCTg-7-64" target="BjoPe_qgzE1E7HBCTg-7-182">
          <mxGeometry relative="1" as="geometry" />
        </mxCell>
        <mxCell id="BjoPe_qgzE1E7HBCTg-7-64" value="Нажатие на кнопку &quot;Отчёты&quot;" style="whiteSpace=wrap;html=1;" vertex="1" parent="1">
          <mxGeometry x="1990" y="190" width="120" height="60" as="geometry" />
        </mxCell>
        <mxCell id="BjoPe_qgzE1E7HBCTg-7-98" style="edgeStyle=orthogonalEdgeStyle;shape=connector;rounded=0;orthogonalLoop=1;jettySize=auto;html=1;exitX=0.5;exitY=1;exitDx=0;exitDy=0;entryX=0.5;entryY=0;entryDx=0;entryDy=0;labelBackgroundColor=default;strokeColor=default;align=center;verticalAlign=middle;fontFamily=Helvetica;fontSize=11;fontColor=default;endArrow=classic;" edge="1" parent="1" source="BjoPe_qgzE1E7HBCTg-7-70" target="BjoPe_qgzE1E7HBCTg-7-71">
          <mxGeometry relative="1" as="geometry" />
        </mxCell>
        <mxCell id="BjoPe_qgzE1E7HBCTg-7-70" value="Отображение таблицы товаров с возможностью поиска" style="whiteSpace=wrap;html=1;" vertex="1" parent="1">
          <mxGeometry x="860" y="280" width="120" height="60" as="geometry" />
        </mxCell>
        <mxCell id="BjoPe_qgzE1E7HBCTg-7-99" style="edgeStyle=orthogonalEdgeStyle;shape=connector;rounded=0;orthogonalLoop=1;jettySize=auto;html=1;exitX=0.5;exitY=1;exitDx=0;exitDy=0;entryX=0.5;entryY=0;entryDx=0;entryDy=0;labelBackgroundColor=default;strokeColor=default;align=center;verticalAlign=middle;fontFamily=Helvetica;fontSize=11;fontColor=default;endArrow=classic;" edge="1" parent="1" source="BjoPe_qgzE1E7HBCTg-7-71" target="BjoPe_qgzE1E7HBCTg-7-72">
          <mxGeometry relative="1" as="geometry" />
        </mxCell>
        <mxCell id="BjoPe_qgzE1E7HBCTg-7-71" value="Двойное нажатие на товар" style="whiteSpace=wrap;html=1;" vertex="1" parent="1">
          <mxGeometry x="860" y="368" width="120" height="60" as="geometry" />
        </mxCell>
        <mxCell id="BjoPe_qgzE1E7HBCTg-7-101" style="edgeStyle=orthogonalEdgeStyle;shape=connector;rounded=0;orthogonalLoop=1;jettySize=auto;html=1;exitX=1;exitY=0.5;exitDx=0;exitDy=0;entryX=0.5;entryY=0;entryDx=0;entryDy=0;labelBackgroundColor=default;strokeColor=default;align=center;verticalAlign=middle;fontFamily=Helvetica;fontSize=11;fontColor=default;endArrow=classic;" edge="1" parent="1" source="BjoPe_qgzE1E7HBCTg-7-72" target="BjoPe_qgzE1E7HBCTg-7-81">
          <mxGeometry relative="1" as="geometry" />
        </mxCell>
        <mxCell id="BjoPe_qgzE1E7HBCTg-7-72" value="Открытие окна для указания количества и цены" style="whiteSpace=wrap;html=1;" vertex="1" parent="1">
          <mxGeometry x="860" y="468" width="120" height="60" as="geometry" />
        </mxCell>
        <mxCell id="BjoPe_qgzE1E7HBCTg-7-74" value="Нажатие на кнопку &quot;Применить&quot;" style="whiteSpace=wrap;html=1;" vertex="1" parent="1">
          <mxGeometry x="1000" y="644" width="120" height="60" as="geometry" />
        </mxCell>
        <mxCell id="BjoPe_qgzE1E7HBCTg-7-105" value="Да" style="edgeStyle=orthogonalEdgeStyle;shape=connector;rounded=0;orthogonalLoop=1;jettySize=auto;html=1;exitX=0;exitY=0.5;exitDx=0;exitDy=0;entryX=1;entryY=0.5;entryDx=0;entryDy=0;labelBackgroundColor=default;strokeColor=default;align=center;verticalAlign=middle;fontFamily=Helvetica;fontSize=11;fontColor=default;endArrow=classic;" edge="1" parent="1" source="BjoPe_qgzE1E7HBCTg-7-75" target="BjoPe_qgzE1E7HBCTg-7-104">
          <mxGeometry relative="1" as="geometry">
            <Array as="points">
              <mxPoint x="990" y="784" />
              <mxPoint x="990" y="674" />
            </Array>
          </mxGeometry>
        </mxCell>
        <mxCell id="BjoPe_qgzE1E7HBCTg-7-75" value="Все поля заполнены?" style="rhombus;whiteSpace=wrap;html=1;" vertex="1" parent="1">
          <mxGeometry x="1000" y="744" width="120" height="80" as="geometry" />
        </mxCell>
        <mxCell id="BjoPe_qgzE1E7HBCTg-7-76" value="" style="edgeStyle=orthogonalEdgeStyle;rounded=0;orthogonalLoop=1;jettySize=auto;html=1;" edge="1" parent="1" source="BjoPe_qgzE1E7HBCTg-7-74" target="BjoPe_qgzE1E7HBCTg-7-75">
          <mxGeometry relative="1" as="geometry" />
        </mxCell>
        <mxCell id="BjoPe_qgzE1E7HBCTg-7-77" style="edgeStyle=orthogonalEdgeStyle;shape=connector;rounded=0;orthogonalLoop=1;jettySize=auto;html=1;labelBackgroundColor=default;strokeColor=default;align=center;verticalAlign=middle;fontFamily=Helvetica;fontSize=11;fontColor=default;endArrow=classic;" edge="1" parent="1" source="BjoPe_qgzE1E7HBCTg-7-78" target="BjoPe_qgzE1E7HBCTg-7-81">
          <mxGeometry relative="1" as="geometry">
            <Array as="points">
              <mxPoint x="1060" y="500" />
              <mxPoint x="1060" y="500" />
            </Array>
          </mxGeometry>
        </mxCell>
        <mxCell id="BjoPe_qgzE1E7HBCTg-7-78" value="Подсветить поля, которые не заполнены" style="whiteSpace=wrap;html=1;" vertex="1" parent="1">
          <mxGeometry x="1000" y="368" width="120" height="60" as="geometry" />
        </mxCell>
        <mxCell id="BjoPe_qgzE1E7HBCTg-7-79" value="Нет" style="edgeStyle=orthogonalEdgeStyle;rounded=0;orthogonalLoop=1;jettySize=auto;html=1;" edge="1" parent="1" source="BjoPe_qgzE1E7HBCTg-7-75" target="BjoPe_qgzE1E7HBCTg-7-78">
          <mxGeometry relative="1" as="geometry">
            <Array as="points">
              <mxPoint x="1140" y="784" />
            </Array>
          </mxGeometry>
        </mxCell>
        <mxCell id="BjoPe_qgzE1E7HBCTg-7-80" value="" style="group" connectable="0" vertex="1" parent="1">
          <mxGeometry x="1000" y="557" width="128" height="64" as="geometry" />
        </mxCell>
        <mxCell id="BjoPe_qgzE1E7HBCTg-7-81" value="Ввод количества и цены" style="whiteSpace=wrap;html=1;rounded=0;gradientColor=none;" vertex="1" parent="BjoPe_qgzE1E7HBCTg-7-80">
          <mxGeometry width="120" height="60" as="geometry" />
        </mxCell>
        <mxCell id="BjoPe_qgzE1E7HBCTg-7-83" style="edgeStyle=orthogonalEdgeStyle;shape=connector;rounded=0;orthogonalLoop=1;jettySize=auto;html=1;entryX=0.5;entryY=0;entryDx=0;entryDy=0;labelBackgroundColor=default;strokeColor=default;align=center;verticalAlign=middle;fontFamily=Helvetica;fontSize=11;fontColor=default;endArrow=classic;" edge="1" parent="1" source="BjoPe_qgzE1E7HBCTg-7-81" target="BjoPe_qgzE1E7HBCTg-7-74">
          <mxGeometry relative="1" as="geometry" />
        </mxCell>
        <mxCell id="BjoPe_qgzE1E7HBCTg-7-103" value="" style="edgeStyle=orthogonalEdgeStyle;shape=connector;rounded=0;orthogonalLoop=1;jettySize=auto;html=1;exitX=0;exitY=0.5;exitDx=0;exitDy=0;entryX=0;entryY=0.5;entryDx=0;entryDy=0;labelBackgroundColor=default;strokeColor=default;align=center;verticalAlign=middle;fontFamily=Helvetica;fontSize=11;fontColor=default;endArrow=classic;" edge="1" parent="1" source="BjoPe_qgzE1E7HBCTg-7-97" target="BjoPe_qgzE1E7HBCTg-7-62">
          <mxGeometry relative="1" as="geometry">
            <Array as="points">
              <mxPoint x="847" y="587" />
              <mxPoint x="847" y="220" />
            </Array>
          </mxGeometry>
        </mxCell>
        <mxCell id="BjoPe_qgzE1E7HBCTg-7-97" value="Нажатие на кнопку &quot;Отмена&quot;" style="whiteSpace=wrap;html=1;" vertex="1" parent="1">
          <mxGeometry x="860" y="557" width="120" height="60" as="geometry" />
        </mxCell>
        <mxCell id="BjoPe_qgzE1E7HBCTg-7-102" style="edgeStyle=orthogonalEdgeStyle;shape=connector;rounded=0;orthogonalLoop=1;jettySize=auto;html=1;exitX=0;exitY=0.5;exitDx=0;exitDy=0;entryX=1;entryY=0.5;entryDx=0;entryDy=0;labelBackgroundColor=default;strokeColor=default;align=center;verticalAlign=middle;fontFamily=Helvetica;fontSize=11;fontColor=default;endArrow=classic;" edge="1" parent="1" source="BjoPe_qgzE1E7HBCTg-7-81" target="BjoPe_qgzE1E7HBCTg-7-97">
          <mxGeometry relative="1" as="geometry" />
        </mxCell>
        <mxCell id="BjoPe_qgzE1E7HBCTg-7-107" style="edgeStyle=orthogonalEdgeStyle;shape=connector;rounded=0;orthogonalLoop=1;jettySize=auto;html=1;exitX=0;exitY=0.5;exitDx=0;exitDy=0;entryX=0;entryY=0.5;entryDx=0;entryDy=0;labelBackgroundColor=default;strokeColor=default;align=center;verticalAlign=middle;fontFamily=Helvetica;fontSize=11;fontColor=default;endArrow=classic;" edge="1" parent="1" source="BjoPe_qgzE1E7HBCTg-7-104" target="BjoPe_qgzE1E7HBCTg-7-70">
          <mxGeometry relative="1" as="geometry">
            <Array as="points">
              <mxPoint x="844" y="674" />
              <mxPoint x="844" y="310" />
            </Array>
          </mxGeometry>
        </mxCell>
        <mxCell id="BjoPe_qgzE1E7HBCTg-7-108" style="edgeStyle=orthogonalEdgeStyle;shape=connector;rounded=0;orthogonalLoop=1;jettySize=auto;html=1;entryX=0.5;entryY=0;entryDx=0;entryDy=0;labelBackgroundColor=default;strokeColor=default;align=center;verticalAlign=middle;fontFamily=Helvetica;fontSize=11;fontColor=default;endArrow=classic;" edge="1" parent="1" source="BjoPe_qgzE1E7HBCTg-7-104" target="BjoPe_qgzE1E7HBCTg-7-106">
          <mxGeometry relative="1" as="geometry" />
        </mxCell>
        <mxCell id="BjoPe_qgzE1E7HBCTg-7-104" value="Добавление товара в таблицу для заказа" style="whiteSpace=wrap;html=1;" vertex="1" parent="1">
          <mxGeometry x="860" y="644" width="120" height="60" as="geometry" />
        </mxCell>
        <mxCell id="BjoPe_qgzE1E7HBCTg-7-111" style="edgeStyle=orthogonalEdgeStyle;shape=connector;rounded=0;orthogonalLoop=1;jettySize=auto;html=1;exitX=0.5;exitY=1;exitDx=0;exitDy=0;entryX=0.5;entryY=0;entryDx=0;entryDy=0;labelBackgroundColor=default;strokeColor=default;align=center;verticalAlign=middle;fontFamily=Helvetica;fontSize=11;fontColor=default;endArrow=classic;" edge="1" parent="1" source="BjoPe_qgzE1E7HBCTg-7-106" target="BjoPe_qgzE1E7HBCTg-7-110">
          <mxGeometry relative="1" as="geometry" />
        </mxCell>
        <mxCell id="BjoPe_qgzE1E7HBCTg-7-106" value="Нажатие на кнопку &quot;Заказать&quot;" style="whiteSpace=wrap;html=1;" vertex="1" parent="1">
          <mxGeometry x="860" y="730" width="120" height="60" as="geometry" />
        </mxCell>
        <mxCell id="BjoPe_qgzE1E7HBCTg-7-112" style="edgeStyle=orthogonalEdgeStyle;shape=connector;rounded=0;orthogonalLoop=1;jettySize=auto;html=1;exitX=0;exitY=0.5;exitDx=0;exitDy=0;entryX=0;entryY=0.5;entryDx=0;entryDy=0;labelBackgroundColor=default;strokeColor=default;align=center;verticalAlign=middle;fontFamily=Helvetica;fontSize=11;fontColor=default;endArrow=classic;" edge="1" parent="1" source="BjoPe_qgzE1E7HBCTg-7-110" target="BjoPe_qgzE1E7HBCTg-7-60">
          <mxGeometry relative="1" as="geometry" />
        </mxCell>
        <mxCell id="BjoPe_qgzE1E7HBCTg-7-110" value="Добавление в бд заказ выбранных товаров" style="whiteSpace=wrap;html=1;" vertex="1" parent="1">
          <mxGeometry x="860" y="820" width="120" height="60" as="geometry" />
        </mxCell>
        <mxCell id="BjoPe_qgzE1E7HBCTg-7-136" style="edgeStyle=orthogonalEdgeStyle;shape=connector;rounded=0;orthogonalLoop=1;jettySize=auto;html=1;exitX=0.5;exitY=1;exitDx=0;exitDy=0;entryX=0.5;entryY=0;entryDx=0;entryDy=0;labelBackgroundColor=default;strokeColor=default;align=center;verticalAlign=middle;fontFamily=Helvetica;fontSize=11;fontColor=default;endArrow=classic;" edge="1" parent="1" source="BjoPe_qgzE1E7HBCTg-7-113" target="BjoPe_qgzE1E7HBCTg-7-135">
          <mxGeometry relative="1" as="geometry" />
        </mxCell>
        <mxCell id="BjoPe_qgzE1E7HBCTg-7-113" value="Нажатие на вкладку &quot;Поступление ТМЦ&quot;" style="whiteSpace=wrap;html=1;" vertex="1" parent="1">
          <mxGeometry x="1450" y="278" width="120" height="60" as="geometry" />
        </mxCell>
        <mxCell id="BjoPe_qgzE1E7HBCTg-7-124" style="edgeStyle=orthogonalEdgeStyle;shape=connector;rounded=0;orthogonalLoop=1;jettySize=auto;html=1;exitX=0.5;exitY=1;exitDx=0;exitDy=0;entryX=0.5;entryY=0;entryDx=0;entryDy=0;labelBackgroundColor=default;strokeColor=default;align=center;verticalAlign=middle;fontFamily=Helvetica;fontSize=11;fontColor=default;endArrow=classic;" edge="1" parent="1" source="BjoPe_qgzE1E7HBCTg-7-114" target="BjoPe_qgzE1E7HBCTg-7-115">
          <mxGeometry relative="1" as="geometry" />
        </mxCell>
        <mxCell id="BjoPe_qgzE1E7HBCTg-7-114" value="Нажатие на вкладку &quot;Отпуск товара&quot;" style="whiteSpace=wrap;html=1;" vertex="1" parent="1">
          <mxGeometry x="1200" y="281" width="120" height="60" as="geometry" />
        </mxCell>
        <mxCell id="BjoPe_qgzE1E7HBCTg-7-125" style="edgeStyle=orthogonalEdgeStyle;shape=connector;rounded=0;orthogonalLoop=1;jettySize=auto;html=1;exitX=0.5;exitY=1;exitDx=0;exitDy=0;entryX=0.5;entryY=0;entryDx=0;entryDy=0;labelBackgroundColor=default;strokeColor=default;align=center;verticalAlign=middle;fontFamily=Helvetica;fontSize=11;fontColor=default;endArrow=classic;" edge="1" parent="1" source="BjoPe_qgzE1E7HBCTg-7-115" target="BjoPe_qgzE1E7HBCTg-7-116">
          <mxGeometry relative="1" as="geometry" />
        </mxCell>
        <mxCell id="BjoPe_qgzE1E7HBCTg-7-115" value="Двойное нажатие на товар" style="whiteSpace=wrap;html=1;" vertex="1" parent="1">
          <mxGeometry x="1200" y="364" width="120" height="60" as="geometry" />
        </mxCell>
        <mxCell id="BjoPe_qgzE1E7HBCTg-7-126" style="edgeStyle=orthogonalEdgeStyle;shape=connector;rounded=0;orthogonalLoop=1;jettySize=auto;html=1;exitX=0.5;exitY=1;exitDx=0;exitDy=0;entryX=0.5;entryY=0;entryDx=0;entryDy=0;labelBackgroundColor=default;strokeColor=default;align=center;verticalAlign=middle;fontFamily=Helvetica;fontSize=11;fontColor=default;endArrow=classic;" edge="1" parent="1" source="BjoPe_qgzE1E7HBCTg-7-116" target="BjoPe_qgzE1E7HBCTg-7-117">
          <mxGeometry relative="1" as="geometry">
            <Array as="points">
              <mxPoint x="1260" y="520" />
              <mxPoint x="1221" y="520" />
            </Array>
          </mxGeometry>
        </mxCell>
        <mxCell id="BjoPe_qgzE1E7HBCTg-7-141" style="edgeStyle=orthogonalEdgeStyle;shape=connector;rounded=0;orthogonalLoop=1;jettySize=auto;html=1;exitX=0.5;exitY=1;exitDx=0;exitDy=0;entryX=0.5;entryY=0;entryDx=0;entryDy=0;labelBackgroundColor=default;strokeColor=default;align=center;verticalAlign=middle;fontFamily=Helvetica;fontSize=11;fontColor=default;endArrow=classic;" edge="1" parent="1" source="BjoPe_qgzE1E7HBCTg-7-116" target="BjoPe_qgzE1E7HBCTg-7-118">
          <mxGeometry relative="1" as="geometry">
            <Array as="points">
              <mxPoint x="1260" y="520" />
              <mxPoint x="1361" y="520" />
            </Array>
          </mxGeometry>
        </mxCell>
        <mxCell id="BjoPe_qgzE1E7HBCTg-7-116" value="Перемещение товара в таблицу на отпуск" style="whiteSpace=wrap;html=1;" vertex="1" parent="1">
          <mxGeometry x="1200" y="445" width="120" height="60" as="geometry" />
        </mxCell>
        <mxCell id="BjoPe_qgzE1E7HBCTg-7-128" style="edgeStyle=orthogonalEdgeStyle;shape=connector;rounded=0;orthogonalLoop=1;jettySize=auto;html=1;exitX=0.5;exitY=1;exitDx=0;exitDy=0;entryX=0.5;entryY=0;entryDx=0;entryDy=0;labelBackgroundColor=default;strokeColor=default;align=center;verticalAlign=middle;fontFamily=Helvetica;fontSize=11;fontColor=default;endArrow=classic;" edge="1" parent="1" source="BjoPe_qgzE1E7HBCTg-7-117" target="BjoPe_qgzE1E7HBCTg-7-120">
          <mxGeometry relative="1" as="geometry" />
        </mxCell>
        <mxCell id="BjoPe_qgzE1E7HBCTg-7-117" value="Нажатие на кнопку &quot;Отклонить&quot;" style="whiteSpace=wrap;html=1;" vertex="1" parent="1">
          <mxGeometry x="1161" y="538" width="120" height="60" as="geometry" />
        </mxCell>
        <mxCell id="BjoPe_qgzE1E7HBCTg-7-129" style="edgeStyle=orthogonalEdgeStyle;shape=connector;rounded=0;orthogonalLoop=1;jettySize=auto;html=1;exitX=0.5;exitY=1;exitDx=0;exitDy=0;entryX=0.5;entryY=0;entryDx=0;entryDy=0;labelBackgroundColor=default;strokeColor=default;align=center;verticalAlign=middle;fontFamily=Helvetica;fontSize=11;fontColor=default;endArrow=classic;" edge="1" parent="1" source="BjoPe_qgzE1E7HBCTg-7-118" target="BjoPe_qgzE1E7HBCTg-7-119">
          <mxGeometry relative="1" as="geometry" />
        </mxCell>
        <mxCell id="BjoPe_qgzE1E7HBCTg-7-118" value="Нажатие на кнопку &quot;Отпустить&quot;" style="whiteSpace=wrap;html=1;" vertex="1" parent="1">
          <mxGeometry x="1301" y="538" width="120" height="60" as="geometry" />
        </mxCell>
        <mxCell id="BjoPe_qgzE1E7HBCTg-7-130" style="edgeStyle=orthogonalEdgeStyle;shape=connector;rounded=0;orthogonalLoop=1;jettySize=auto;html=1;exitX=0.5;exitY=1;exitDx=0;exitDy=0;entryX=0.5;entryY=0;entryDx=0;entryDy=0;labelBackgroundColor=default;strokeColor=default;align=center;verticalAlign=middle;fontFamily=Helvetica;fontSize=11;fontColor=default;endArrow=classic;" edge="1" parent="1" source="BjoPe_qgzE1E7HBCTg-7-119" target="BjoPe_qgzE1E7HBCTg-7-121">
          <mxGeometry relative="1" as="geometry" />
        </mxCell>
        <mxCell id="BjoPe_qgzE1E7HBCTg-7-119" value="Добавление в бд отпуск выбранных товаров" style="whiteSpace=wrap;html=1;" vertex="1" parent="1">
          <mxGeometry x="1301" y="644" width="120" height="60" as="geometry" />
        </mxCell>
        <mxCell id="BjoPe_qgzE1E7HBCTg-7-179" style="edgeStyle=orthogonalEdgeStyle;shape=connector;rounded=0;orthogonalLoop=1;jettySize=auto;html=1;exitX=0.5;exitY=1;exitDx=0;exitDy=0;entryX=0;entryY=0.5;entryDx=0;entryDy=0;labelBackgroundColor=default;strokeColor=default;align=center;verticalAlign=middle;fontFamily=Helvetica;fontSize=11;fontColor=default;endArrow=classic;" edge="1" parent="1" source="BjoPe_qgzE1E7HBCTg-7-120" target="BjoPe_qgzE1E7HBCTg-7-60">
          <mxGeometry relative="1" as="geometry">
            <Array as="points">
              <mxPoint x="1221" y="1110" />
              <mxPoint x="840" y="1110" />
              <mxPoint x="840" y="120" />
            </Array>
          </mxGeometry>
        </mxCell>
        <mxCell id="BjoPe_qgzE1E7HBCTg-7-120" value="Удаление из бд заказ на выбранные товары" style="whiteSpace=wrap;html=1;" vertex="1" parent="1">
          <mxGeometry x="1161" y="644" width="120" height="60" as="geometry" />
        </mxCell>
        <mxCell id="BjoPe_qgzE1E7HBCTg-7-178" style="edgeStyle=orthogonalEdgeStyle;shape=connector;rounded=0;orthogonalLoop=1;jettySize=auto;html=1;exitX=0;exitY=0.5;exitDx=0;exitDy=0;entryX=0;entryY=0.5;entryDx=0;entryDy=0;labelBackgroundColor=default;strokeColor=default;align=center;verticalAlign=middle;fontFamily=Helvetica;fontSize=11;fontColor=default;endArrow=classic;" edge="1" parent="1" source="BjoPe_qgzE1E7HBCTg-7-121" target="BjoPe_qgzE1E7HBCTg-7-60">
          <mxGeometry relative="1" as="geometry">
            <Array as="points">
              <mxPoint x="1220" y="760" />
              <mxPoint x="1220" y="1110" />
              <mxPoint x="840" y="1110" />
              <mxPoint x="840" y="120" />
            </Array>
          </mxGeometry>
        </mxCell>
        <mxCell id="BjoPe_qgzE1E7HBCTg-7-121" value="Сохранение документа об отпуске товаров" style="whiteSpace=wrap;html=1;" vertex="1" parent="1">
          <mxGeometry x="1301" y="730" width="120" height="60" as="geometry" />
        </mxCell>
        <mxCell id="BjoPe_qgzE1E7HBCTg-7-133" style="edgeStyle=orthogonalEdgeStyle;shape=connector;rounded=0;orthogonalLoop=1;jettySize=auto;html=1;exitX=0.5;exitY=1;exitDx=0;exitDy=0;entryX=0.5;entryY=0;entryDx=0;entryDy=0;labelBackgroundColor=default;strokeColor=default;align=center;verticalAlign=middle;fontFamily=Helvetica;fontSize=11;fontColor=default;endArrow=classic;" edge="1" parent="1" source="BjoPe_qgzE1E7HBCTg-7-131" target="BjoPe_qgzE1E7HBCTg-7-114">
          <mxGeometry relative="1" as="geometry" />
        </mxCell>
        <mxCell id="BjoPe_qgzE1E7HBCTg-7-134" style="edgeStyle=orthogonalEdgeStyle;shape=connector;rounded=0;orthogonalLoop=1;jettySize=auto;html=1;exitX=0.5;exitY=1;exitDx=0;exitDy=0;entryX=0.5;entryY=0;entryDx=0;entryDy=0;labelBackgroundColor=default;strokeColor=default;align=center;verticalAlign=middle;fontFamily=Helvetica;fontSize=11;fontColor=default;endArrow=classic;" edge="1" parent="1" source="BjoPe_qgzE1E7HBCTg-7-131" target="BjoPe_qgzE1E7HBCTg-7-113">
          <mxGeometry relative="1" as="geometry">
            <Array as="points">
              <mxPoint x="1260" y="260" />
              <mxPoint x="1510" y="260" />
            </Array>
          </mxGeometry>
        </mxCell>
        <mxCell id="BjoPe_qgzE1E7HBCTg-7-131" value="Отображение таблицы товаров с возможностью поиска" style="whiteSpace=wrap;html=1;" vertex="1" parent="1">
          <mxGeometry x="1200" y="190" width="120" height="60" as="geometry" />
        </mxCell>
        <mxCell id="BjoPe_qgzE1E7HBCTg-7-138" style="edgeStyle=orthogonalEdgeStyle;shape=connector;rounded=0;orthogonalLoop=1;jettySize=auto;html=1;exitX=0.5;exitY=1;exitDx=0;exitDy=0;entryX=0.5;entryY=0;entryDx=0;entryDy=0;labelBackgroundColor=default;strokeColor=default;align=center;verticalAlign=middle;fontFamily=Helvetica;fontSize=11;fontColor=default;endArrow=classic;" edge="1" parent="1" source="BjoPe_qgzE1E7HBCTg-7-135" target="BjoPe_qgzE1E7HBCTg-7-137">
          <mxGeometry relative="1" as="geometry" />
        </mxCell>
        <mxCell id="BjoPe_qgzE1E7HBCTg-7-135" value="Двойное нажатие на товар" style="whiteSpace=wrap;html=1;" vertex="1" parent="1">
          <mxGeometry x="1450" y="362" width="120" height="60" as="geometry" />
        </mxCell>
        <mxCell id="BjoPe_qgzE1E7HBCTg-7-152" style="edgeStyle=orthogonalEdgeStyle;shape=connector;rounded=0;orthogonalLoop=1;jettySize=auto;html=1;exitX=0.5;exitY=1;exitDx=0;exitDy=0;labelBackgroundColor=default;strokeColor=default;align=center;verticalAlign=middle;fontFamily=Helvetica;fontSize=11;fontColor=default;endArrow=classic;" edge="1" parent="1" source="BjoPe_qgzE1E7HBCTg-7-137" target="BjoPe_qgzE1E7HBCTg-7-146">
          <mxGeometry relative="1" as="geometry" />
        </mxCell>
        <mxCell id="BjoPe_qgzE1E7HBCTg-7-137" value="Открытие окна для указания вида и размера упаковки и ячейки склада&lt;br&gt;" style="whiteSpace=wrap;html=1;" vertex="1" parent="1">
          <mxGeometry x="1450" y="441" width="120" height="87" as="geometry" />
        </mxCell>
        <mxCell id="BjoPe_qgzE1E7HBCTg-7-175" style="edgeStyle=orthogonalEdgeStyle;shape=connector;rounded=0;orthogonalLoop=1;jettySize=auto;html=1;exitX=0.5;exitY=1;exitDx=0;exitDy=0;entryX=0.5;entryY=0;entryDx=0;entryDy=0;labelBackgroundColor=default;strokeColor=default;align=center;verticalAlign=middle;fontFamily=Helvetica;fontSize=11;fontColor=default;endArrow=classic;" edge="1" parent="1" source="BjoPe_qgzE1E7HBCTg-7-143" target="BjoPe_qgzE1E7HBCTg-7-174">
          <mxGeometry relative="1" as="geometry" />
        </mxCell>
        <mxCell id="BjoPe_qgzE1E7HBCTg-7-143" value="Нажатие на кнопку &quot;Принять&quot;" style="whiteSpace=wrap;html=1;" vertex="1" parent="1">
          <mxGeometry x="1410" y="960" width="120" height="60" as="geometry" />
        </mxCell>
        <mxCell id="BjoPe_qgzE1E7HBCTg-7-145" value="" style="group" connectable="0" vertex="1" parent="1">
          <mxGeometry x="1446" y="544" width="128" height="64" as="geometry" />
        </mxCell>
        <mxCell id="BjoPe_qgzE1E7HBCTg-7-146" value="Ввод данных" style="whiteSpace=wrap;html=1;rounded=0;gradientColor=none;" vertex="1" parent="BjoPe_qgzE1E7HBCTg-7-145">
          <mxGeometry width="120" height="60" as="geometry" />
        </mxCell>
        <mxCell id="BjoPe_qgzE1E7HBCTg-7-156" style="edgeStyle=orthogonalEdgeStyle;shape=connector;rounded=0;orthogonalLoop=1;jettySize=auto;html=1;exitX=0.5;exitY=1;exitDx=0;exitDy=0;entryX=0.5;entryY=0;entryDx=0;entryDy=0;labelBackgroundColor=default;strokeColor=default;align=center;verticalAlign=middle;fontFamily=Helvetica;fontSize=11;fontColor=default;endArrow=classic;" edge="1" parent="1" source="BjoPe_qgzE1E7HBCTg-7-147" target="BjoPe_qgzE1E7HBCTg-7-148">
          <mxGeometry relative="1" as="geometry" />
        </mxCell>
        <mxCell id="BjoPe_qgzE1E7HBCTg-7-147" value="Нажатие на кнопку &quot;Применить&quot;" style="whiteSpace=wrap;html=1;" vertex="1" parent="1">
          <mxGeometry x="1440" y="663" width="120" height="60" as="geometry" />
        </mxCell>
        <mxCell id="BjoPe_qgzE1E7HBCTg-7-158" value="Да" style="edgeStyle=orthogonalEdgeStyle;shape=connector;rounded=0;orthogonalLoop=1;jettySize=auto;html=1;exitX=0.5;exitY=1;exitDx=0;exitDy=0;entryX=0.5;entryY=0;entryDx=0;entryDy=0;labelBackgroundColor=default;strokeColor=default;align=center;verticalAlign=middle;fontFamily=Helvetica;fontSize=11;fontColor=default;endArrow=classic;" edge="1" parent="1" source="BjoPe_qgzE1E7HBCTg-7-148" target="BjoPe_qgzE1E7HBCTg-7-157">
          <mxGeometry relative="1" as="geometry" />
        </mxCell>
        <mxCell id="BjoPe_qgzE1E7HBCTg-7-164" value="Нет" style="edgeStyle=orthogonalEdgeStyle;shape=connector;rounded=0;orthogonalLoop=1;jettySize=auto;html=1;exitX=0;exitY=0.5;exitDx=0;exitDy=0;entryX=1;entryY=0.5;entryDx=0;entryDy=0;labelBackgroundColor=default;strokeColor=default;align=center;verticalAlign=middle;fontFamily=Helvetica;fontSize=11;fontColor=default;endArrow=classic;" edge="1" parent="1" source="BjoPe_qgzE1E7HBCTg-7-148" target="BjoPe_qgzE1E7HBCTg-7-163">
          <mxGeometry relative="1" as="geometry" />
        </mxCell>
        <mxCell id="BjoPe_qgzE1E7HBCTg-7-148" value="Все поля заполнены?" style="rhombus;whiteSpace=wrap;html=1;" vertex="1" parent="1">
          <mxGeometry x="1579" y="840" width="120" height="80" as="geometry" />
        </mxCell>
        <mxCell id="BjoPe_qgzE1E7HBCTg-7-170" style="edgeStyle=orthogonalEdgeStyle;shape=connector;rounded=0;orthogonalLoop=1;jettySize=auto;html=1;exitX=0.5;exitY=0;exitDx=0;exitDy=0;entryX=1;entryY=0.5;entryDx=0;entryDy=0;labelBackgroundColor=default;strokeColor=default;align=center;verticalAlign=middle;fontFamily=Helvetica;fontSize=11;fontColor=default;endArrow=classic;" edge="1" parent="1" source="BjoPe_qgzE1E7HBCTg-7-151" target="BjoPe_qgzE1E7HBCTg-7-113">
          <mxGeometry relative="1" as="geometry" />
        </mxCell>
        <mxCell id="BjoPe_qgzE1E7HBCTg-7-151" value="Нажатие на кнопку &quot;Отмена&quot;" style="whiteSpace=wrap;html=1;" vertex="1" parent="1">
          <mxGeometry x="1570" y="663" width="120" height="60" as="geometry" />
        </mxCell>
        <mxCell id="BjoPe_qgzE1E7HBCTg-7-171" style="edgeStyle=orthogonalEdgeStyle;shape=connector;rounded=0;orthogonalLoop=1;jettySize=auto;html=1;exitX=0;exitY=0.5;exitDx=0;exitDy=0;entryX=1;entryY=0.5;entryDx=0;entryDy=0;labelBackgroundColor=default;strokeColor=default;align=center;verticalAlign=middle;fontFamily=Helvetica;fontSize=11;fontColor=default;endArrow=classic;" edge="1" parent="1" source="BjoPe_qgzE1E7HBCTg-7-157" target="BjoPe_qgzE1E7HBCTg-7-143">
          <mxGeometry relative="1" as="geometry" />
        </mxCell>
        <mxCell id="BjoPe_qgzE1E7HBCTg-7-157" value="Добавить в таблицу на поступление" style="whiteSpace=wrap;html=1;" vertex="1" parent="1">
          <mxGeometry x="1579" y="960" width="120" height="60" as="geometry" />
        </mxCell>
        <mxCell id="BjoPe_qgzE1E7HBCTg-7-52" value="&lt;font style=&quot;font-size: 12px;&quot; face=&quot;Times New Roman&quot;&gt;13&lt;br&gt;&lt;/font&gt;" style="text;html=1;align=center;verticalAlign=middle;resizable=0;points=[];autosize=1;strokeColor=none;fillColor=none;fontSize=20;fontFamily=Architects Daughter;" vertex="1" parent="1">
          <mxGeometry x="1749" y="384" width="40" height="40" as="geometry" />
        </mxCell>
        <mxCell id="BjoPe_qgzE1E7HBCTg-7-51" value="Ввод текущего и нового паролей" style="whiteSpace=wrap;html=1;rounded=0;gradientColor=none;" vertex="1" parent="1">
          <mxGeometry x="1661" y="360" width="120" height="60" as="geometry" />
        </mxCell>
        <mxCell id="BjoPe_qgzE1E7HBCTg-7-165" style="edgeStyle=orthogonalEdgeStyle;shape=connector;rounded=0;orthogonalLoop=1;jettySize=auto;html=1;exitX=0.5;exitY=0;exitDx=0;exitDy=0;entryX=0;entryY=0.5;entryDx=0;entryDy=0;labelBackgroundColor=default;strokeColor=default;align=center;verticalAlign=middle;fontFamily=Helvetica;fontSize=11;fontColor=default;endArrow=classic;" edge="1" parent="1" source="BjoPe_qgzE1E7HBCTg-7-163" target="BjoPe_qgzE1E7HBCTg-7-146">
          <mxGeometry relative="1" as="geometry">
            <Array as="points">
              <mxPoint x="1430" y="574" />
            </Array>
          </mxGeometry>
        </mxCell>
        <mxCell id="BjoPe_qgzE1E7HBCTg-7-163" value="Подсветить поля, которые не заполнены" style="whiteSpace=wrap;html=1;" vertex="1" parent="1">
          <mxGeometry x="1370" y="850" width="120" height="60" as="geometry" />
        </mxCell>
        <mxCell id="BjoPe_qgzE1E7HBCTg-7-168" style="edgeStyle=orthogonalEdgeStyle;shape=connector;rounded=0;orthogonalLoop=1;jettySize=auto;html=1;exitX=0.5;exitY=1;exitDx=0;exitDy=0;entryX=0.5;entryY=0;entryDx=0;entryDy=0;labelBackgroundColor=default;strokeColor=default;align=center;verticalAlign=middle;fontFamily=Helvetica;fontSize=11;fontColor=default;endArrow=classic;" edge="1" parent="1" source="BjoPe_qgzE1E7HBCTg-7-146" target="BjoPe_qgzE1E7HBCTg-7-147">
          <mxGeometry relative="1" as="geometry">
            <Array as="points">
              <mxPoint x="1506" y="630" />
              <mxPoint x="1500" y="630" />
            </Array>
          </mxGeometry>
        </mxCell>
        <mxCell id="BjoPe_qgzE1E7HBCTg-7-169" style="edgeStyle=orthogonalEdgeStyle;shape=connector;rounded=0;orthogonalLoop=1;jettySize=auto;html=1;exitX=0.5;exitY=1;exitDx=0;exitDy=0;entryX=0.25;entryY=0;entryDx=0;entryDy=0;labelBackgroundColor=default;strokeColor=default;align=center;verticalAlign=middle;fontFamily=Helvetica;fontSize=11;fontColor=default;endArrow=classic;" edge="1" parent="1" source="BjoPe_qgzE1E7HBCTg-7-146" target="BjoPe_qgzE1E7HBCTg-7-151">
          <mxGeometry relative="1" as="geometry">
            <Array as="points">
              <mxPoint x="1506" y="630" />
              <mxPoint x="1600" y="630" />
            </Array>
          </mxGeometry>
        </mxCell>
        <mxCell id="BjoPe_qgzE1E7HBCTg-7-177" style="edgeStyle=orthogonalEdgeStyle;shape=connector;rounded=0;orthogonalLoop=1;jettySize=auto;html=1;exitX=0.5;exitY=1;exitDx=0;exitDy=0;entryX=0;entryY=0.5;entryDx=0;entryDy=0;labelBackgroundColor=default;strokeColor=default;align=center;verticalAlign=middle;fontFamily=Helvetica;fontSize=11;fontColor=default;endArrow=classic;" edge="1" parent="1" source="BjoPe_qgzE1E7HBCTg-7-172" target="BjoPe_qgzE1E7HBCTg-7-60">
          <mxGeometry relative="1" as="geometry">
            <Array as="points">
              <mxPoint x="1320" y="1110" />
              <mxPoint x="840" y="1110" />
              <mxPoint x="840" y="120" />
            </Array>
          </mxGeometry>
        </mxCell>
        <mxCell id="BjoPe_qgzE1E7HBCTg-7-172" value="Сохранение документов о приходе товаров" style="whiteSpace=wrap;html=1;" vertex="1" parent="1">
          <mxGeometry x="1250" y="1030" width="120" height="70" as="geometry" />
        </mxCell>
        <mxCell id="BjoPe_qgzE1E7HBCTg-7-176" style="edgeStyle=orthogonalEdgeStyle;shape=connector;rounded=0;orthogonalLoop=1;jettySize=auto;html=1;exitX=0;exitY=0.5;exitDx=0;exitDy=0;entryX=1;entryY=0.5;entryDx=0;entryDy=0;labelBackgroundColor=default;strokeColor=default;align=center;verticalAlign=middle;fontFamily=Helvetica;fontSize=11;fontColor=default;endArrow=classic;" edge="1" parent="1" source="BjoPe_qgzE1E7HBCTg-7-174" target="BjoPe_qgzE1E7HBCTg-7-172">
          <mxGeometry relative="1" as="geometry" />
        </mxCell>
        <mxCell id="BjoPe_qgzE1E7HBCTg-7-174" value="Добавление в бд приход выбранных товаров" style="whiteSpace=wrap;html=1;" vertex="1" parent="1">
          <mxGeometry x="1410" y="1040" width="120" height="60" as="geometry" />
        </mxCell>
        <mxCell id="BjoPe_qgzE1E7HBCTg-7-189" style="edgeStyle=orthogonalEdgeStyle;shape=connector;rounded=0;orthogonalLoop=1;jettySize=auto;html=1;exitX=0.5;exitY=1;exitDx=0;exitDy=0;entryX=0.5;entryY=0;entryDx=0;entryDy=0;labelBackgroundColor=default;strokeColor=default;align=center;verticalAlign=middle;fontFamily=Helvetica;fontSize=11;fontColor=default;endArrow=classic;" edge="1" parent="1" source="BjoPe_qgzE1E7HBCTg-7-182" target="BjoPe_qgzE1E7HBCTg-7-183">
          <mxGeometry relative="1" as="geometry" />
        </mxCell>
        <mxCell id="BjoPe_qgzE1E7HBCTg-7-182" value="Выбор данных для диаграммы" style="whiteSpace=wrap;html=1;" vertex="1" parent="1">
          <mxGeometry x="1990" y="281" width="120" height="60" as="geometry" />
        </mxCell>
        <mxCell id="BjoPe_qgzE1E7HBCTg-7-190" style="edgeStyle=orthogonalEdgeStyle;shape=connector;rounded=0;orthogonalLoop=1;jettySize=auto;html=1;exitX=0.5;exitY=1;exitDx=0;exitDy=0;entryX=0.5;entryY=0;entryDx=0;entryDy=0;labelBackgroundColor=default;strokeColor=default;align=center;verticalAlign=middle;fontFamily=Helvetica;fontSize=11;fontColor=default;endArrow=classic;" edge="1" parent="1" source="BjoPe_qgzE1E7HBCTg-7-183" target="BjoPe_qgzE1E7HBCTg-7-184">
          <mxGeometry relative="1" as="geometry" />
        </mxCell>
        <mxCell id="BjoPe_qgzE1E7HBCTg-7-183" value="Выбор начала и конца периода" style="whiteSpace=wrap;html=1;" vertex="1" parent="1">
          <mxGeometry x="1990" y="360" width="120" height="60" as="geometry" />
        </mxCell>
        <mxCell id="BjoPe_qgzE1E7HBCTg-7-191" style="edgeStyle=orthogonalEdgeStyle;shape=connector;rounded=0;orthogonalLoop=1;jettySize=auto;html=1;exitX=0.5;exitY=1;exitDx=0;exitDy=0;entryX=0.5;entryY=0;entryDx=0;entryDy=0;labelBackgroundColor=default;strokeColor=default;align=center;verticalAlign=middle;fontFamily=Helvetica;fontSize=11;fontColor=default;endArrow=classic;" edge="1" parent="1" source="BjoPe_qgzE1E7HBCTg-7-184" target="BjoPe_qgzE1E7HBCTg-7-186">
          <mxGeometry relative="1" as="geometry" />
        </mxCell>
        <mxCell id="BjoPe_qgzE1E7HBCTg-7-184" value="Отображение выбранных данных за выбранный период в виде диаграммы" style="whiteSpace=wrap;html=1;" vertex="1" parent="1">
          <mxGeometry x="1970" y="458.5" width="160" height="79" as="geometry" />
        </mxCell>
        <mxCell id="BjoPe_qgzE1E7HBCTg-7-192" style="edgeStyle=orthogonalEdgeStyle;shape=connector;rounded=0;orthogonalLoop=1;jettySize=auto;html=1;exitX=0.5;exitY=1;exitDx=0;exitDy=0;entryX=0.5;entryY=0;entryDx=0;entryDy=0;labelBackgroundColor=default;strokeColor=default;align=center;verticalAlign=middle;fontFamily=Helvetica;fontSize=11;fontColor=default;endArrow=classic;" edge="1" parent="1" source="BjoPe_qgzE1E7HBCTg-7-186" target="BjoPe_qgzE1E7HBCTg-7-187">
          <mxGeometry relative="1" as="geometry" />
        </mxCell>
        <mxCell id="BjoPe_qgzE1E7HBCTg-7-186" value="Нажатие на кнопку &quot;Отчёт по форме МХ-20&quot;" style="whiteSpace=wrap;html=1;" vertex="1" parent="1">
          <mxGeometry x="1990" y="561" width="120" height="60" as="geometry" />
        </mxCell>
        <mxCell id="BjoPe_qgzE1E7HBCTg-7-193" style="edgeStyle=orthogonalEdgeStyle;shape=connector;rounded=0;orthogonalLoop=1;jettySize=auto;html=1;exitX=0.5;exitY=1;exitDx=0;exitDy=0;labelBackgroundColor=default;strokeColor=default;align=center;verticalAlign=middle;fontFamily=Helvetica;fontSize=11;fontColor=default;endArrow=classic;entryX=0;entryY=0.5;entryDx=0;entryDy=0;" edge="1" parent="1" source="BjoPe_qgzE1E7HBCTg-7-187" target="BjoPe_qgzE1E7HBCTg-7-60">
          <mxGeometry relative="1" as="geometry">
            <mxPoint x="596.6666666666666" y="70" as="targetPoint" />
            <Array as="points">
              <mxPoint x="2050" y="1110" />
              <mxPoint x="840" y="1110" />
              <mxPoint x="840" y="120" />
            </Array>
          </mxGeometry>
        </mxCell>
        <mxCell id="BjoPe_qgzE1E7HBCTg-7-187" value="Сохранение отчёта" style="whiteSpace=wrap;html=1;" vertex="1" parent="1">
          <mxGeometry x="1990" y="644" width="120" height="60" as="geometry" />
        </mxCell>
        <mxCell id="BjoPe_qgzE1E7HBCTg-7-194" value="&lt;font style=&quot;font-size: 12px;&quot; face=&quot;Times New Roman&quot;&gt;2&lt;/font&gt;" style="text;html=1;align=center;verticalAlign=middle;resizable=0;points=[];autosize=1;strokeColor=none;fillColor=none;fontSize=20;fontFamily=Architects Daughter;" vertex="1" parent="1">
          <mxGeometry x="802" y="217" width="30" height="40" as="geometry" />
        </mxCell>
        <mxCell id="BjoPe_qgzE1E7HBCTg-7-195" value="&lt;font style=&quot;font-size: 12px;&quot; face=&quot;Times New Roman&quot;&gt;3&lt;/font&gt;" style="text;html=1;align=center;verticalAlign=middle;resizable=0;points=[];autosize=1;strokeColor=none;fillColor=none;fontSize=20;fontFamily=Architects Daughter;" vertex="1" parent="1">
          <mxGeometry x="950" y="218" width="30" height="40" as="geometry" />
        </mxCell>
        <mxCell id="BjoPe_qgzE1E7HBCTg-7-196" value="&lt;font style=&quot;font-size: 12px;&quot; face=&quot;Times New Roman&quot;&gt;4&lt;/font&gt;" style="text;html=1;align=center;verticalAlign=middle;resizable=0;points=[];autosize=1;strokeColor=none;fillColor=none;fontSize=20;fontFamily=Architects Daughter;" vertex="1" parent="1">
          <mxGeometry x="954" y="306" width="30" height="40" as="geometry" />
        </mxCell>
        <mxCell id="BjoPe_qgzE1E7HBCTg-7-197" value="&lt;font style=&quot;font-size: 12px;&quot; face=&quot;Times New Roman&quot;&gt;5&lt;/font&gt;" style="text;html=1;align=center;verticalAlign=middle;resizable=0;points=[];autosize=1;strokeColor=none;fillColor=none;fontSize=20;fontFamily=Architects Daughter;" vertex="1" parent="1">
          <mxGeometry x="954" y="396" width="30" height="40" as="geometry" />
        </mxCell>
        <mxCell id="BjoPe_qgzE1E7HBCTg-7-198" value="&lt;font style=&quot;font-size: 12px;&quot; face=&quot;Times New Roman&quot;&gt;6&lt;/font&gt;" style="text;html=1;align=center;verticalAlign=middle;resizable=0;points=[];autosize=1;strokeColor=none;fillColor=none;fontSize=20;fontFamily=Architects Daughter;" vertex="1" parent="1">
          <mxGeometry x="953" y="493" width="30" height="40" as="geometry" />
        </mxCell>
        <mxCell id="BjoPe_qgzE1E7HBCTg-7-199" value="&lt;font style=&quot;font-size: 12px;&quot; face=&quot;Times New Roman&quot;&gt;7&lt;br&gt;&lt;/font&gt;" style="text;html=1;align=center;verticalAlign=middle;resizable=0;points=[];autosize=1;strokeColor=none;fillColor=none;fontSize=20;fontFamily=Architects Daughter;" vertex="1" parent="1">
          <mxGeometry x="1089" y="581" width="30" height="40" as="geometry" />
        </mxCell>
        <mxCell id="BjoPe_qgzE1E7HBCTg-7-200" value="&lt;font style=&quot;font-size: 12px;&quot; face=&quot;Times New Roman&quot;&gt;8&lt;br&gt;&lt;/font&gt;" style="text;html=1;align=center;verticalAlign=middle;resizable=0;points=[];autosize=1;strokeColor=none;fillColor=none;fontSize=20;fontFamily=Architects Daughter;" vertex="1" parent="1">
          <mxGeometry x="1092" y="665" width="30" height="40" as="geometry" />
        </mxCell>
        <mxCell id="BjoPe_qgzE1E7HBCTg-7-201" value="&lt;font style=&quot;font-size: 12px;&quot; face=&quot;Times New Roman&quot;&gt;9&lt;br&gt;&lt;/font&gt;" style="text;html=1;align=center;verticalAlign=middle;resizable=0;points=[];autosize=1;strokeColor=none;fillColor=none;fontSize=20;fontFamily=Architects Daughter;" vertex="1" parent="1">
          <mxGeometry x="1089" y="388" width="30" height="40" as="geometry" />
        </mxCell>
        <mxCell id="BjoPe_qgzE1E7HBCTg-7-202" value="&lt;font style=&quot;font-size: 12px;&quot; face=&quot;Times New Roman&quot;&gt;10&lt;br&gt;&lt;/font&gt;" style="text;html=1;align=center;verticalAlign=middle;resizable=0;points=[];autosize=1;strokeColor=none;fillColor=none;fontSize=20;fontFamily=Architects Daughter;" vertex="1" parent="1">
          <mxGeometry x="942" y="579" width="40" height="40" as="geometry" />
        </mxCell>
        <mxCell id="BjoPe_qgzE1E7HBCTg-7-203" value="&lt;font style=&quot;font-size: 12px;&quot; face=&quot;Times New Roman&quot;&gt;11&lt;br&gt;&lt;/font&gt;" style="text;html=1;align=center;verticalAlign=middle;resizable=0;points=[];autosize=1;strokeColor=none;fillColor=none;fontSize=20;fontFamily=Architects Daughter;" vertex="1" parent="1">
          <mxGeometry x="945" y="669" width="40" height="40" as="geometry" />
        </mxCell>
        <mxCell id="BjoPe_qgzE1E7HBCTg-7-204" value="&lt;font style=&quot;font-size: 12px;&quot; face=&quot;Times New Roman&quot;&gt;12&lt;br&gt;&lt;/font&gt;" style="text;html=1;align=center;verticalAlign=middle;resizable=0;points=[];autosize=1;strokeColor=none;fillColor=none;fontSize=20;fontFamily=Architects Daughter;" vertex="1" parent="1">
          <mxGeometry x="947" y="755" width="40" height="40" as="geometry" />
        </mxCell>
        <mxCell id="BjoPe_qgzE1E7HBCTg-7-205" value="&lt;font style=&quot;font-size: 12px;&quot; face=&quot;Times New Roman&quot;&gt;13&lt;br&gt;&lt;/font&gt;" style="text;html=1;align=center;verticalAlign=middle;resizable=0;points=[];autosize=1;strokeColor=none;fillColor=none;fontSize=20;fontFamily=Architects Daughter;" vertex="1" parent="1">
          <mxGeometry x="946" y="845" width="40" height="40" as="geometry" />
        </mxCell>
        <mxCell id="BjoPe_qgzE1E7HBCTg-7-206" value="&lt;font style=&quot;font-size: 12px;&quot; face=&quot;Times New Roman&quot;&gt;14&lt;br&gt;&lt;/font&gt;" style="text;html=1;align=center;verticalAlign=middle;resizable=0;points=[];autosize=1;strokeColor=none;fillColor=none;fontSize=20;fontFamily=Architects Daughter;" vertex="1" parent="1">
          <mxGeometry x="1136" y="213" width="40" height="40" as="geometry" />
        </mxCell>
        <mxCell id="BjoPe_qgzE1E7HBCTg-7-208" value="&lt;font style=&quot;font-size: 12px;&quot; face=&quot;Times New Roman&quot;&gt;15&lt;br&gt;&lt;/font&gt;" style="text;html=1;align=center;verticalAlign=middle;resizable=0;points=[];autosize=1;strokeColor=none;fillColor=none;fontSize=20;fontFamily=Architects Daughter;" vertex="1" parent="1">
          <mxGeometry x="1290" y="215" width="40" height="40" as="geometry" />
        </mxCell>
        <mxCell id="BjoPe_qgzE1E7HBCTg-7-209" value="&lt;font style=&quot;font-size: 12px;&quot; face=&quot;Times New Roman&quot;&gt;16&lt;br&gt;&lt;/font&gt;" style="text;html=1;align=center;verticalAlign=middle;resizable=0;points=[];autosize=1;strokeColor=none;fillColor=none;fontSize=20;fontFamily=Architects Daughter;" vertex="1" parent="1">
          <mxGeometry x="1288" y="302" width="40" height="40" as="geometry" />
        </mxCell>
        <mxCell id="BjoPe_qgzE1E7HBCTg-7-210" value="&lt;font style=&quot;font-size: 12px;&quot; face=&quot;Times New Roman&quot;&gt;17&lt;br&gt;&lt;/font&gt;" style="text;html=1;align=center;verticalAlign=middle;resizable=0;points=[];autosize=1;strokeColor=none;fillColor=none;fontSize=20;fontFamily=Architects Daughter;" vertex="1" parent="1">
          <mxGeometry x="1287" y="388" width="40" height="40" as="geometry" />
        </mxCell>
        <mxCell id="BjoPe_qgzE1E7HBCTg-7-211" value="&lt;font style=&quot;font-size: 12px;&quot; face=&quot;Times New Roman&quot;&gt;18&lt;br&gt;&lt;/font&gt;" style="text;html=1;align=center;verticalAlign=middle;resizable=0;points=[];autosize=1;strokeColor=none;fillColor=none;fontSize=20;fontFamily=Architects Daughter;" vertex="1" parent="1">
          <mxGeometry x="1287" y="471" width="40" height="40" as="geometry" />
        </mxCell>
        <mxCell id="BjoPe_qgzE1E7HBCTg-7-212" value="&lt;font style=&quot;font-size: 12px;&quot; face=&quot;Times New Roman&quot;&gt;19&lt;br&gt;&lt;/font&gt;" style="text;html=1;align=center;verticalAlign=middle;resizable=0;points=[];autosize=1;strokeColor=none;fillColor=none;fontSize=20;fontFamily=Architects Daughter;" vertex="1" parent="1">
          <mxGeometry x="1246" y="561" width="40" height="40" as="geometry" />
        </mxCell>
        <mxCell id="BjoPe_qgzE1E7HBCTg-7-213" value="&lt;font style=&quot;font-size: 12px;&quot; face=&quot;Times New Roman&quot;&gt;20&lt;br&gt;&lt;/font&gt;" style="text;html=1;align=center;verticalAlign=middle;resizable=0;points=[];autosize=1;strokeColor=none;fillColor=none;fontSize=20;fontFamily=Architects Daughter;" vertex="1" parent="1">
          <mxGeometry x="1247" y="670" width="40" height="40" as="geometry" />
        </mxCell>
        <mxCell id="BjoPe_qgzE1E7HBCTg-7-214" value="&lt;font style=&quot;font-size: 12px;&quot; face=&quot;Times New Roman&quot;&gt;21&lt;br&gt;&lt;/font&gt;" style="text;html=1;align=center;verticalAlign=middle;resizable=0;points=[];autosize=1;strokeColor=none;fillColor=none;fontSize=20;fontFamily=Architects Daughter;" vertex="1" parent="1">
          <mxGeometry x="1385" y="562" width="40" height="40" as="geometry" />
        </mxCell>
        <mxCell id="BjoPe_qgzE1E7HBCTg-7-215" value="&lt;font style=&quot;font-size: 12px;&quot; face=&quot;Times New Roman&quot;&gt;22&lt;br&gt;&lt;/font&gt;" style="text;html=1;align=center;verticalAlign=middle;resizable=0;points=[];autosize=1;strokeColor=none;fillColor=none;fontSize=20;fontFamily=Architects Daughter;" vertex="1" parent="1">
          <mxGeometry x="1390" y="670" width="40" height="40" as="geometry" />
        </mxCell>
        <mxCell id="BjoPe_qgzE1E7HBCTg-7-216" value="&lt;font style=&quot;font-size: 12px;&quot; face=&quot;Times New Roman&quot;&gt;23&lt;br&gt;&lt;/font&gt;" style="text;html=1;align=center;verticalAlign=middle;resizable=0;points=[];autosize=1;strokeColor=none;fillColor=none;fontSize=20;fontFamily=Architects Daughter;" vertex="1" parent="1">
          <mxGeometry x="1392" y="755" width="40" height="40" as="geometry" />
        </mxCell>
        <mxCell id="BjoPe_qgzE1E7HBCTg-7-217" value="&lt;font style=&quot;font-size: 12px;&quot; face=&quot;Times New Roman&quot;&gt;24&lt;br&gt;&lt;/font&gt;" style="text;html=1;align=center;verticalAlign=middle;resizable=0;points=[];autosize=1;strokeColor=none;fillColor=none;fontSize=20;fontFamily=Architects Daughter;" vertex="1" parent="1">
          <mxGeometry x="1535" y="307" width="40" height="40" as="geometry" />
        </mxCell>
        <mxCell id="BjoPe_qgzE1E7HBCTg-7-218" value="&lt;font style=&quot;font-size: 12px;&quot; face=&quot;Times New Roman&quot;&gt;25&lt;br&gt;&lt;/font&gt;" style="text;html=1;align=center;verticalAlign=middle;resizable=0;points=[];autosize=1;strokeColor=none;fillColor=none;fontSize=20;fontFamily=Architects Daughter;" vertex="1" parent="1">
          <mxGeometry x="1534" y="384" width="40" height="40" as="geometry" />
        </mxCell>
        <mxCell id="BjoPe_qgzE1E7HBCTg-7-219" value="&lt;font style=&quot;font-size: 12px;&quot; face=&quot;Times New Roman&quot;&gt;26&lt;br&gt;&lt;/font&gt;" style="text;html=1;align=center;verticalAlign=middle;resizable=0;points=[];autosize=1;strokeColor=none;fillColor=none;fontSize=20;fontFamily=Architects Daughter;" vertex="1" parent="1">
          <mxGeometry x="1539" y="495" width="40" height="40" as="geometry" />
        </mxCell>
        <mxCell id="BjoPe_qgzE1E7HBCTg-7-220" value="&lt;font style=&quot;font-size: 12px;&quot; face=&quot;Times New Roman&quot;&gt;27&lt;br&gt;&lt;/font&gt;" style="text;html=1;align=center;verticalAlign=middle;resizable=0;points=[];autosize=1;strokeColor=none;fillColor=none;fontSize=20;fontFamily=Architects Daughter;" vertex="1" parent="1">
          <mxGeometry x="1534" y="568" width="40" height="40" as="geometry" />
        </mxCell>
        <mxCell id="BjoPe_qgzE1E7HBCTg-7-221" value="&lt;font style=&quot;font-size: 12px;&quot; face=&quot;Times New Roman&quot;&gt;28&lt;br&gt;&lt;/font&gt;" style="text;html=1;align=center;verticalAlign=middle;resizable=0;points=[];autosize=1;strokeColor=none;fillColor=none;fontSize=20;fontFamily=Architects Daughter;" vertex="1" parent="1">
          <mxGeometry x="1524" y="685" width="40" height="40" as="geometry" />
        </mxCell>
        <mxCell id="BjoPe_qgzE1E7HBCTg-7-222" value="&lt;font style=&quot;font-size: 12px;&quot; face=&quot;Times New Roman&quot;&gt;29&lt;br&gt;&lt;/font&gt;" style="text;html=1;align=center;verticalAlign=middle;resizable=0;points=[];autosize=1;strokeColor=none;fillColor=none;fontSize=20;fontFamily=Architects Daughter;" vertex="1" parent="1">
          <mxGeometry x="1652" y="689" width="40" height="40" as="geometry" />
        </mxCell>
        <mxCell id="BjoPe_qgzE1E7HBCTg-7-223" value="&lt;font style=&quot;font-size: 12px;&quot; face=&quot;Times New Roman&quot;&gt;30&lt;br&gt;&lt;/font&gt;" style="text;html=1;align=center;verticalAlign=middle;resizable=0;points=[];autosize=1;strokeColor=none;fillColor=none;fontSize=20;fontFamily=Architects Daughter;" vertex="1" parent="1">
          <mxGeometry x="1456" y="870" width="40" height="40" as="geometry" />
        </mxCell>
        <mxCell id="BjoPe_qgzE1E7HBCTg-7-224" value="&lt;font style=&quot;font-size: 12px;&quot; face=&quot;Times New Roman&quot;&gt;31&lt;br&gt;&lt;/font&gt;" style="text;html=1;align=center;verticalAlign=middle;resizable=0;points=[];autosize=1;strokeColor=none;fillColor=none;fontSize=20;fontFamily=Architects Daughter;" vertex="1" parent="1">
          <mxGeometry x="1665" y="988" width="40" height="40" as="geometry" />
        </mxCell>
        <mxCell id="BjoPe_qgzE1E7HBCTg-7-225" value="&lt;font style=&quot;font-size: 12px;&quot; face=&quot;Times New Roman&quot;&gt;32&lt;br&gt;&lt;/font&gt;" style="text;html=1;align=center;verticalAlign=middle;resizable=0;points=[];autosize=1;strokeColor=none;fillColor=none;fontSize=20;fontFamily=Architects Daughter;" vertex="1" parent="1">
          <mxGeometry x="1498" y="985" width="40" height="40" as="geometry" />
        </mxCell>
        <mxCell id="BjoPe_qgzE1E7HBCTg-7-226" value="&lt;font style=&quot;font-size: 12px;&quot; face=&quot;Times New Roman&quot;&gt;33&lt;br&gt;&lt;/font&gt;" style="text;html=1;align=center;verticalAlign=middle;resizable=0;points=[];autosize=1;strokeColor=none;fillColor=none;fontSize=20;fontFamily=Architects Daughter;" vertex="1" parent="1">
          <mxGeometry x="1498" y="1066" width="40" height="40" as="geometry" />
        </mxCell>
        <mxCell id="BjoPe_qgzE1E7HBCTg-7-227" value="&lt;font style=&quot;font-size: 12px;&quot; face=&quot;Times New Roman&quot;&gt;34&lt;br&gt;&lt;/font&gt;" style="text;html=1;align=center;verticalAlign=middle;resizable=0;points=[];autosize=1;strokeColor=none;fillColor=none;fontSize=20;fontFamily=Architects Daughter;" vertex="1" parent="1">
          <mxGeometry x="1340" y="1070" width="40" height="40" as="geometry" />
        </mxCell>
        <mxCell id="BjoPe_qgzE1E7HBCTg-7-228" value="&lt;font face=&quot;Times New Roman&quot;&gt;&lt;span style=&quot;font-size: 12px;&quot;&gt;37&lt;br&gt;&lt;/span&gt;&lt;/font&gt;" style="text;html=1;align=center;verticalAlign=middle;resizable=0;points=[];autosize=1;strokeColor=none;fillColor=none;fontSize=20;fontFamily=Architects Daughter;" vertex="1" parent="1">
          <mxGeometry x="1748" y="389" width="40" height="40" as="geometry" />
        </mxCell>
        <mxCell id="BjoPe_qgzE1E7HBCTg-7-229" value="&lt;font style=&quot;font-size: 12px;&quot; face=&quot;Times New Roman&quot;&gt;41&lt;br&gt;&lt;/font&gt;" style="text;html=1;align=center;verticalAlign=middle;resizable=0;points=[];autosize=1;strokeColor=none;fillColor=none;fontSize=20;fontFamily=Architects Daughter;" vertex="1" parent="1">
          <mxGeometry x="2073" y="215" width="40" height="40" as="geometry" />
        </mxCell>
        <mxCell id="BjoPe_qgzE1E7HBCTg-7-230" value="&lt;font style=&quot;font-size: 12px;&quot; face=&quot;Times New Roman&quot;&gt;42&lt;br&gt;&lt;/font&gt;" style="text;html=1;align=center;verticalAlign=middle;resizable=0;points=[];autosize=1;strokeColor=none;fillColor=none;fontSize=20;fontFamily=Architects Daughter;" vertex="1" parent="1">
          <mxGeometry x="2077" y="307" width="40" height="40" as="geometry" />
        </mxCell>
        <mxCell id="BjoPe_qgzE1E7HBCTg-7-231" value="&lt;font style=&quot;font-size: 12px;&quot; face=&quot;Times New Roman&quot;&gt;43&lt;br&gt;&lt;/font&gt;" style="text;html=1;align=center;verticalAlign=middle;resizable=0;points=[];autosize=1;strokeColor=none;fillColor=none;fontSize=20;fontFamily=Architects Daughter;" vertex="1" parent="1">
          <mxGeometry x="2077" y="388" width="40" height="40" as="geometry" />
        </mxCell>
        <mxCell id="BjoPe_qgzE1E7HBCTg-7-232" value="&lt;font style=&quot;font-size: 12px;&quot; face=&quot;Times New Roman&quot;&gt;44&lt;br&gt;&lt;/font&gt;" style="text;html=1;align=center;verticalAlign=middle;resizable=0;points=[];autosize=1;strokeColor=none;fillColor=none;fontSize=20;fontFamily=Architects Daughter;" vertex="1" parent="1">
          <mxGeometry x="2094" y="506" width="40" height="40" as="geometry" />
        </mxCell>
        <mxCell id="BjoPe_qgzE1E7HBCTg-7-233" value="&lt;font style=&quot;font-size: 12px;&quot; face=&quot;Times New Roman&quot;&gt;45&lt;br&gt;&lt;/font&gt;" style="text;html=1;align=center;verticalAlign=middle;resizable=0;points=[];autosize=1;strokeColor=none;fillColor=none;fontSize=20;fontFamily=Architects Daughter;" vertex="1" parent="1">
          <mxGeometry x="2075" y="587" width="40" height="40" as="geometry" />
        </mxCell>
        <mxCell id="BjoPe_qgzE1E7HBCTg-7-234" value="&lt;font style=&quot;font-size: 12px;&quot; face=&quot;Times New Roman&quot;&gt;46&lt;br&gt;&lt;/font&gt;" style="text;html=1;align=center;verticalAlign=middle;resizable=0;points=[];autosize=1;strokeColor=none;fillColor=none;fontSize=20;fontFamily=Architects Daughter;" vertex="1" parent="1">
          <mxGeometry x="2076" y="669" width="40" height="40" as="geometry" />
        </mxCell>
      </root>
    </mxGraphModel>
  </diagram>
  <diagram id="sMAxEe2XwMH9k-L8z2bG" name="Поставщик">
    <mxGraphModel grid="1" page="1" gridSize="10" guides="1" tooltips="1" connect="1" arrows="1" fold="1" pageScale="1" pageWidth="827" pageHeight="1169" math="0" shadow="0">
      <root>
        <mxCell id="0" />
        <mxCell id="1" parent="0" />
        <mxCell id="QBUq05zUNLMnL2oW77g4-1" style="edgeStyle=orthogonalEdgeStyle;shape=connector;rounded=0;orthogonalLoop=1;jettySize=auto;html=1;entryX=0.5;entryY=0;entryDx=0;entryDy=0;labelBackgroundColor=default;strokeColor=default;align=center;verticalAlign=middle;fontFamily=Helvetica;fontSize=11;fontColor=default;endArrow=classic;" edge="1" parent="1" source="QBUq05zUNLMnL2oW77g4-2" target="QBUq05zUNLMnL2oW77g4-29">
          <mxGeometry relative="1" as="geometry" />
        </mxCell>
        <mxCell id="QBUq05zUNLMnL2oW77g4-2" value="Начало" style="ellipse;whiteSpace=wrap;html=1;" vertex="1" parent="1">
          <mxGeometry x="1055" width="120" height="60" as="geometry" />
        </mxCell>
        <mxCell id="QBUq05zUNLMnL2oW77g4-3" style="edgeStyle=orthogonalEdgeStyle;shape=connector;rounded=0;orthogonalLoop=1;jettySize=auto;html=1;exitX=0.5;exitY=1;exitDx=0;exitDy=0;entryX=0.5;entryY=0;entryDx=0;entryDy=0;labelBackgroundColor=default;strokeColor=default;align=center;verticalAlign=middle;fontFamily=Helvetica;fontSize=11;fontColor=default;endArrow=classic;" edge="1" parent="1" source="QBUq05zUNLMnL2oW77g4-4" target="QBUq05zUNLMnL2oW77g4-7">
          <mxGeometry relative="1" as="geometry" />
        </mxCell>
        <mxCell id="QBUq05zUNLMnL2oW77g4-4" value="Нажатие на кнопку &quot;Профиль&quot;" style="whiteSpace=wrap;html=1;" vertex="1" parent="1">
          <mxGeometry x="1656" y="180" width="120" height="60" as="geometry" />
        </mxCell>
        <mxCell id="QBUq05zUNLMnL2oW77g4-5" value="" style="edgeStyle=orthogonalEdgeStyle;rounded=0;orthogonalLoop=1;jettySize=auto;html=1;exitX=0.5;exitY=1;exitDx=0;exitDy=0;" edge="1" parent="1" source="QBUq05zUNLMnL2oW77g4-29" target="QBUq05zUNLMnL2oW77g4-4">
          <mxGeometry relative="1" as="geometry">
            <Array as="points">
              <mxPoint x="1115" y="169" />
            </Array>
            <mxPoint x="1190" y="140" as="sourcePoint" />
          </mxGeometry>
        </mxCell>
        <mxCell id="QBUq05zUNLMnL2oW77g4-6" style="edgeStyle=orthogonalEdgeStyle;shape=connector;rounded=0;orthogonalLoop=1;jettySize=auto;html=1;exitX=0.5;exitY=1;exitDx=0;exitDy=0;entryX=0.5;entryY=0;entryDx=0;entryDy=0;labelBackgroundColor=default;strokeColor=default;align=center;verticalAlign=middle;fontFamily=Helvetica;fontSize=11;fontColor=default;endArrow=classic;" edge="1" parent="1" source="QBUq05zUNLMnL2oW77g4-7" target="QBUq05zUNLMnL2oW77g4-103">
          <mxGeometry relative="1" as="geometry" />
        </mxCell>
        <mxCell id="QBUq05zUNLMnL2oW77g4-7" value="Открывается окно с полями для ввода и текстом о роли и ФИО пользователя" style="whiteSpace=wrap;html=1;" vertex="1" parent="1">
          <mxGeometry x="1648" y="265.5" width="142" height="71" as="geometry" />
        </mxCell>
        <mxCell id="QBUq05zUNLMnL2oW77g4-8" value="Нажатие на кнопку &quot;Изменить пароль&quot;" style="whiteSpace=wrap;html=1;" vertex="1" parent="1">
          <mxGeometry x="1661" y="442.5" width="120" height="60" as="geometry" />
        </mxCell>
        <mxCell id="QBUq05zUNLMnL2oW77g4-9" value="Все поля заполнены?" style="rhombus;whiteSpace=wrap;html=1;" vertex="1" parent="1">
          <mxGeometry x="1818" y="480" width="120" height="80" as="geometry" />
        </mxCell>
        <mxCell id="QBUq05zUNLMnL2oW77g4-10" value="" style="edgeStyle=orthogonalEdgeStyle;rounded=0;orthogonalLoop=1;jettySize=auto;html=1;" edge="1" parent="1" source="QBUq05zUNLMnL2oW77g4-8" target="QBUq05zUNLMnL2oW77g4-9">
          <mxGeometry relative="1" as="geometry">
            <Array as="points">
              <mxPoint x="1750" y="520" />
            </Array>
          </mxGeometry>
        </mxCell>
        <mxCell id="QBUq05zUNLMnL2oW77g4-11" style="edgeStyle=orthogonalEdgeStyle;shape=connector;rounded=0;orthogonalLoop=1;jettySize=auto;html=1;labelBackgroundColor=default;strokeColor=default;align=center;verticalAlign=middle;fontFamily=Helvetica;fontSize=11;fontColor=default;endArrow=classic;" edge="1" parent="1" source="QBUq05zUNLMnL2oW77g4-12" target="QBUq05zUNLMnL2oW77g4-103">
          <mxGeometry relative="1" as="geometry" />
        </mxCell>
        <mxCell id="QBUq05zUNLMnL2oW77g4-12" value="Подсветить поля, которые не заполнены" style="whiteSpace=wrap;html=1;" vertex="1" parent="1">
          <mxGeometry x="1814" y="360" width="120" height="60" as="geometry" />
        </mxCell>
        <mxCell id="QBUq05zUNLMnL2oW77g4-13" value="Нет" style="edgeStyle=orthogonalEdgeStyle;rounded=0;orthogonalLoop=1;jettySize=auto;html=1;" edge="1" parent="1" source="QBUq05zUNLMnL2oW77g4-9" target="QBUq05zUNLMnL2oW77g4-12">
          <mxGeometry relative="1" as="geometry" />
        </mxCell>
        <mxCell id="QBUq05zUNLMnL2oW77g4-14" style="edgeStyle=orthogonalEdgeStyle;rounded=0;orthogonalLoop=1;jettySize=auto;html=1;entryX=0;entryY=0.5;entryDx=0;entryDy=0;" edge="1" parent="1" source="QBUq05zUNLMnL2oW77g4-15" target="QBUq05zUNLMnL2oW77g4-29">
          <mxGeometry relative="1" as="geometry">
            <mxPoint x="1115" y="129" as="targetPoint" />
            <Array as="points">
              <mxPoint x="1880" y="1110" />
              <mxPoint x="838" y="1110" />
              <mxPoint x="838" y="120" />
            </Array>
          </mxGeometry>
        </mxCell>
        <mxCell id="QBUq05zUNLMnL2oW77g4-16" value="Да" style="edgeStyle=orthogonalEdgeStyle;rounded=0;orthogonalLoop=1;jettySize=auto;html=1;" edge="1" parent="1" source="QBUq05zUNLMnL2oW77g4-9" target="QBUq05zUNLMnL2oW77g4-15">
          <mxGeometry relative="1" as="geometry" />
        </mxCell>
        <mxCell id="QBUq05zUNLMnL2oW77g4-17" style="edgeStyle=orthogonalEdgeStyle;rounded=0;orthogonalLoop=1;jettySize=auto;html=1;entryX=0;entryY=0.5;entryDx=0;entryDy=0;" edge="1" parent="1" source="QBUq05zUNLMnL2oW77g4-18" target="QBUq05zUNLMnL2oW77g4-29">
          <mxGeometry relative="1" as="geometry">
            <mxPoint x="1115" y="129" as="targetPoint" />
            <Array as="points">
              <mxPoint x="720" y="120" />
            </Array>
          </mxGeometry>
        </mxCell>
        <mxCell id="QBUq05zUNLMnL2oW77g4-18" value="Нажатие на кнопку &quot;Выход из системы&quot;" style="whiteSpace=wrap;html=1;" vertex="1" parent="1">
          <mxGeometry x="707" y="190" width="120" height="60" as="geometry" />
        </mxCell>
        <mxCell id="QBUq05zUNLMnL2oW77g4-19" value="" style="edgeStyle=orthogonalEdgeStyle;rounded=0;orthogonalLoop=1;jettySize=auto;html=1;" edge="1" parent="1" source="QBUq05zUNLMnL2oW77g4-29" target="QBUq05zUNLMnL2oW77g4-18">
          <mxGeometry relative="1" as="geometry">
            <Array as="points">
              <mxPoint x="1115" y="170" />
              <mxPoint x="750" y="170" />
            </Array>
            <mxPoint x="1190" y="140" as="sourcePoint" />
          </mxGeometry>
        </mxCell>
        <mxCell id="QBUq05zUNLMnL2oW77g4-20" style="edgeStyle=orthogonalEdgeStyle;shape=connector;rounded=0;orthogonalLoop=1;jettySize=auto;html=1;entryX=0.5;entryY=0;entryDx=0;entryDy=0;labelBackgroundColor=default;strokeColor=default;align=center;verticalAlign=middle;fontFamily=Helvetica;fontSize=11;fontColor=default;endArrow=classic;" edge="1" parent="1" source="QBUq05zUNLMnL2oW77g4-103" target="QBUq05zUNLMnL2oW77g4-8">
          <mxGeometry relative="1" as="geometry" />
        </mxCell>
        <mxCell id="QBUq05zUNLMnL2oW77g4-21" value="&lt;font face=&quot;Times New Roman&quot;&gt;&lt;span style=&quot;font-size: 12px;&quot;&gt;32&lt;br&gt;&lt;/span&gt;&lt;/font&gt;" style="text;html=1;align=center;verticalAlign=middle;resizable=0;points=[];autosize=1;strokeColor=none;fillColor=none;fontSize=20;fontFamily=Architects Daughter;" vertex="1" parent="1">
          <mxGeometry x="1742" y="202" width="40" height="40" as="geometry" />
        </mxCell>
        <mxCell id="QBUq05zUNLMnL2oW77g4-22" value="&lt;font face=&quot;Times New Roman&quot;&gt;&lt;span style=&quot;font-size: 12px;&quot;&gt;33&lt;br&gt;&lt;/span&gt;&lt;/font&gt;" style="text;html=1;align=center;verticalAlign=middle;resizable=0;points=[];autosize=1;strokeColor=none;fillColor=none;fontSize=20;fontFamily=Architects Daughter;" vertex="1" parent="1">
          <mxGeometry x="1754" y="301" width="40" height="40" as="geometry" />
        </mxCell>
        <mxCell id="QBUq05zUNLMnL2oW77g4-23" value="&lt;font style=&quot;font-size: 12px;&quot; face=&quot;Times New Roman&quot;&gt;35&lt;br&gt;&lt;/font&gt;" style="text;html=1;align=center;verticalAlign=middle;resizable=0;points=[];autosize=1;strokeColor=none;fillColor=none;fontSize=20;fontFamily=Architects Daughter;" vertex="1" parent="1">
          <mxGeometry x="1749" y="467.5" width="40" height="40" as="geometry" />
        </mxCell>
        <mxCell id="QBUq05zUNLMnL2oW77g4-24" value="&lt;font style=&quot;font-size: 12px;&quot; face=&quot;Times New Roman&quot;&gt;36&lt;br&gt;&lt;/font&gt;" style="text;html=1;align=center;verticalAlign=middle;resizable=0;points=[];autosize=1;strokeColor=none;fillColor=none;fontSize=20;fontFamily=Architects Daughter;" vertex="1" parent="1">
          <mxGeometry x="1898" y="383" width="40" height="40" as="geometry" />
        </mxCell>
        <mxCell id="3ubFfi_BpK5Fo4G5r66O-5" style="edgeStyle=orthogonalEdgeStyle;shape=connector;rounded=0;orthogonalLoop=1;jettySize=auto;html=1;exitX=0.5;exitY=1;exitDx=0;exitDy=0;entryX=0.5;entryY=0;entryDx=0;entryDy=0;labelBackgroundColor=default;strokeColor=default;align=center;verticalAlign=middle;fontFamily=Helvetica;fontSize=11;fontColor=default;endArrow=classic;" edge="1" parent="1" source="QBUq05zUNLMnL2oW77g4-29" target="QBUq05zUNLMnL2oW77g4-162">
          <mxGeometry relative="1" as="geometry" />
        </mxCell>
        <mxCell id="3ubFfi_BpK5Fo4G5r66O-6" style="edgeStyle=orthogonalEdgeStyle;shape=connector;rounded=0;orthogonalLoop=1;jettySize=auto;html=1;exitX=0.5;exitY=1;exitDx=0;exitDy=0;entryX=0.5;entryY=0;entryDx=0;entryDy=0;labelBackgroundColor=default;strokeColor=default;align=center;verticalAlign=middle;fontFamily=Helvetica;fontSize=11;fontColor=default;endArrow=classic;" edge="1" parent="1" source="QBUq05zUNLMnL2oW77g4-29" target="QBUq05zUNLMnL2oW77g4-164">
          <mxGeometry relative="1" as="geometry" />
        </mxCell>
        <mxCell id="QBUq05zUNLMnL2oW77g4-29" value="Открытие окна" style="rounded=0;whiteSpace=wrap;html=1;hachureGap=4;fontFamily=Helvetica;fontSource=https%3A%2F%2Ffonts.googleapis.com%2Fcss%3Ffamily%3DArchitects%2BDaughter;fontSize=11;fontColor=default;" vertex="1" parent="1">
          <mxGeometry x="1055" y="90" width="120" height="60" as="geometry" />
        </mxCell>
        <mxCell id="QBUq05zUNLMnL2oW77g4-30" value="&lt;font style=&quot;font-size: 12px;&quot; face=&quot;Times New Roman&quot;&gt;1&lt;/font&gt;" style="text;html=1;align=center;verticalAlign=middle;resizable=0;points=[];autosize=1;strokeColor=none;fillColor=none;fontSize=20;fontFamily=Architects Daughter;" vertex="1" parent="1">
          <mxGeometry x="1146" y="113" width="30" height="40" as="geometry" />
        </mxCell>
        <mxCell id="QBUq05zUNLMnL2oW77g4-102" value="&lt;font style=&quot;font-size: 12px;&quot; face=&quot;Times New Roman&quot;&gt;13&lt;br&gt;&lt;/font&gt;" style="text;html=1;align=center;verticalAlign=middle;resizable=0;points=[];autosize=1;strokeColor=none;fillColor=none;fontSize=20;fontFamily=Architects Daughter;" vertex="1" parent="1">
          <mxGeometry x="1749" y="384" width="40" height="40" as="geometry" />
        </mxCell>
        <mxCell id="QBUq05zUNLMnL2oW77g4-103" value="Ввод текущего и нового паролей" style="whiteSpace=wrap;html=1;rounded=0;gradientColor=none;" vertex="1" parent="1">
          <mxGeometry x="1661" y="360" width="120" height="60" as="geometry" />
        </mxCell>
        <mxCell id="QBUq05zUNLMnL2oW77g4-122" value="&lt;font style=&quot;font-size: 12px;&quot; face=&quot;Times New Roman&quot;&gt;2&lt;/font&gt;" style="text;html=1;align=center;verticalAlign=middle;resizable=0;points=[];autosize=1;strokeColor=none;fillColor=none;fontSize=20;fontFamily=Architects Daughter;" vertex="1" parent="1">
          <mxGeometry x="802" y="217" width="30" height="40" as="geometry" />
        </mxCell>
        <mxCell id="QBUq05zUNLMnL2oW77g4-155" value="&lt;font face=&quot;Times New Roman&quot;&gt;&lt;span style=&quot;font-size: 12px;&quot;&gt;34&lt;br&gt;&lt;/span&gt;&lt;/font&gt;" style="text;html=1;align=center;verticalAlign=middle;resizable=0;points=[];autosize=1;strokeColor=none;fillColor=none;fontSize=20;fontFamily=Architects Daughter;" vertex="1" parent="1">
          <mxGeometry x="1748" y="389" width="40" height="40" as="geometry" />
        </mxCell>
        <mxCell id="_AyBss3SgHnlPPfRHY0O-4" style="edgeStyle=orthogonalEdgeStyle;shape=connector;rounded=0;orthogonalLoop=1;jettySize=auto;html=1;exitX=0.5;exitY=1;exitDx=0;exitDy=0;entryX=0.5;entryY=0;entryDx=0;entryDy=0;labelBackgroundColor=default;strokeColor=default;align=center;verticalAlign=middle;fontFamily=Helvetica;fontSize=11;fontColor=default;endArrow=classic;" edge="1" parent="1" source="QBUq05zUNLMnL2oW77g4-162" target="QBUq05zUNLMnL2oW77g4-165">
          <mxGeometry relative="1" as="geometry" />
        </mxCell>
        <mxCell id="QBUq05zUNLMnL2oW77g4-162" value="Нажатие на кнопку &quot;Моя компания&quot;" style="rounded=0;whiteSpace=wrap;html=1;hachureGap=4;fontFamily=Helvetica;fontSource=https%3A%2F%2Ffonts.googleapis.com%2Fcss%3Ffamily%3DArchitects%2BDaughter;fontSize=11;fontColor=default;" vertex="1" parent="1">
          <mxGeometry x="880" y="192" width="120" height="60" as="geometry" />
        </mxCell>
        <mxCell id="3ubFfi_BpK5Fo4G5r66O-11" style="edgeStyle=orthogonalEdgeStyle;shape=connector;rounded=0;orthogonalLoop=1;jettySize=auto;html=1;exitX=0.5;exitY=1;exitDx=0;exitDy=0;entryX=0.5;entryY=0;entryDx=0;entryDy=0;labelBackgroundColor=default;strokeColor=default;align=center;verticalAlign=middle;fontFamily=Helvetica;fontSize=11;fontColor=default;endArrow=classic;" edge="1" parent="1" source="QBUq05zUNLMnL2oW77g4-164" target="3ubFfi_BpK5Fo4G5r66O-7">
          <mxGeometry relative="1" as="geometry">
            <Array as="points">
              <mxPoint x="1410" y="270" />
              <mxPoint x="1241" y="270" />
            </Array>
          </mxGeometry>
        </mxCell>
        <mxCell id="3ubFfi_BpK5Fo4G5r66O-12" style="edgeStyle=orthogonalEdgeStyle;shape=connector;rounded=0;orthogonalLoop=1;jettySize=auto;html=1;exitX=0.5;exitY=1;exitDx=0;exitDy=0;labelBackgroundColor=default;strokeColor=default;align=center;verticalAlign=middle;fontFamily=Helvetica;fontSize=11;fontColor=default;endArrow=classic;entryX=0.5;entryY=0;entryDx=0;entryDy=0;" edge="1" parent="1" source="QBUq05zUNLMnL2oW77g4-164" target="3ubFfi_BpK5Fo4G5r66O-8">
          <mxGeometry relative="1" as="geometry">
            <mxPoint x="1600" y="260" as="targetPoint" />
            <Array as="points">
              <mxPoint x="1410" y="270" />
              <mxPoint x="1578" y="270" />
            </Array>
          </mxGeometry>
        </mxCell>
        <mxCell id="3ubFfi_BpK5Fo4G5r66O-13" style="edgeStyle=orthogonalEdgeStyle;shape=connector;rounded=0;orthogonalLoop=1;jettySize=auto;html=1;exitX=0.5;exitY=1;exitDx=0;exitDy=0;entryX=0.5;entryY=0;entryDx=0;entryDy=0;labelBackgroundColor=default;strokeColor=default;align=center;verticalAlign=middle;fontFamily=Helvetica;fontSize=11;fontColor=default;endArrow=classic;" edge="1" parent="1" source="QBUq05zUNLMnL2oW77g4-164" target="3ubFfi_BpK5Fo4G5r66O-9">
          <mxGeometry relative="1" as="geometry">
            <Array as="points">
              <mxPoint x="1410" y="270" />
              <mxPoint x="1490" y="270" />
              <mxPoint x="1490" y="500" />
              <mxPoint x="1430" y="500" />
              <mxPoint x="1430" y="770" />
              <mxPoint x="1520" y="770" />
            </Array>
          </mxGeometry>
        </mxCell>
        <mxCell id="QBUq05zUNLMnL2oW77g4-164" value="Нажатие на кнопку &quot;Заказы и поставки&quot;" style="whiteSpace=wrap;html=1;" vertex="1" parent="1">
          <mxGeometry x="1350" y="192" width="120" height="60" as="geometry" />
        </mxCell>
        <mxCell id="_AyBss3SgHnlPPfRHY0O-5" style="edgeStyle=orthogonalEdgeStyle;shape=connector;rounded=0;orthogonalLoop=1;jettySize=auto;html=1;exitX=0.5;exitY=1;exitDx=0;exitDy=0;entryX=0.5;entryY=0;entryDx=0;entryDy=0;labelBackgroundColor=default;strokeColor=default;align=center;verticalAlign=middle;fontFamily=Helvetica;fontSize=11;fontColor=default;endArrow=classic;" edge="1" parent="1" source="QBUq05zUNLMnL2oW77g4-165" target="QBUq05zUNLMnL2oW77g4-167">
          <mxGeometry relative="1" as="geometry" />
        </mxCell>
        <mxCell id="QBUq05zUNLMnL2oW77g4-165" value="Открывается окно с полями для ввода и текстом о компании поставщика" style="whiteSpace=wrap;html=1;" vertex="1" parent="1">
          <mxGeometry x="869" y="270" width="142" height="71" as="geometry" />
        </mxCell>
        <mxCell id="_AyBss3SgHnlPPfRHY0O-6" style="edgeStyle=orthogonalEdgeStyle;shape=connector;rounded=0;orthogonalLoop=1;jettySize=auto;html=1;exitX=0.5;exitY=1;exitDx=0;exitDy=0;entryX=0.5;entryY=0;entryDx=0;entryDy=0;labelBackgroundColor=default;strokeColor=default;align=center;verticalAlign=middle;fontFamily=Helvetica;fontSize=11;fontColor=default;endArrow=classic;" edge="1" parent="1" source="QBUq05zUNLMnL2oW77g4-167" target="_AyBss3SgHnlPPfRHY0O-1">
          <mxGeometry relative="1" as="geometry" />
        </mxCell>
        <mxCell id="QBUq05zUNLMnL2oW77g4-167" value="Ввод данных" style="rounded=0;whiteSpace=wrap;html=1;hachureGap=4;fontFamily=Helvetica;fontSource=https%3A%2F%2Ffonts.googleapis.com%2Fcss%3Ffamily%3DArchitects%2BDaughter;fontSize=11;fontColor=default;" vertex="1" parent="1">
          <mxGeometry x="880" y="369" width="120" height="60" as="geometry" />
        </mxCell>
        <mxCell id="_AyBss3SgHnlPPfRHY0O-7" style="edgeStyle=orthogonalEdgeStyle;shape=connector;rounded=0;orthogonalLoop=1;jettySize=auto;html=1;exitX=0.5;exitY=1;exitDx=0;exitDy=0;entryX=0.5;entryY=0;entryDx=0;entryDy=0;labelBackgroundColor=default;strokeColor=default;align=center;verticalAlign=middle;fontFamily=Helvetica;fontSize=11;fontColor=default;endArrow=classic;" edge="1" parent="1" source="_AyBss3SgHnlPPfRHY0O-1" target="_AyBss3SgHnlPPfRHY0O-2">
          <mxGeometry relative="1" as="geometry" />
        </mxCell>
        <mxCell id="_AyBss3SgHnlPPfRHY0O-1" value="Нажатие на кнопку &quot;Обновить&quot;" style="whiteSpace=wrap;html=1;" vertex="1" parent="1">
          <mxGeometry x="880" y="447.5" width="120" height="60" as="geometry" />
        </mxCell>
        <mxCell id="3ubFfi_BpK5Fo4G5r66O-2" value="Нет" style="edgeStyle=orthogonalEdgeStyle;shape=connector;rounded=0;orthogonalLoop=1;jettySize=auto;html=1;exitX=1;exitY=0.5;exitDx=0;exitDy=0;entryX=0.5;entryY=1;entryDx=0;entryDy=0;labelBackgroundColor=default;strokeColor=default;align=center;verticalAlign=middle;fontFamily=Helvetica;fontSize=11;fontColor=default;endArrow=classic;" edge="1" parent="1" source="_AyBss3SgHnlPPfRHY0O-2" target="3ubFfi_BpK5Fo4G5r66O-1">
          <mxGeometry relative="1" as="geometry" />
        </mxCell>
        <mxCell id="3ubFfi_BpK5Fo4G5r66O-4" value="Да" style="edgeStyle=orthogonalEdgeStyle;shape=connector;rounded=0;orthogonalLoop=1;jettySize=auto;html=1;exitX=0.5;exitY=1;exitDx=0;exitDy=0;entryX=0.5;entryY=0;entryDx=0;entryDy=0;labelBackgroundColor=default;strokeColor=default;align=center;verticalAlign=middle;fontFamily=Helvetica;fontSize=11;fontColor=default;endArrow=classic;" edge="1" parent="1" source="_AyBss3SgHnlPPfRHY0O-2" target="_AyBss3SgHnlPPfRHY0O-3">
          <mxGeometry relative="1" as="geometry" />
        </mxCell>
        <mxCell id="_AyBss3SgHnlPPfRHY0O-2" value="Все поля заполнены?" style="rhombus;whiteSpace=wrap;html=1;" vertex="1" parent="1">
          <mxGeometry x="880" y="528" width="120" height="80" as="geometry" />
        </mxCell>
        <mxCell id="3HBWWHF8Gf6fdjCA_K7L-23" style="edgeStyle=orthogonalEdgeStyle;rounded=0;orthogonalLoop=1;jettySize=auto;html=1;exitX=0;exitY=0.5;exitDx=0;exitDy=0;entryX=0;entryY=0.5;entryDx=0;entryDy=0;" edge="1" parent="1" source="_AyBss3SgHnlPPfRHY0O-3" target="QBUq05zUNLMnL2oW77g4-29">
          <mxGeometry relative="1" as="geometry">
            <Array as="points">
              <mxPoint x="840" y="680" />
              <mxPoint x="840" y="120" />
            </Array>
          </mxGeometry>
        </mxCell>
        <mxCell id="_AyBss3SgHnlPPfRHY0O-3" value="Добавление информации о поставщике в бд" style="whiteSpace=wrap;html=1;" vertex="1" parent="1">
          <mxGeometry x="880" y="650" width="120" height="60" as="geometry" />
        </mxCell>
        <mxCell id="3ubFfi_BpK5Fo4G5r66O-3" style="edgeStyle=orthogonalEdgeStyle;shape=connector;rounded=0;orthogonalLoop=1;jettySize=auto;html=1;exitX=0;exitY=0.5;exitDx=0;exitDy=0;entryX=1;entryY=0.5;entryDx=0;entryDy=0;labelBackgroundColor=default;strokeColor=default;align=center;verticalAlign=middle;fontFamily=Helvetica;fontSize=11;fontColor=default;endArrow=classic;" edge="1" parent="1" source="3ubFfi_BpK5Fo4G5r66O-1" target="QBUq05zUNLMnL2oW77g4-167">
          <mxGeometry relative="1" as="geometry" />
        </mxCell>
        <mxCell id="3ubFfi_BpK5Fo4G5r66O-1" value="Подсветить поля, которые не заполнены" style="whiteSpace=wrap;html=1;" vertex="1" parent="1">
          <mxGeometry x="1040" y="369" width="120" height="60" as="geometry" />
        </mxCell>
        <mxCell id="3ubFfi_BpK5Fo4G5r66O-16" style="edgeStyle=orthogonalEdgeStyle;shape=connector;rounded=0;orthogonalLoop=1;jettySize=auto;html=1;exitX=0.5;exitY=1;exitDx=0;exitDy=0;entryX=0.5;entryY=0;entryDx=0;entryDy=0;labelBackgroundColor=default;strokeColor=default;align=center;verticalAlign=middle;fontFamily=Helvetica;fontSize=11;fontColor=default;endArrow=classic;" edge="1" parent="1" source="3ubFfi_BpK5Fo4G5r66O-7" target="3ubFfi_BpK5Fo4G5r66O-15">
          <mxGeometry relative="1" as="geometry" />
        </mxCell>
        <mxCell id="3ubFfi_BpK5Fo4G5r66O-7" value="Нажатие на вкладку &quot;Предложить свой товар&quot;" style="whiteSpace=wrap;html=1;" vertex="1" parent="1">
          <mxGeometry x="1181" y="301" width="120" height="60" as="geometry" />
        </mxCell>
        <mxCell id="7XmgkPvjD7fUfj-HdIhb-3" style="edgeStyle=orthogonalEdgeStyle;shape=connector;rounded=0;orthogonalLoop=1;jettySize=auto;html=1;exitX=0.5;exitY=1;exitDx=0;exitDy=0;entryX=0.5;entryY=0;entryDx=0;entryDy=0;labelBackgroundColor=default;strokeColor=default;align=center;verticalAlign=middle;fontFamily=Helvetica;fontSize=11;fontColor=default;endArrow=classic;" edge="1" parent="1" source="3ubFfi_BpK5Fo4G5r66O-8" target="7XmgkPvjD7fUfj-HdIhb-1">
          <mxGeometry relative="1" as="geometry" />
        </mxCell>
        <mxCell id="3ubFfi_BpK5Fo4G5r66O-8" value="Нажатие на вкладку &quot;Запросы поставок&quot;" style="whiteSpace=wrap;html=1;" vertex="1" parent="1">
          <mxGeometry x="1518" y="304" width="120" height="60" as="geometry" />
        </mxCell>
        <mxCell id="3HBWWHF8Gf6fdjCA_K7L-3" style="edgeStyle=orthogonalEdgeStyle;shape=connector;rounded=0;orthogonalLoop=1;jettySize=auto;html=1;exitX=0.5;exitY=1;exitDx=0;exitDy=0;entryX=0.5;entryY=0;entryDx=0;entryDy=0;labelBackgroundColor=default;strokeColor=default;align=center;verticalAlign=middle;fontFamily=Helvetica;fontSize=11;fontColor=default;endArrow=classic;" edge="1" parent="1" source="3ubFfi_BpK5Fo4G5r66O-9" target="3HBWWHF8Gf6fdjCA_K7L-1">
          <mxGeometry relative="1" as="geometry" />
        </mxCell>
        <mxCell id="3ubFfi_BpK5Fo4G5r66O-9" value="Нажатие на вкладку &quot;Заказать товары&quot;" style="whiteSpace=wrap;html=1;" vertex="1" parent="1">
          <mxGeometry x="1460" y="800" width="120" height="60" as="geometry" />
        </mxCell>
        <mxCell id="3ubFfi_BpK5Fo4G5r66O-24" style="edgeStyle=orthogonalEdgeStyle;shape=connector;rounded=0;orthogonalLoop=1;jettySize=auto;html=1;exitX=0.5;exitY=1;exitDx=0;exitDy=0;entryX=0.5;entryY=0;entryDx=0;entryDy=0;labelBackgroundColor=default;strokeColor=default;align=center;verticalAlign=middle;fontFamily=Helvetica;fontSize=11;fontColor=default;endArrow=classic;" edge="1" parent="1" source="3ubFfi_BpK5Fo4G5r66O-14" target="3ubFfi_BpK5Fo4G5r66O-23">
          <mxGeometry relative="1" as="geometry" />
        </mxCell>
        <mxCell id="3ubFfi_BpK5Fo4G5r66O-14" value="Ввод данных о цене и количеству" style="whiteSpace=wrap;html=1;" vertex="1" parent="1">
          <mxGeometry x="1181" y="467.5" width="120" height="60" as="geometry" />
        </mxCell>
        <mxCell id="3ubFfi_BpK5Fo4G5r66O-17" style="edgeStyle=orthogonalEdgeStyle;shape=connector;rounded=0;orthogonalLoop=1;jettySize=auto;html=1;exitX=0.5;exitY=1;exitDx=0;exitDy=0;entryX=0.5;entryY=0;entryDx=0;entryDy=0;labelBackgroundColor=default;strokeColor=default;align=center;verticalAlign=middle;fontFamily=Helvetica;fontSize=11;fontColor=default;endArrow=classic;" edge="1" parent="1" source="3ubFfi_BpK5Fo4G5r66O-15" target="3ubFfi_BpK5Fo4G5r66O-14">
          <mxGeometry relative="1" as="geometry" />
        </mxCell>
        <mxCell id="3ubFfi_BpK5Fo4G5r66O-15" value="Выбор склада" style="whiteSpace=wrap;html=1;" vertex="1" parent="1">
          <mxGeometry x="1181" y="384" width="120" height="60" as="geometry" />
        </mxCell>
        <mxCell id="3ubFfi_BpK5Fo4G5r66O-21" value="Нет" style="edgeStyle=orthogonalEdgeStyle;shape=connector;rounded=0;orthogonalLoop=1;jettySize=auto;html=1;exitX=1;exitY=0.5;exitDx=0;exitDy=0;entryX=0.5;entryY=1;entryDx=0;entryDy=0;labelBackgroundColor=default;strokeColor=default;align=center;verticalAlign=middle;fontFamily=Helvetica;fontSize=11;fontColor=default;endArrow=classic;" edge="1" parent="1" source="3ubFfi_BpK5Fo4G5r66O-18" target="3ubFfi_BpK5Fo4G5r66O-19">
          <mxGeometry relative="1" as="geometry" />
        </mxCell>
        <mxCell id="gQbWOYztRbGZlgBgCjt1-2" value="Да" style="edgeStyle=orthogonalEdgeStyle;shape=connector;rounded=0;orthogonalLoop=1;jettySize=auto;html=1;exitX=0.5;exitY=1;exitDx=0;exitDy=0;entryX=0.5;entryY=0;entryDx=0;entryDy=0;labelBackgroundColor=default;strokeColor=default;align=center;verticalAlign=middle;fontFamily=Helvetica;fontSize=11;fontColor=default;endArrow=classic;" edge="1" parent="1" source="3ubFfi_BpK5Fo4G5r66O-18" target="gQbWOYztRbGZlgBgCjt1-1">
          <mxGeometry relative="1" as="geometry" />
        </mxCell>
        <mxCell id="3ubFfi_BpK5Fo4G5r66O-18" value="Все поля заполнены?" style="rhombus;whiteSpace=wrap;html=1;" vertex="1" parent="1">
          <mxGeometry x="1181" y="640" width="120" height="80" as="geometry" />
        </mxCell>
        <mxCell id="3ubFfi_BpK5Fo4G5r66O-22" style="edgeStyle=orthogonalEdgeStyle;shape=connector;rounded=0;orthogonalLoop=1;jettySize=auto;html=1;exitX=0;exitY=0.5;exitDx=0;exitDy=0;entryX=1;entryY=0.5;entryDx=0;entryDy=0;labelBackgroundColor=default;strokeColor=default;align=center;verticalAlign=middle;fontFamily=Helvetica;fontSize=11;fontColor=default;endArrow=classic;" edge="1" parent="1" source="3ubFfi_BpK5Fo4G5r66O-19" target="3ubFfi_BpK5Fo4G5r66O-15">
          <mxGeometry relative="1" as="geometry" />
        </mxCell>
        <mxCell id="3ubFfi_BpK5Fo4G5r66O-19" value="Подсветить поля, которые не заполнены" style="whiteSpace=wrap;html=1;" vertex="1" parent="1">
          <mxGeometry x="1341" y="384" width="120" height="60" as="geometry" />
        </mxCell>
        <mxCell id="3ubFfi_BpK5Fo4G5r66O-25" style="edgeStyle=orthogonalEdgeStyle;shape=connector;rounded=0;orthogonalLoop=1;jettySize=auto;html=1;exitX=0.5;exitY=1;exitDx=0;exitDy=0;entryX=0.5;entryY=0;entryDx=0;entryDy=0;labelBackgroundColor=default;strokeColor=default;align=center;verticalAlign=middle;fontFamily=Helvetica;fontSize=11;fontColor=default;endArrow=classic;" edge="1" parent="1" source="3ubFfi_BpK5Fo4G5r66O-23" target="3ubFfi_BpK5Fo4G5r66O-18">
          <mxGeometry relative="1" as="geometry" />
        </mxCell>
        <mxCell id="3ubFfi_BpK5Fo4G5r66O-23" value="Нажатие на кнопку &quot;Предложть&quot;" style="whiteSpace=wrap;html=1;" vertex="1" parent="1">
          <mxGeometry x="1181" y="548" width="120" height="60" as="geometry" />
        </mxCell>
        <mxCell id="3HBWWHF8Gf6fdjCA_K7L-27" style="edgeStyle=orthogonalEdgeStyle;rounded=0;orthogonalLoop=1;jettySize=auto;html=1;exitX=0;exitY=0.5;exitDx=0;exitDy=0;entryX=0;entryY=0.5;entryDx=0;entryDy=0;" edge="1" parent="1" source="gQbWOYztRbGZlgBgCjt1-1" target="QBUq05zUNLMnL2oW77g4-29">
          <mxGeometry relative="1" as="geometry">
            <Array as="points">
              <mxPoint x="840" y="780" />
              <mxPoint x="840" y="120" />
            </Array>
          </mxGeometry>
        </mxCell>
        <mxCell id="gQbWOYztRbGZlgBgCjt1-1" value="Добавление в бд предложение товара складу" style="whiteSpace=wrap;html=1;" vertex="1" parent="1">
          <mxGeometry x="1181" y="750" width="120" height="60" as="geometry" />
        </mxCell>
        <mxCell id="7XmgkPvjD7fUfj-HdIhb-4" style="edgeStyle=orthogonalEdgeStyle;shape=connector;rounded=0;orthogonalLoop=1;jettySize=auto;html=1;exitX=0.5;exitY=1;exitDx=0;exitDy=0;entryX=0.5;entryY=0;entryDx=0;entryDy=0;labelBackgroundColor=default;strokeColor=default;align=center;verticalAlign=middle;fontFamily=Helvetica;fontSize=11;fontColor=default;endArrow=classic;" edge="1" parent="1" source="7XmgkPvjD7fUfj-HdIhb-1" target="7XmgkPvjD7fUfj-HdIhb-2">
          <mxGeometry relative="1" as="geometry" />
        </mxCell>
        <mxCell id="7XmgkPvjD7fUfj-HdIhb-1" value="Двойное нажатие на товар" style="whiteSpace=wrap;html=1;" vertex="1" parent="1">
          <mxGeometry x="1518" y="384" width="120" height="60" as="geometry" />
        </mxCell>
        <mxCell id="pz_augDBTEdyxclfI0hU-2" style="edgeStyle=orthogonalEdgeStyle;shape=connector;rounded=0;orthogonalLoop=1;jettySize=auto;html=1;exitX=0.5;exitY=1;exitDx=0;exitDy=0;entryX=0.5;entryY=0;entryDx=0;entryDy=0;labelBackgroundColor=default;strokeColor=default;align=center;verticalAlign=middle;fontFamily=Helvetica;fontSize=11;fontColor=default;endArrow=classic;" edge="1" parent="1" source="7XmgkPvjD7fUfj-HdIhb-2" target="8wxSbQ2Z2Gnnz-X_YYcq-1">
          <mxGeometry relative="1" as="geometry" />
        </mxCell>
        <mxCell id="pz_augDBTEdyxclfI0hU-3" style="edgeStyle=orthogonalEdgeStyle;shape=connector;rounded=0;orthogonalLoop=1;jettySize=auto;html=1;exitX=0.5;exitY=1;exitDx=0;exitDy=0;entryX=0.5;entryY=0;entryDx=0;entryDy=0;labelBackgroundColor=default;strokeColor=default;align=center;verticalAlign=middle;fontFamily=Helvetica;fontSize=11;fontColor=default;endArrow=classic;" edge="1" parent="1" source="7XmgkPvjD7fUfj-HdIhb-2" target="8wxSbQ2Z2Gnnz-X_YYcq-2">
          <mxGeometry relative="1" as="geometry" />
        </mxCell>
        <mxCell id="7XmgkPvjD7fUfj-HdIhb-2" value="Перемещение товара в таблицу на отпуск" style="whiteSpace=wrap;html=1;" vertex="1" parent="1">
          <mxGeometry x="1518" y="460" width="120" height="60" as="geometry" />
        </mxCell>
        <mxCell id="pz_augDBTEdyxclfI0hU-5" style="edgeStyle=orthogonalEdgeStyle;shape=connector;rounded=0;orthogonalLoop=1;jettySize=auto;html=1;exitX=0.5;exitY=1;exitDx=0;exitDy=0;entryX=0.5;entryY=0;entryDx=0;entryDy=0;labelBackgroundColor=default;strokeColor=default;align=center;verticalAlign=middle;fontFamily=Helvetica;fontSize=11;fontColor=default;endArrow=classic;" edge="1" parent="1" source="8wxSbQ2Z2Gnnz-X_YYcq-1" target="8wxSbQ2Z2Gnnz-X_YYcq-3">
          <mxGeometry relative="1" as="geometry" />
        </mxCell>
        <mxCell id="8wxSbQ2Z2Gnnz-X_YYcq-1" value="Нажатие на кнопку &quot;Отклонить&quot;" style="whiteSpace=wrap;html=1;" vertex="1" parent="1">
          <mxGeometry x="1448" y="570" width="120" height="60" as="geometry" />
        </mxCell>
        <mxCell id="pz_augDBTEdyxclfI0hU-4" style="edgeStyle=orthogonalEdgeStyle;shape=connector;rounded=0;orthogonalLoop=1;jettySize=auto;html=1;exitX=0.5;exitY=1;exitDx=0;exitDy=0;entryX=0.5;entryY=0;entryDx=0;entryDy=0;labelBackgroundColor=default;strokeColor=default;align=center;verticalAlign=middle;fontFamily=Helvetica;fontSize=11;fontColor=default;endArrow=classic;" edge="1" parent="1" source="8wxSbQ2Z2Gnnz-X_YYcq-2" target="pz_augDBTEdyxclfI0hU-1">
          <mxGeometry relative="1" as="geometry" />
        </mxCell>
        <mxCell id="8wxSbQ2Z2Gnnz-X_YYcq-2" value="Нажатие на кнопку &quot;Принять&quot;" style="whiteSpace=wrap;html=1;" vertex="1" parent="1">
          <mxGeometry x="1588" y="570" width="120" height="60" as="geometry" />
        </mxCell>
        <mxCell id="3HBWWHF8Gf6fdjCA_K7L-25" style="edgeStyle=orthogonalEdgeStyle;rounded=0;orthogonalLoop=1;jettySize=auto;html=1;exitX=0.5;exitY=1;exitDx=0;exitDy=0;entryX=0;entryY=0.5;entryDx=0;entryDy=0;" edge="1" parent="1" source="8wxSbQ2Z2Gnnz-X_YYcq-3" target="QBUq05zUNLMnL2oW77g4-29">
          <mxGeometry relative="1" as="geometry">
            <mxPoint x="1410" y="100" as="targetPoint" />
            <Array as="points">
              <mxPoint x="1508" y="750" />
              <mxPoint x="1650" y="750" />
              <mxPoint x="1650" y="1110" />
              <mxPoint x="840" y="1110" />
              <mxPoint x="840" y="120" />
            </Array>
          </mxGeometry>
        </mxCell>
        <mxCell id="8wxSbQ2Z2Gnnz-X_YYcq-3" value="Удаление из бд запроса" style="whiteSpace=wrap;html=1;" vertex="1" parent="1">
          <mxGeometry x="1448" y="662" width="120" height="60" as="geometry" />
        </mxCell>
        <mxCell id="3HBWWHF8Gf6fdjCA_K7L-26" style="edgeStyle=orthogonalEdgeStyle;rounded=0;orthogonalLoop=1;jettySize=auto;html=1;exitX=0.5;exitY=1;exitDx=0;exitDy=0;entryX=0;entryY=0.5;entryDx=0;entryDy=0;" edge="1" parent="1" source="pz_augDBTEdyxclfI0hU-1" target="QBUq05zUNLMnL2oW77g4-29">
          <mxGeometry relative="1" as="geometry">
            <mxPoint x="913" y="50" as="targetPoint" />
            <Array as="points">
              <mxPoint x="1648" y="1110" />
              <mxPoint x="840" y="1110" />
              <mxPoint x="840" y="120" />
            </Array>
          </mxGeometry>
        </mxCell>
        <mxCell id="pz_augDBTEdyxclfI0hU-1" value="Добавление в бд выбранных товаров к складу" style="whiteSpace=wrap;html=1;" vertex="1" parent="1">
          <mxGeometry x="1588" y="662" width="120" height="60" as="geometry" />
        </mxCell>
        <mxCell id="pz_augDBTEdyxclfI0hU-6" value="3" style="group" connectable="0" vertex="1" parent="1">
          <mxGeometry x="1796" y="620" width="164" height="62" as="geometry" />
        </mxCell>
        <mxCell id="QBUq05zUNLMnL2oW77g4-15" value="Изменяем пароль у данного пользователя в БД" style="whiteSpace=wrap;html=1;" vertex="1" parent="pz_augDBTEdyxclfI0hU-6">
          <mxGeometry width="160" height="60" as="geometry" />
        </mxCell>
        <mxCell id="QBUq05zUNLMnL2oW77g4-25" value="&lt;font style=&quot;font-size: 12px;&quot; face=&quot;Times New Roman&quot;&gt;37&lt;br&gt;&lt;/font&gt;" style="text;html=1;align=center;verticalAlign=middle;resizable=0;points=[];autosize=1;strokeColor=none;fillColor=none;fontSize=20;fontFamily=Architects Daughter;" vertex="1" parent="pz_augDBTEdyxclfI0hU-6">
          <mxGeometry x="124" y="22" width="40" height="40" as="geometry" />
        </mxCell>
        <mxCell id="3HBWWHF8Gf6fdjCA_K7L-4" style="edgeStyle=orthogonalEdgeStyle;shape=connector;rounded=0;orthogonalLoop=1;jettySize=auto;html=1;exitX=0.5;exitY=1;exitDx=0;exitDy=0;entryX=0.5;entryY=0;entryDx=0;entryDy=0;labelBackgroundColor=default;strokeColor=default;align=center;verticalAlign=middle;fontFamily=Helvetica;fontSize=11;fontColor=default;endArrow=classic;" edge="1" parent="1" source="3HBWWHF8Gf6fdjCA_K7L-1" target="3HBWWHF8Gf6fdjCA_K7L-2">
          <mxGeometry relative="1" as="geometry" />
        </mxCell>
        <mxCell id="3HBWWHF8Gf6fdjCA_K7L-1" value="Двойное нажатие на товар" style="whiteSpace=wrap;html=1;" vertex="1" parent="1">
          <mxGeometry x="1460" y="880" width="120" height="60" as="geometry" />
        </mxCell>
        <mxCell id="3HBWWHF8Gf6fdjCA_K7L-15" style="edgeStyle=orthogonalEdgeStyle;rounded=0;orthogonalLoop=1;jettySize=auto;html=1;exitX=0;exitY=0.5;exitDx=0;exitDy=0;entryX=1;entryY=0.5;entryDx=0;entryDy=0;" edge="1" parent="1" source="3HBWWHF8Gf6fdjCA_K7L-2" target="3HBWWHF8Gf6fdjCA_K7L-13">
          <mxGeometry relative="1" as="geometry" />
        </mxCell>
        <mxCell id="3HBWWHF8Gf6fdjCA_K7L-16" style="edgeStyle=orthogonalEdgeStyle;rounded=0;orthogonalLoop=1;jettySize=auto;html=1;exitX=0;exitY=0.5;exitDx=0;exitDy=0;entryX=0.5;entryY=1;entryDx=0;entryDy=0;" edge="1" parent="1" source="3HBWWHF8Gf6fdjCA_K7L-2" target="3HBWWHF8Gf6fdjCA_K7L-14">
          <mxGeometry relative="1" as="geometry">
            <Array as="points">
              <mxPoint x="1450" y="986" />
              <mxPoint x="1450" y="920" />
              <mxPoint x="1370" y="920" />
            </Array>
          </mxGeometry>
        </mxCell>
        <mxCell id="3HBWWHF8Gf6fdjCA_K7L-2" value="Открытие окна для ввода количества" style="whiteSpace=wrap;html=1;" vertex="1" parent="1">
          <mxGeometry x="1460" y="956" width="120" height="60" as="geometry" />
        </mxCell>
        <mxCell id="3HBWWHF8Gf6fdjCA_K7L-8" value="Нет" style="edgeStyle=orthogonalEdgeStyle;rounded=0;orthogonalLoop=1;jettySize=auto;html=1;exitX=0.5;exitY=1;exitDx=0;exitDy=0;entryX=0;entryY=0.5;entryDx=0;entryDy=0;" edge="1" parent="1" source="3HBWWHF8Gf6fdjCA_K7L-5" target="3HBWWHF8Gf6fdjCA_K7L-6">
          <mxGeometry relative="1" as="geometry" />
        </mxCell>
        <mxCell id="3HBWWHF8Gf6fdjCA_K7L-12" value="Да" style="edgeStyle=orthogonalEdgeStyle;rounded=0;orthogonalLoop=1;jettySize=auto;html=1;entryX=0.5;entryY=1;entryDx=0;entryDy=0;exitX=0.5;exitY=0;exitDx=0;exitDy=0;" edge="1" parent="1" source="3HBWWHF8Gf6fdjCA_K7L-5" target="3HBWWHF8Gf6fdjCA_K7L-11">
          <mxGeometry relative="1" as="geometry">
            <mxPoint x="1100" y="940" as="sourcePoint" />
            <Array as="points" />
          </mxGeometry>
        </mxCell>
        <mxCell id="3HBWWHF8Gf6fdjCA_K7L-5" value="Все поля заполнены?" style="rhombus;whiteSpace=wrap;html=1;" vertex="1" parent="1">
          <mxGeometry x="1160" y="946" width="120" height="80" as="geometry" />
        </mxCell>
        <mxCell id="3HBWWHF8Gf6fdjCA_K7L-9" style="edgeStyle=orthogonalEdgeStyle;rounded=0;orthogonalLoop=1;jettySize=auto;html=1;exitX=0.5;exitY=0;exitDx=0;exitDy=0;entryX=0.5;entryY=1;entryDx=0;entryDy=0;" edge="1" parent="1" source="3HBWWHF8Gf6fdjCA_K7L-6" target="3HBWWHF8Gf6fdjCA_K7L-2">
          <mxGeometry relative="1" as="geometry" />
        </mxCell>
        <mxCell id="3HBWWHF8Gf6fdjCA_K7L-6" value="Подсветить поля, которые не заполнены" style="whiteSpace=wrap;html=1;" vertex="1" parent="1">
          <mxGeometry x="1460" y="1030" width="120" height="60" as="geometry" />
        </mxCell>
        <mxCell id="3HBWWHF8Gf6fdjCA_K7L-20" style="edgeStyle=orthogonalEdgeStyle;rounded=0;orthogonalLoop=1;jettySize=auto;html=1;exitX=0;exitY=0.5;exitDx=0;exitDy=0;entryX=1;entryY=0.5;entryDx=0;entryDy=0;" edge="1" parent="1" source="3HBWWHF8Gf6fdjCA_K7L-11" target="3HBWWHF8Gf6fdjCA_K7L-19">
          <mxGeometry relative="1" as="geometry" />
        </mxCell>
        <mxCell id="3HBWWHF8Gf6fdjCA_K7L-11" value="Перемещение товара в другую таблицу" style="whiteSpace=wrap;html=1;" vertex="1" parent="1">
          <mxGeometry x="1160" y="860" width="120" height="60" as="geometry" />
        </mxCell>
        <mxCell id="3HBWWHF8Gf6fdjCA_K7L-17" style="edgeStyle=orthogonalEdgeStyle;rounded=0;orthogonalLoop=1;jettySize=auto;html=1;exitX=0;exitY=0.5;exitDx=0;exitDy=0;entryX=1;entryY=0.5;entryDx=0;entryDy=0;" edge="1" parent="1" source="3HBWWHF8Gf6fdjCA_K7L-13" target="3HBWWHF8Gf6fdjCA_K7L-5">
          <mxGeometry relative="1" as="geometry" />
        </mxCell>
        <mxCell id="3HBWWHF8Gf6fdjCA_K7L-13" value="Нажатие на кнопку &quot;ОК&quot;" style="whiteSpace=wrap;html=1;" vertex="1" parent="1">
          <mxGeometry x="1310" y="956" width="120" height="60" as="geometry" />
        </mxCell>
        <mxCell id="3HBWWHF8Gf6fdjCA_K7L-18" style="edgeStyle=orthogonalEdgeStyle;rounded=0;orthogonalLoop=1;jettySize=auto;html=1;exitX=1;exitY=0.5;exitDx=0;exitDy=0;entryX=0;entryY=0.5;entryDx=0;entryDy=0;" edge="1" parent="1" source="3HBWWHF8Gf6fdjCA_K7L-14" target="3ubFfi_BpK5Fo4G5r66O-9">
          <mxGeometry relative="1" as="geometry" />
        </mxCell>
        <mxCell id="3HBWWHF8Gf6fdjCA_K7L-14" value="Нажатие на кнопку &quot;Cansel&quot;" style="whiteSpace=wrap;html=1;" vertex="1" parent="1">
          <mxGeometry x="1310" y="800" width="120" height="60" as="geometry" />
        </mxCell>
        <mxCell id="3HBWWHF8Gf6fdjCA_K7L-22" style="edgeStyle=orthogonalEdgeStyle;rounded=0;orthogonalLoop=1;jettySize=auto;html=1;exitX=0.5;exitY=1;exitDx=0;exitDy=0;entryX=0.5;entryY=0;entryDx=0;entryDy=0;" edge="1" parent="1" source="3HBWWHF8Gf6fdjCA_K7L-19" target="3HBWWHF8Gf6fdjCA_K7L-21">
          <mxGeometry relative="1" as="geometry" />
        </mxCell>
        <mxCell id="3HBWWHF8Gf6fdjCA_K7L-19" value="Нажатие на кнопку &quot;Заказать&quot;" style="whiteSpace=wrap;html=1;" vertex="1" parent="1">
          <mxGeometry x="1020" y="860" width="120" height="60" as="geometry" />
        </mxCell>
        <mxCell id="3HBWWHF8Gf6fdjCA_K7L-24" style="edgeStyle=orthogonalEdgeStyle;rounded=0;orthogonalLoop=1;jettySize=auto;html=1;exitX=0;exitY=0.5;exitDx=0;exitDy=0;entryX=0;entryY=0.5;entryDx=0;entryDy=0;" edge="1" parent="1" source="3HBWWHF8Gf6fdjCA_K7L-21" target="QBUq05zUNLMnL2oW77g4-29">
          <mxGeometry relative="1" as="geometry">
            <Array as="points">
              <mxPoint x="840" y="970" />
              <mxPoint x="840" y="120" />
            </Array>
          </mxGeometry>
        </mxCell>
        <mxCell id="3HBWWHF8Gf6fdjCA_K7L-21" value="Добавление в бд заказ на выбранные товары" style="whiteSpace=wrap;html=1;" vertex="1" parent="1">
          <mxGeometry x="1020" y="940" width="120" height="60" as="geometry" />
        </mxCell>
        <mxCell id="3HBWWHF8Gf6fdjCA_K7L-28" value="&lt;font style=&quot;font-size: 12px;&quot; face=&quot;Times New Roman&quot;&gt;3&lt;/font&gt;" style="text;html=1;align=center;verticalAlign=middle;resizable=0;points=[];autosize=1;strokeColor=none;fillColor=none;fontSize=20;fontFamily=Architects Daughter;" vertex="1" parent="1">
          <mxGeometry x="974" y="212" width="30" height="40" as="geometry" />
        </mxCell>
        <mxCell id="3HBWWHF8Gf6fdjCA_K7L-29" value="&lt;font style=&quot;font-size: 12px;&quot; face=&quot;Times New Roman&quot;&gt;4&lt;/font&gt;" style="text;html=1;align=center;verticalAlign=middle;resizable=0;points=[];autosize=1;strokeColor=none;fillColor=none;fontSize=20;fontFamily=Architects Daughter;" vertex="1" parent="1">
          <mxGeometry x="984" y="305" width="30" height="40" as="geometry" />
        </mxCell>
        <mxCell id="3HBWWHF8Gf6fdjCA_K7L-30" value="&lt;font style=&quot;font-size: 12px;&quot; face=&quot;Times New Roman&quot;&gt;5&lt;/font&gt;" style="text;html=1;align=center;verticalAlign=middle;resizable=0;points=[];autosize=1;strokeColor=none;fillColor=none;fontSize=20;fontFamily=Architects Daughter;" vertex="1" parent="1">
          <mxGeometry x="974" y="394" width="30" height="40" as="geometry" />
        </mxCell>
        <mxCell id="3HBWWHF8Gf6fdjCA_K7L-31" value="&lt;font style=&quot;font-size: 12px;&quot; face=&quot;Times New Roman&quot;&gt;6&lt;/font&gt;" style="text;html=1;align=center;verticalAlign=middle;resizable=0;points=[];autosize=1;strokeColor=none;fillColor=none;fontSize=20;fontFamily=Architects Daughter;" vertex="1" parent="1">
          <mxGeometry x="970" y="473" width="30" height="40" as="geometry" />
        </mxCell>
        <mxCell id="3HBWWHF8Gf6fdjCA_K7L-32" value="&lt;font style=&quot;font-size: 12px;&quot; face=&quot;Times New Roman&quot;&gt;7&lt;/font&gt;" style="text;html=1;align=center;verticalAlign=middle;resizable=0;points=[];autosize=1;strokeColor=none;fillColor=none;fontSize=20;fontFamily=Architects Daughter;" vertex="1" parent="1">
          <mxGeometry x="1128" y="394" width="30" height="40" as="geometry" />
        </mxCell>
        <mxCell id="3HBWWHF8Gf6fdjCA_K7L-33" value="&lt;font style=&quot;font-size: 12px;&quot; face=&quot;Times New Roman&quot;&gt;8&lt;/font&gt;" style="text;html=1;align=center;verticalAlign=middle;resizable=0;points=[];autosize=1;strokeColor=none;fillColor=none;fontSize=20;fontFamily=Architects Daughter;" vertex="1" parent="1">
          <mxGeometry x="974" y="650" width="30" height="40" as="geometry" />
        </mxCell>
        <mxCell id="3HBWWHF8Gf6fdjCA_K7L-34" value="&lt;font style=&quot;font-size: 12px;&quot; face=&quot;Times New Roman&quot;&gt;9&lt;/font&gt;" style="text;html=1;align=center;verticalAlign=middle;resizable=0;points=[];autosize=1;strokeColor=none;fillColor=none;fontSize=20;fontFamily=Architects Daughter;" vertex="1" parent="1">
          <mxGeometry x="1448" y="221" width="30" height="40" as="geometry" />
        </mxCell>
        <mxCell id="3HBWWHF8Gf6fdjCA_K7L-35" value="&lt;font style=&quot;font-size: 12px;&quot; face=&quot;Times New Roman&quot;&gt;10&lt;br&gt;&lt;/font&gt;" style="text;html=1;align=center;verticalAlign=middle;resizable=0;points=[];autosize=1;strokeColor=none;fillColor=none;fontSize=20;fontFamily=Architects Daughter;" vertex="1" parent="1">
          <mxGeometry x="1264" y="326" width="40" height="40" as="geometry" />
        </mxCell>
        <mxCell id="P6tbjZCsJqMQFhqcM9Dr-1" value="&lt;font style=&quot;font-size: 12px;&quot; face=&quot;Times New Roman&quot;&gt;11&lt;br&gt;&lt;/font&gt;" style="text;html=1;align=center;verticalAlign=middle;resizable=0;points=[];autosize=1;strokeColor=none;fillColor=none;fontSize=20;fontFamily=Architects Daughter;" vertex="1" parent="1">
          <mxGeometry x="1265" y="407" width="40" height="40" as="geometry" />
        </mxCell>
        <mxCell id="P6tbjZCsJqMQFhqcM9Dr-2" value="&lt;font style=&quot;font-size: 12px;&quot; face=&quot;Times New Roman&quot;&gt;12&lt;br&gt;&lt;/font&gt;" style="text;html=1;align=center;verticalAlign=middle;resizable=0;points=[];autosize=1;strokeColor=none;fillColor=none;fontSize=20;fontFamily=Architects Daughter;" vertex="1" parent="1">
          <mxGeometry x="1271" y="491" width="40" height="40" as="geometry" />
        </mxCell>
        <mxCell id="P6tbjZCsJqMQFhqcM9Dr-3" value="&lt;font style=&quot;font-size: 12px;&quot; face=&quot;Times New Roman&quot;&gt;13&lt;br&gt;&lt;/font&gt;" style="text;html=1;align=center;verticalAlign=middle;resizable=0;points=[];autosize=1;strokeColor=none;fillColor=none;fontSize=20;fontFamily=Architects Daughter;" vertex="1" parent="1">
          <mxGeometry x="1268" y="575" width="40" height="40" as="geometry" />
        </mxCell>
        <mxCell id="P6tbjZCsJqMQFhqcM9Dr-4" value="&lt;font style=&quot;font-size: 12px;&quot; face=&quot;Times New Roman&quot;&gt;14&lt;br&gt;&lt;/font&gt;" style="text;html=1;align=center;verticalAlign=middle;resizable=0;points=[];autosize=1;strokeColor=none;fillColor=none;fontSize=20;fontFamily=Architects Daughter;" vertex="1" parent="1">
          <mxGeometry x="1426" y="406" width="40" height="40" as="geometry" />
        </mxCell>
        <mxCell id="P6tbjZCsJqMQFhqcM9Dr-5" value="&lt;font style=&quot;font-size: 12px;&quot; face=&quot;Times New Roman&quot;&gt;15&lt;br&gt;&lt;/font&gt;" style="text;html=1;align=center;verticalAlign=middle;resizable=0;points=[];autosize=1;strokeColor=none;fillColor=none;fontSize=20;fontFamily=Architects Daughter;" vertex="1" parent="1">
          <mxGeometry x="1265" y="772" width="40" height="40" as="geometry" />
        </mxCell>
        <mxCell id="P6tbjZCsJqMQFhqcM9Dr-6" value="&lt;font style=&quot;font-size: 12px;&quot; face=&quot;Times New Roman&quot;&gt;16&lt;br&gt;&lt;/font&gt;" style="text;html=1;align=center;verticalAlign=middle;resizable=0;points=[];autosize=1;strokeColor=none;fillColor=none;fontSize=20;fontFamily=Architects Daughter;" vertex="1" parent="1">
          <mxGeometry x="1603" y="330" width="40" height="40" as="geometry" />
        </mxCell>
        <mxCell id="P6tbjZCsJqMQFhqcM9Dr-7" value="&lt;font style=&quot;font-size: 12px;&quot; face=&quot;Times New Roman&quot;&gt;17&lt;br&gt;&lt;/font&gt;" style="text;html=1;align=center;verticalAlign=middle;resizable=0;points=[];autosize=1;strokeColor=none;fillColor=none;fontSize=20;fontFamily=Architects Daughter;" vertex="1" parent="1">
          <mxGeometry x="1601" y="410" width="40" height="40" as="geometry" />
        </mxCell>
        <mxCell id="P6tbjZCsJqMQFhqcM9Dr-9" value="&lt;font style=&quot;font-size: 12px;&quot; face=&quot;Times New Roman&quot;&gt;18&lt;br&gt;&lt;/font&gt;" style="text;html=1;align=center;verticalAlign=middle;resizable=0;points=[];autosize=1;strokeColor=none;fillColor=none;fontSize=20;fontFamily=Architects Daughter;" vertex="1" parent="1">
          <mxGeometry x="1604" y="485" width="40" height="40" as="geometry" />
        </mxCell>
        <mxCell id="P6tbjZCsJqMQFhqcM9Dr-10" value="&lt;font style=&quot;font-size: 12px;&quot; face=&quot;Times New Roman&quot;&gt;19&lt;br&gt;&lt;/font&gt;" style="text;html=1;align=center;verticalAlign=middle;resizable=0;points=[];autosize=1;strokeColor=none;fillColor=none;fontSize=20;fontFamily=Architects Daughter;" vertex="1" parent="1">
          <mxGeometry x="1532" y="594" width="40" height="40" as="geometry" />
        </mxCell>
        <mxCell id="P6tbjZCsJqMQFhqcM9Dr-11" value="&lt;font style=&quot;font-size: 12px;&quot; face=&quot;Times New Roman&quot;&gt;21&lt;br&gt;&lt;/font&gt;" style="text;html=1;align=center;verticalAlign=middle;resizable=0;points=[];autosize=1;strokeColor=none;fillColor=none;fontSize=20;fontFamily=Architects Daughter;" vertex="1" parent="1">
          <mxGeometry x="1672" y="594" width="40" height="40" as="geometry" />
        </mxCell>
        <mxCell id="P6tbjZCsJqMQFhqcM9Dr-12" value="&lt;font style=&quot;font-size: 12px;&quot; face=&quot;Times New Roman&quot;&gt;20&lt;br&gt;&lt;/font&gt;" style="text;html=1;align=center;verticalAlign=middle;resizable=0;points=[];autosize=1;strokeColor=none;fillColor=none;fontSize=20;fontFamily=Architects Daughter;" vertex="1" parent="1">
          <mxGeometry x="1536" y="685" width="40" height="40" as="geometry" />
        </mxCell>
        <mxCell id="P6tbjZCsJqMQFhqcM9Dr-13" value="&lt;font style=&quot;font-size: 12px;&quot; face=&quot;Times New Roman&quot;&gt;22&lt;br&gt;&lt;/font&gt;" style="text;html=1;align=center;verticalAlign=middle;resizable=0;points=[];autosize=1;strokeColor=none;fillColor=none;fontSize=20;fontFamily=Architects Daughter;" vertex="1" parent="1">
          <mxGeometry x="1673" y="686" width="40" height="40" as="geometry" />
        </mxCell>
        <mxCell id="P6tbjZCsJqMQFhqcM9Dr-14" value="&lt;font style=&quot;font-size: 12px;&quot; face=&quot;Times New Roman&quot;&gt;23&lt;br&gt;&lt;/font&gt;" style="text;html=1;align=center;verticalAlign=middle;resizable=0;points=[];autosize=1;strokeColor=none;fillColor=none;fontSize=20;fontFamily=Architects Daughter;" vertex="1" parent="1">
          <mxGeometry x="1546" y="826" width="40" height="40" as="geometry" />
        </mxCell>
        <mxCell id="P6tbjZCsJqMQFhqcM9Dr-15" value="&lt;font style=&quot;font-size: 12px;&quot; face=&quot;Times New Roman&quot;&gt;24&lt;br&gt;&lt;/font&gt;" style="text;html=1;align=center;verticalAlign=middle;resizable=0;points=[];autosize=1;strokeColor=none;fillColor=none;fontSize=20;fontFamily=Architects Daughter;" vertex="1" parent="1">
          <mxGeometry x="1546" y="907" width="40" height="40" as="geometry" />
        </mxCell>
        <mxCell id="P6tbjZCsJqMQFhqcM9Dr-16" value="&lt;font style=&quot;font-size: 12px;&quot; face=&quot;Times New Roman&quot;&gt;25&lt;br&gt;&lt;/font&gt;" style="text;html=1;align=center;verticalAlign=middle;resizable=0;points=[];autosize=1;strokeColor=none;fillColor=none;fontSize=20;fontFamily=Architects Daughter;" vertex="1" parent="1">
          <mxGeometry x="1547" y="983" width="40" height="40" as="geometry" />
        </mxCell>
        <mxCell id="P6tbjZCsJqMQFhqcM9Dr-17" value="&lt;font style=&quot;font-size: 12px;&quot; face=&quot;Times New Roman&quot;&gt;26&lt;br&gt;&lt;/font&gt;" style="text;html=1;align=center;verticalAlign=middle;resizable=0;points=[];autosize=1;strokeColor=none;fillColor=none;fontSize=20;fontFamily=Architects Daughter;" vertex="1" parent="1">
          <mxGeometry x="1392" y="978" width="40" height="40" as="geometry" />
        </mxCell>
        <mxCell id="P6tbjZCsJqMQFhqcM9Dr-18" value="&lt;font style=&quot;font-size: 12px;&quot; face=&quot;Times New Roman&quot;&gt;27&lt;br&gt;&lt;/font&gt;" style="text;html=1;align=center;verticalAlign=middle;resizable=0;points=[];autosize=1;strokeColor=none;fillColor=none;fontSize=20;fontFamily=Architects Daughter;" vertex="1" parent="1">
          <mxGeometry x="1393" y="825" width="40" height="40" as="geometry" />
        </mxCell>
        <mxCell id="P6tbjZCsJqMQFhqcM9Dr-19" value="&lt;font style=&quot;font-size: 12px;&quot; face=&quot;Times New Roman&quot;&gt;28&lt;br&gt;&lt;/font&gt;" style="text;html=1;align=center;verticalAlign=middle;resizable=0;points=[];autosize=1;strokeColor=none;fillColor=none;fontSize=20;fontFamily=Architects Daughter;" vertex="1" parent="1">
          <mxGeometry x="1544" y="1054" width="40" height="40" as="geometry" />
        </mxCell>
        <mxCell id="P6tbjZCsJqMQFhqcM9Dr-20" value="&lt;font style=&quot;font-size: 12px;&quot; face=&quot;Times New Roman&quot;&gt;29&lt;br&gt;&lt;/font&gt;" style="text;html=1;align=center;verticalAlign=middle;resizable=0;points=[];autosize=1;strokeColor=none;fillColor=none;fontSize=20;fontFamily=Architects Daughter;" vertex="1" parent="1">
          <mxGeometry x="1247" y="883" width="40" height="40" as="geometry" />
        </mxCell>
        <mxCell id="P6tbjZCsJqMQFhqcM9Dr-21" value="&lt;font style=&quot;font-size: 12px;&quot; face=&quot;Times New Roman&quot;&gt;30&lt;br&gt;&lt;/font&gt;" style="text;html=1;align=center;verticalAlign=middle;resizable=0;points=[];autosize=1;strokeColor=none;fillColor=none;fontSize=20;fontFamily=Architects Daughter;" vertex="1" parent="1">
          <mxGeometry x="1106" y="887" width="40" height="40" as="geometry" />
        </mxCell>
        <mxCell id="P6tbjZCsJqMQFhqcM9Dr-22" value="&lt;font style=&quot;font-size: 12px;&quot; face=&quot;Times New Roman&quot;&gt;31&lt;br&gt;&lt;/font&gt;" style="text;html=1;align=center;verticalAlign=middle;resizable=0;points=[];autosize=1;strokeColor=none;fillColor=none;fontSize=20;fontFamily=Architects Daughter;" vertex="1" parent="1">
          <mxGeometry x="1108" y="965" width="40" height="40" as="geometry" />
        </mxCell>
      </root>
    </mxGraphModel>
  </diagram>
  <diagram id="C4jPYGmT9nxrUd0R_QR4" name="Авторизация">
    <mxGraphModel grid="1" page="1" gridSize="10" guides="1" tooltips="1" connect="1" arrows="1" fold="1" pageScale="1" pageWidth="827" pageHeight="1169" math="0" shadow="0">
      <root>
        <mxCell id="0" />
        <mxCell id="1" parent="0" />
        <mxCell id="9QsYkDAod077W7mfgAZz-1" style="edgeStyle=orthogonalEdgeStyle;shape=connector;rounded=0;orthogonalLoop=1;jettySize=auto;html=1;entryX=0.5;entryY=0;entryDx=0;entryDy=0;labelBackgroundColor=default;strokeColor=default;align=center;verticalAlign=middle;fontFamily=Helvetica;fontSize=11;fontColor=default;endArrow=classic;" edge="1" parent="1" source="9QsYkDAod077W7mfgAZz-2" target="9QsYkDAod077W7mfgAZz-60">
          <mxGeometry relative="1" as="geometry" />
        </mxCell>
        <mxCell id="9QsYkDAod077W7mfgAZz-2" value="Начало" style="ellipse;whiteSpace=wrap;html=1;" vertex="1" parent="1">
          <mxGeometry x="1055" width="120" height="60" as="geometry" />
        </mxCell>
        <mxCell id="1b7tAZnTXKSAB_iyNfoz-5" style="edgeStyle=orthogonalEdgeStyle;rounded=0;orthogonalLoop=1;jettySize=auto;html=1;exitX=0.5;exitY=1;exitDx=0;exitDy=0;entryX=0.5;entryY=0;entryDx=0;entryDy=0;" edge="1" parent="1" source="9QsYkDAod077W7mfgAZz-60" target="9QsYkDAod077W7mfgAZz-65">
          <mxGeometry relative="1" as="geometry" />
        </mxCell>
        <mxCell id="9QsYkDAod077W7mfgAZz-60" value="Открытие окна" style="rounded=0;whiteSpace=wrap;html=1;hachureGap=4;fontFamily=Helvetica;fontSource=https%3A%2F%2Ffonts.googleapis.com%2Fcss%3Ffamily%3DArchitects%2BDaughter;fontSize=11;fontColor=default;" vertex="1" parent="1">
          <mxGeometry x="1055" y="90" width="120" height="60" as="geometry" />
        </mxCell>
        <mxCell id="fZgbjt5rLcMzeJBuK41b-21" style="edgeStyle=orthogonalEdgeStyle;rounded=0;orthogonalLoop=1;jettySize=auto;html=1;exitX=0.5;exitY=1;exitDx=0;exitDy=0;entryX=0.5;entryY=0;entryDx=0;entryDy=0;" edge="1" parent="1" source="9QsYkDAod077W7mfgAZz-62" target="fZgbjt5rLcMzeJBuK41b-16">
          <mxGeometry relative="1" as="geometry" />
        </mxCell>
        <mxCell id="9QsYkDAod077W7mfgAZz-62" value="Выбран кладовщик" style="rounded=0;whiteSpace=wrap;html=1;hachureGap=4;fontFamily=Helvetica;fontSource=https%3A%2F%2Ffonts.googleapis.com%2Fcss%3Ffamily%3DArchitects%2BDaughter;fontSize=11;fontColor=default;" vertex="1" parent="1">
          <mxGeometry x="900" y="700" width="120" height="60" as="geometry" />
        </mxCell>
        <mxCell id="fZgbjt5rLcMzeJBuK41b-20" style="edgeStyle=orthogonalEdgeStyle;rounded=0;orthogonalLoop=1;jettySize=auto;html=1;exitX=0.5;exitY=1;exitDx=0;exitDy=0;entryX=0.5;entryY=0;entryDx=0;entryDy=0;" edge="1" parent="1" source="9QsYkDAod077W7mfgAZz-63" target="fZgbjt5rLcMzeJBuK41b-17">
          <mxGeometry relative="1" as="geometry" />
        </mxCell>
        <mxCell id="9QsYkDAod077W7mfgAZz-63" value="Выбран поставщик" style="rounded=0;whiteSpace=wrap;html=1;hachureGap=4;fontFamily=Helvetica;fontSource=https%3A%2F%2Ffonts.googleapis.com%2Fcss%3Ffamily%3DArchitects%2BDaughter;fontSize=11;fontColor=default;" vertex="1" parent="1">
          <mxGeometry x="1050" y="700" width="120" height="60" as="geometry" />
        </mxCell>
        <mxCell id="fZgbjt5rLcMzeJBuK41b-19" style="edgeStyle=orthogonalEdgeStyle;rounded=0;orthogonalLoop=1;jettySize=auto;html=1;exitX=0.5;exitY=1;exitDx=0;exitDy=0;entryX=0.5;entryY=0;entryDx=0;entryDy=0;" edge="1" parent="1" source="9QsYkDAod077W7mfgAZz-64" target="fZgbjt5rLcMzeJBuK41b-18">
          <mxGeometry relative="1" as="geometry" />
        </mxCell>
        <mxCell id="9QsYkDAod077W7mfgAZz-64" value="Выбран администратор" style="rounded=0;whiteSpace=wrap;html=1;hachureGap=4;fontFamily=Helvetica;fontSource=https%3A%2F%2Ffonts.googleapis.com%2Fcss%3Ffamily%3DArchitects%2BDaughter;fontSize=11;fontColor=default;" vertex="1" parent="1">
          <mxGeometry x="1200" y="700" width="120" height="60" as="geometry" />
        </mxCell>
        <mxCell id="1b7tAZnTXKSAB_iyNfoz-6" style="edgeStyle=orthogonalEdgeStyle;rounded=0;orthogonalLoop=1;jettySize=auto;html=1;exitX=0.5;exitY=1;exitDx=0;exitDy=0;entryX=0.5;entryY=0;entryDx=0;entryDy=0;" edge="1" parent="1" source="9QsYkDAod077W7mfgAZz-65" target="9QsYkDAod077W7mfgAZz-66">
          <mxGeometry relative="1" as="geometry" />
        </mxCell>
        <mxCell id="9QsYkDAod077W7mfgAZz-65" value="Выбор типа пользователя и склада работы" style="rounded=0;whiteSpace=wrap;html=1;hachureGap=4;fontFamily=Helvetica;fontSource=https%3A%2F%2Ffonts.googleapis.com%2Fcss%3Ffamily%3DArchitects%2BDaughter;fontSize=11;fontColor=default;" vertex="1" parent="1">
          <mxGeometry x="1055" y="170" width="120" height="60" as="geometry" />
        </mxCell>
        <mxCell id="1b7tAZnTXKSAB_iyNfoz-7" style="edgeStyle=orthogonalEdgeStyle;rounded=0;orthogonalLoop=1;jettySize=auto;html=1;exitX=0.5;exitY=1;exitDx=0;exitDy=0;entryX=0.5;entryY=0;entryDx=0;entryDy=0;" edge="1" parent="1" source="9QsYkDAod077W7mfgAZz-66" target="9QsYkDAod077W7mfgAZz-67">
          <mxGeometry relative="1" as="geometry" />
        </mxCell>
        <mxCell id="9QsYkDAod077W7mfgAZz-66" value="Ввод логина и пароля" style="rounded=0;whiteSpace=wrap;html=1;hachureGap=4;fontFamily=Helvetica;fontSource=https%3A%2F%2Ffonts.googleapis.com%2Fcss%3Ffamily%3DArchitects%2BDaughter;fontSize=11;fontColor=default;" vertex="1" parent="1">
          <mxGeometry x="1055" y="250" width="120" height="60" as="geometry" />
        </mxCell>
        <mxCell id="1b7tAZnTXKSAB_iyNfoz-8" style="edgeStyle=orthogonalEdgeStyle;rounded=0;orthogonalLoop=1;jettySize=auto;html=1;exitX=0.5;exitY=1;exitDx=0;exitDy=0;entryX=0.5;entryY=0;entryDx=0;entryDy=0;" edge="1" parent="1" source="9QsYkDAod077W7mfgAZz-67" target="fZgbjt5rLcMzeJBuK41b-1">
          <mxGeometry relative="1" as="geometry" />
        </mxCell>
        <mxCell id="9QsYkDAod077W7mfgAZz-67" value="Нажатие на кнопку &quot;Войти&quot;" style="rounded=0;whiteSpace=wrap;html=1;hachureGap=4;fontFamily=Helvetica;fontSource=https%3A%2F%2Ffonts.googleapis.com%2Fcss%3Ffamily%3DArchitects%2BDaughter;fontSize=11;fontColor=default;" vertex="1" parent="1">
          <mxGeometry x="1055" y="340" width="120" height="60" as="geometry" />
        </mxCell>
        <mxCell id="fZgbjt5rLcMzeJBuK41b-3" value="Нет" style="edgeStyle=orthogonalEdgeStyle;rounded=0;orthogonalLoop=1;jettySize=auto;html=1;exitX=1;exitY=0.5;exitDx=0;exitDy=0;entryX=0.5;entryY=1;entryDx=0;entryDy=0;" edge="1" parent="1" source="fZgbjt5rLcMzeJBuK41b-1" target="fZgbjt5rLcMzeJBuK41b-2">
          <mxGeometry relative="1" as="geometry" />
        </mxCell>
        <mxCell id="fZgbjt5rLcMzeJBuK41b-9" value="Да" style="edgeStyle=orthogonalEdgeStyle;rounded=0;orthogonalLoop=1;jettySize=auto;html=1;exitX=0.5;exitY=1;exitDx=0;exitDy=0;entryX=0.5;entryY=0;entryDx=0;entryDy=0;" edge="1" parent="1" source="fZgbjt5rLcMzeJBuK41b-1" target="fZgbjt5rLcMzeJBuK41b-8">
          <mxGeometry relative="1" as="geometry" />
        </mxCell>
        <mxCell id="fZgbjt5rLcMzeJBuK41b-1" value="Все поля заполнены?" style="rhombus;whiteSpace=wrap;html=1;rounded=0;" vertex="1" parent="1">
          <mxGeometry x="1055" y="430" width="120" height="80" as="geometry" />
        </mxCell>
        <mxCell id="fZgbjt5rLcMzeJBuK41b-4" style="edgeStyle=orthogonalEdgeStyle;rounded=0;orthogonalLoop=1;jettySize=auto;html=1;exitX=0;exitY=0.5;exitDx=0;exitDy=0;entryX=1;entryY=0.5;entryDx=0;entryDy=0;" edge="1" parent="1" source="fZgbjt5rLcMzeJBuK41b-2" target="9QsYkDAod077W7mfgAZz-65">
          <mxGeometry relative="1" as="geometry" />
        </mxCell>
        <mxCell id="fZgbjt5rLcMzeJBuK41b-2" value="Подсветить поля, которые не заполнены" style="whiteSpace=wrap;html=1;rounded=0;" vertex="1" parent="1">
          <mxGeometry x="1220" y="170" width="120" height="60" as="geometry" />
        </mxCell>
        <mxCell id="fZgbjt5rLcMzeJBuK41b-10" style="edgeStyle=orthogonalEdgeStyle;rounded=0;orthogonalLoop=1;jettySize=auto;html=1;exitX=0.5;exitY=1;exitDx=0;exitDy=0;entryX=0.5;entryY=0;entryDx=0;entryDy=0;" edge="1" parent="1" source="fZgbjt5rLcMzeJBuK41b-8" target="9QsYkDAod077W7mfgAZz-62">
          <mxGeometry relative="1" as="geometry" />
        </mxCell>
        <mxCell id="fZgbjt5rLcMzeJBuK41b-11" style="edgeStyle=orthogonalEdgeStyle;rounded=0;orthogonalLoop=1;jettySize=auto;html=1;exitX=0.5;exitY=1;exitDx=0;exitDy=0;entryX=0.5;entryY=0;entryDx=0;entryDy=0;" edge="1" parent="1" source="fZgbjt5rLcMzeJBuK41b-8" target="9QsYkDAod077W7mfgAZz-63">
          <mxGeometry relative="1" as="geometry" />
        </mxCell>
        <mxCell id="fZgbjt5rLcMzeJBuK41b-12" value="Да" style="edgeStyle=orthogonalEdgeStyle;rounded=0;orthogonalLoop=1;jettySize=auto;html=1;exitX=0.5;exitY=1;exitDx=0;exitDy=0;entryX=0.5;entryY=0;entryDx=0;entryDy=0;" edge="1" parent="1" source="fZgbjt5rLcMzeJBuK41b-8" target="9QsYkDAod077W7mfgAZz-64">
          <mxGeometry x="-0.8222" relative="1" as="geometry">
            <mxPoint as="offset" />
          </mxGeometry>
        </mxCell>
        <mxCell id="fZgbjt5rLcMzeJBuK41b-13" value="Нет" style="edgeStyle=orthogonalEdgeStyle;rounded=0;orthogonalLoop=1;jettySize=auto;html=1;exitX=1;exitY=0.5;exitDx=0;exitDy=0;entryX=0.5;entryY=1;entryDx=0;entryDy=0;" edge="1" parent="1" source="fZgbjt5rLcMzeJBuK41b-8" target="fZgbjt5rLcMzeJBuK41b-14">
          <mxGeometry relative="1" as="geometry">
            <mxPoint x="1430" y="310" as="targetPoint" />
          </mxGeometry>
        </mxCell>
        <mxCell id="fZgbjt5rLcMzeJBuK41b-8" value="Пароль &lt;br&gt;совпадает?" style="rhombus;whiteSpace=wrap;html=1;rounded=0;" vertex="1" parent="1">
          <mxGeometry x="1055" y="540" width="120" height="80" as="geometry" />
        </mxCell>
        <mxCell id="fZgbjt5rLcMzeJBuK41b-15" style="edgeStyle=orthogonalEdgeStyle;rounded=0;orthogonalLoop=1;jettySize=auto;html=1;exitX=0.5;exitY=0;exitDx=0;exitDy=0;entryX=1;entryY=0.5;entryDx=0;entryDy=0;" edge="1" parent="1" source="fZgbjt5rLcMzeJBuK41b-14" target="9QsYkDAod077W7mfgAZz-60">
          <mxGeometry relative="1" as="geometry" />
        </mxCell>
        <mxCell id="fZgbjt5rLcMzeJBuK41b-14" value="Вывести ошибку авторизации" style="whiteSpace=wrap;html=1;rounded=0;" vertex="1" parent="1">
          <mxGeometry x="1370" y="170" width="120" height="60" as="geometry" />
        </mxCell>
        <mxCell id="fZgbjt5rLcMzeJBuK41b-24" style="edgeStyle=orthogonalEdgeStyle;rounded=0;orthogonalLoop=1;jettySize=auto;html=1;exitX=0.5;exitY=1;exitDx=0;exitDy=0;entryX=1;entryY=0.5;entryDx=0;entryDy=0;" edge="1" parent="1" source="fZgbjt5rLcMzeJBuK41b-16" target="9QsYkDAod077W7mfgAZz-60">
          <mxGeometry relative="1" as="geometry">
            <Array as="points">
              <mxPoint x="960" y="910" />
              <mxPoint x="1520" y="910" />
              <mxPoint x="1520" y="120" />
            </Array>
          </mxGeometry>
        </mxCell>
        <mxCell id="fZgbjt5rLcMzeJBuK41b-16" value="Открывается &lt;br&gt;окно кладовщика" style="ellipse;whiteSpace=wrap;html=1;aspect=fixed;" vertex="1" parent="1">
          <mxGeometry x="907.5" y="790" width="105" height="105" as="geometry" />
        </mxCell>
        <mxCell id="fZgbjt5rLcMzeJBuK41b-23" style="edgeStyle=orthogonalEdgeStyle;rounded=0;orthogonalLoop=1;jettySize=auto;html=1;exitX=0.5;exitY=1;exitDx=0;exitDy=0;entryX=1;entryY=0.5;entryDx=0;entryDy=0;" edge="1" parent="1" source="fZgbjt5rLcMzeJBuK41b-17" target="9QsYkDAod077W7mfgAZz-60">
          <mxGeometry relative="1" as="geometry">
            <Array as="points">
              <mxPoint x="1110" y="910" />
              <mxPoint x="1520" y="910" />
              <mxPoint x="1520" y="120" />
            </Array>
          </mxGeometry>
        </mxCell>
        <mxCell id="fZgbjt5rLcMzeJBuK41b-17" value="Открывается окно поставщика" style="ellipse;whiteSpace=wrap;html=1;aspect=fixed;" vertex="1" parent="1">
          <mxGeometry x="1060" y="790" width="100" height="100" as="geometry" />
        </mxCell>
        <mxCell id="fZgbjt5rLcMzeJBuK41b-22" style="edgeStyle=orthogonalEdgeStyle;rounded=0;orthogonalLoop=1;jettySize=auto;html=1;exitX=0.5;exitY=1;exitDx=0;exitDy=0;entryX=1;entryY=0.5;entryDx=0;entryDy=0;" edge="1" parent="1" source="fZgbjt5rLcMzeJBuK41b-18" target="9QsYkDAod077W7mfgAZz-60">
          <mxGeometry relative="1" as="geometry">
            <mxPoint x="1590" y="130" as="targetPoint" />
            <Array as="points">
              <mxPoint x="1260" y="910" />
              <mxPoint x="1520" y="910" />
              <mxPoint x="1520" y="120" />
            </Array>
          </mxGeometry>
        </mxCell>
        <mxCell id="fZgbjt5rLcMzeJBuK41b-18" value="Открывается окно администратора" style="ellipse;whiteSpace=wrap;html=1;aspect=fixed;" vertex="1" parent="1">
          <mxGeometry x="1210" y="790" width="100" height="100" as="geometry" />
        </mxCell>
        <mxCell id="1b7tAZnTXKSAB_iyNfoz-1" value="&lt;font style=&quot;font-size: 12px;&quot; face=&quot;Times New Roman&quot;&gt;1&lt;/font&gt;" style="text;html=1;align=center;verticalAlign=middle;resizable=0;points=[];autosize=1;strokeColor=none;fillColor=none;fontSize=20;fontFamily=Architects Daughter;" vertex="1" parent="1">
          <mxGeometry x="1146" y="113" width="30" height="40" as="geometry" />
        </mxCell>
        <mxCell id="1b7tAZnTXKSAB_iyNfoz-2" value="&lt;font style=&quot;font-size: 12px;&quot; face=&quot;Times New Roman&quot;&gt;2&lt;/font&gt;" style="text;html=1;align=center;verticalAlign=middle;resizable=0;points=[];autosize=1;strokeColor=none;fillColor=none;fontSize=20;fontFamily=Architects Daughter;" vertex="1" parent="1">
          <mxGeometry x="1148" y="194" width="30" height="40" as="geometry" />
        </mxCell>
        <mxCell id="1b7tAZnTXKSAB_iyNfoz-3" value="&lt;font style=&quot;font-size: 12px;&quot; face=&quot;Times New Roman&quot;&gt;3&lt;/font&gt;" style="text;html=1;align=center;verticalAlign=middle;resizable=0;points=[];autosize=1;strokeColor=none;fillColor=none;fontSize=20;fontFamily=Architects Daughter;" vertex="1" parent="1">
          <mxGeometry x="1147" y="274" width="30" height="40" as="geometry" />
        </mxCell>
        <mxCell id="1b7tAZnTXKSAB_iyNfoz-4" value="&lt;font style=&quot;font-size: 12px;&quot; face=&quot;Times New Roman&quot;&gt;4&lt;/font&gt;" style="text;html=1;align=center;verticalAlign=middle;resizable=0;points=[];autosize=1;strokeColor=none;fillColor=none;fontSize=20;fontFamily=Architects Daughter;" vertex="1" parent="1">
          <mxGeometry x="1149" y="363" width="30" height="40" as="geometry" />
        </mxCell>
        <mxCell id="1b7tAZnTXKSAB_iyNfoz-9" value="&lt;font face=&quot;Times New Roman&quot;&gt;&lt;span style=&quot;font-size: 12px;&quot;&gt;5&lt;/span&gt;&lt;/font&gt;" style="text;html=1;align=center;verticalAlign=middle;resizable=0;points=[];autosize=1;strokeColor=none;fillColor=none;fontSize=20;fontFamily=Architects Daughter;" vertex="1" parent="1">
          <mxGeometry x="1309" y="189" width="30" height="40" as="geometry" />
        </mxCell>
        <mxCell id="1b7tAZnTXKSAB_iyNfoz-10" value="&lt;font style=&quot;font-size: 12px;&quot; face=&quot;Times New Roman&quot;&gt;6&lt;/font&gt;" style="text;html=1;align=center;verticalAlign=middle;resizable=0;points=[];autosize=1;strokeColor=none;fillColor=none;fontSize=20;fontFamily=Architects Daughter;" vertex="1" parent="1">
          <mxGeometry x="1461" y="193" width="30" height="40" as="geometry" />
        </mxCell>
        <mxCell id="1b7tAZnTXKSAB_iyNfoz-11" value="&lt;font style=&quot;font-size: 12px;&quot; face=&quot;Times New Roman&quot;&gt;7&lt;/font&gt;" style="text;html=1;align=center;verticalAlign=middle;resizable=0;points=[];autosize=1;strokeColor=none;fillColor=none;fontSize=20;fontFamily=Architects Daughter;" vertex="1" parent="1">
          <mxGeometry x="993" y="722" width="30" height="40" as="geometry" />
        </mxCell>
        <mxCell id="1b7tAZnTXKSAB_iyNfoz-12" value="&lt;font style=&quot;font-size: 12px;&quot; face=&quot;Times New Roman&quot;&gt;8&lt;/font&gt;" style="text;html=1;align=center;verticalAlign=middle;resizable=0;points=[];autosize=1;strokeColor=none;fillColor=none;fontSize=20;fontFamily=Architects Daughter;" vertex="1" parent="1">
          <mxGeometry x="1144" y="721" width="30" height="40" as="geometry" />
        </mxCell>
        <mxCell id="1b7tAZnTXKSAB_iyNfoz-13" value="&lt;font style=&quot;font-size: 12px;&quot; face=&quot;Times New Roman&quot;&gt;9&lt;/font&gt;" style="text;html=1;align=center;verticalAlign=middle;resizable=0;points=[];autosize=1;strokeColor=none;fillColor=none;fontSize=20;fontFamily=Architects Daughter;" vertex="1" parent="1">
          <mxGeometry x="1297" y="724" width="30" height="40" as="geometry" />
        </mxCell>
      </root>
    </mxGraphModel>
  </diagram>
</mxfile>
